<?xml version="1.0" standalone="no"?>
<!DOCTYPE svg PUBLIC "-//W3C//DTD SVG 1.1//EN" "http://www.w3.org/Graphics/SVG/1.1/DTD/svg11.dtd" >
<svg xmlns="http://www.w3.org/2000/svg" xmlns:xlink="http://www.w3.org/1999/xlink" version="1.1">
<metadata></metadata>
<defs>
<font id="pacificoregular" horiz-adv-x="1047" >
<font-face units-per-em="2048" ascent="1638" descent="-410" />
<missing-glyph horiz-adv-x="588" />
<glyph horiz-adv-x="0" />
<glyph unicode="&#xd;" horiz-adv-x="482" />
<glyph unicode=" "  horiz-adv-x="588" />
<glyph unicode="&#x09;" horiz-adv-x="588" />
<glyph unicode="&#xa0;" horiz-adv-x="588" />
<glyph unicode="!" horiz-adv-x="1278" d="M233 175q0 39 11.5 76t35 66.5t61.5 46.5t90 17q84 0 129.5 -45t45.5 -130q0 -4 -1 -6q-2 -5 -4 -21t-7.5 -38.5t-16.5 -47.5t-32 -46t-53.5 -35t-81.5 -14q-40 0 -72 10t-55.5 32t-36.5 55.5t-13 79.5zM415 537q0 5 2 16q11 111 32.5 229.5t49.5 236.5t60 233.5 t63 221.5t60 199t50 167q14 52 40.5 84t59 50t68.5 24t70 6q17 0 32 -4t26 -15.5t17 -31.5t6 -51q0 -22 -3 -47t-9 -58q-27 -126 -70 -253t-103.5 -273t-138 -320t-172.5 -398q-2 -12 -11 -22t-22 -17t-28.5 -11t-29.5 -4q-20 0 -34.5 8.5t-14.5 29.5z" />
<glyph unicode="&#x22;" horiz-adv-x="1278" d="M229 1386q0 19 1.5 50t4 68t5.5 78.5t6 81.5q8 94 18 202q0 33 16 58t42 43t58.5 27.5t64.5 9.5q27 0 52 -7t44.5 -21t30.5 -36.5t11 -52.5q0 -13 -2 -26.5t-6 -28.5q-16 -52 -33.5 -114t-36.5 -123.5t-37 -117.5t-32 -95q-18 -51 -52 -76.5t-69 -25.5q-34 0 -60 26.5 t-26 79.5zM644 1386q0 19 1.5 50t3.5 68t5.5 78.5t6.5 81.5q8 94 17 202q0 33 16.5 58t42 43t58 27.5t65.5 9.5q27 0 51.5 -7t44 -21t31 -36.5t11.5 -52.5q0 -13 -2 -26.5t-7 -28.5q-15 -52 -32.5 -114t-36.5 -123.5t-37 -117.5t-32 -95q-18 -51 -52 -76.5t-69 -25.5 q-34 0 -60 26.5t-26 79.5z" />
<glyph unicode="#" horiz-adv-x="1513" d="M172 46q0 24 8.5 58t27.5 77l134 302q-5 0 -9.5 0.5t-8.5 0.5q-26 0 -52 6.5t-46.5 20.5t-33.5 36t-13 53q0 30 11 49.5t27.5 33t37 22t41.5 14.5q14 6 47.5 6.5t64.5 0.5h41l140 311h-67q-26 0 -52 6.5t-46.5 20.5t-33.5 36t-13 53q0 41 21 66t57 38t83.5 17.5t99.5 4.5 h58l149 330q10 26 30.5 53.5t49.5 49t64.5 35.5t76.5 14q23 0 36 -9t18 -22.5t6.5 -29.5t1.5 -30q0 -8 -5.5 -24t-13.5 -35.5t-16.5 -39t-14.5 -32.5q-25 -55 -53 -120t-59 -140q69 0 142.5 0.5t147.5 0.5q36 100 67 186t54 148q10 25 27.5 53t44 49.5t61 35.5t75.5 14 q23 0 36.5 -9.5t20.5 -23t9 -29.5t5 -30q0 -9 -4.5 -25t-10.5 -35t-12.5 -38t-11.5 -33q-21 -55 -43.5 -121t-47.5 -142h136q27 0 44.5 -5.5t27 -15t13.5 -21.5t4 -25q0 -38 -12.5 -70t-43.5 -55.5t-82 -37t-128 -13.5h-39q-24 -74 -50.5 -151t-55.5 -159h94 q27 -2 44.5 -8.5t27 -16t13.5 -21t4 -23.5q0 -37 -13 -69t-44 -55t-82 -36.5t-127 -13.5h-3q-38 -103 -79.5 -208.5t-86.5 -216.5q-13 -31 -29.5 -49.5t-33.5 -28t-35 -12t-34 -2.5q-22 0 -42.5 3.5t-36.5 14t-26 29.5t-10 51q0 46 26 121l105 297q-80 -1 -168 -1.5 t-182 -0.5q-47 -103 -98 -209.5t-106 -216.5q-16 -31 -34 -49.5t-36.5 -28t-36 -12.5t-33.5 -3q-19 0 -38 3t-34 11.5t-24.5 25t-9.5 44.5zM730 724h1h162.5h164.5q27 76 55.5 155t56.5 158h-306q-31 -75 -64 -152.5t-70 -160.5z" />
<glyph unicode="$" horiz-adv-x="1861" d="M233 450q0 39 8 83t26 87t48 83t73 70.5t100.5 48.5t133.5 18q32 0 55.5 -9t39 -24t23 -34t7.5 -39q0 -34 -23 -61t-70 -27q-24 0 -53 -7t-53 -28t-40.5 -58.5t-16.5 -98.5q0 -103 90 -159t246 -68l126 694q-85 45 -167.5 92.5t-148 104t-106 125t-40.5 155.5 q0 83 40.5 166.5t120.5 152t199 114t275 51.5l24 140q3 20 14 41.5t30.5 39t47.5 29t64 11.5q19 0 32.5 -9.5t22 -22.5t13 -27.5t4.5 -25.5q0 -8 -1 -20t-2.5 -25t-3.5 -25.5t-3 -21.5l-16 -100q88 -17 166.5 -50.5t138.5 -82t95.5 -111t35.5 -138.5q0 -41 -10 -71 t-27.5 -49t-39.5 -29t-45 -10q-24 0 -49 10.5t-44.5 31t-31.5 50t-12 67.5q0 54 -56 97.5t-158 63.5l-103 -602q76 -44 148.5 -93.5t129.5 -109t91.5 -132t34.5 -160.5q0 -120 -43 -215.5t-120 -164.5t-185.5 -110.5t-240.5 -53.5l-32 -175q-8 -24 -20 -38.5t-26.5 -22 t-30.5 -9.5t-31 -2q-11 0 -20 0.5t-18 0.5q-17 0 -32 9t-25 25.5t-16 38t-6 46.5q0 12 1 25t3 28q1 8 4.5 27.5t8.5 46.5q-115 10 -216 41.5t-176 85.5t-118.5 133t-43.5 186zM784 1430q0 -40 16 -75t45 -67.5t67.5 -61.5t85.5 -59q24 132 46.5 255t40.5 231 q-81 -8 -137.5 -29.5t-93 -52.5t-53.5 -67.5t-17 -73.5zM1071 242q65 16 117.5 44t89.5 67t57.5 88t20.5 107q0 38 -14 73t-38.5 65.5t-58.5 58.5t-75 55z" />
<glyph unicode="%" horiz-adv-x="2445" d="M117 1210q0 78 15 157t44.5 152t74.5 136t105 110t135 74t166 27q101 0 173.5 -35.5t119.5 -97t69 -143t22 -173.5q0 -79 -17 -160.5t-49.5 -158t-79.5 -144.5t-106.5 -119t-130 -80t-151.5 -29q-97 0 -169 39.5t-122 106.5t-74.5 154t-24.5 184zM393 1232q0 -59 8 -113 t25 -95.5t41.5 -66t58.5 -24.5q50 0 95 45.5t80.5 116.5t56 157t20.5 167q0 49 -8.5 92.5t-26 76.5t-46 52t-68.5 19q-58 0 -102 -38t-74 -99t-45 -137t-15 -153zM642 104q0 37 11 78.5t26 73.5q18 33 53.5 103t84 164.5t107.5 208.5t122 235.5t127 245t123 237.5t111 212 t90 170q11 19 28 37.5t42.5 33t60.5 23.5t81 9q28 0 38 -19.5t10 -47.5q0 -19 -3.5 -40.5t-9 -42t-12 -38.5t-10.5 -28q-42 -82 -98 -202.5t-122 -262.5t-137.5 -297.5t-144 -307.5t-142 -292.5t-130.5 -252.5q-17 -33 -44 -53t-56 -31t-58 -15.5t-49 -4.5q-28 0 -47.5 8 t-31 22t-16 33t-4.5 41zM1432 521q0 82 14.5 165t44.5 159.5t74 143t103.5 115.5t134 77.5t165.5 28.5q95 0 164 -39t114 -105t66 -153.5t21 -184.5q0 -75 -17 -152.5t-48 -151t-76.5 -138t-103 -113t-125.5 -76.5t-145 -28q-96 0 -168 37t-120.5 99t-73 144t-24.5 172z M1709 534q0 -50 7.5 -96.5t23 -82t40 -57.5t57.5 -22q45 0 87.5 40t73.5 103.5t50 139.5t19 149q0 60 -7 113t-22 93.5t-39.5 64t-58.5 23.5q-58 0 -101 -40.5t-72 -107t-43.5 -150.5t-14.5 -170z" />
<glyph unicode="&#x26;" horiz-adv-x="1629" d="M117 373q0 68 27.5 140t82.5 144.5t137 140.5t192 128q-20 37 -42.5 88t-41 107t-31 113t-12.5 107q0 88 37.5 168t101.5 141.5t147.5 97.5t176.5 36q79 0 145.5 -24t114 -67.5t74 -101.5t26.5 -128q0 -60 -20.5 -126.5t-67 -135t-120 -136.5t-178.5 -132q13 -26 44 -75 t69 -109.5t80 -127t77 -127.5q23 16 36.5 33t20 34.5t8 35.5t1.5 36q0 41 -9.5 70t-27.5 57t-43 60t-54 79q0 1 5.5 6t12.5 11.5t13.5 11.5t8.5 5q16 0 46.5 -13.5t66 -37.5t73.5 -58.5t68 -76.5t49.5 -91t19.5 -102q0 -66 -36 -136.5t-123 -141.5q3 0 22.5 -14.5t44.5 -34 t49.5 -38.5t36.5 -30q17 -16 17 -45q0 -24 -14.5 -53t-37.5 -53t-50.5 -40.5t-53.5 -16.5q-25 0 -44 17q-14 11 -40.5 39t-52.5 57t-45.5 51t-19.5 23q-50 -39 -116 -69q-58 -26 -137 -47.5t-181 -21.5q-132 0 -231.5 29t-166.5 80t-101 118.5t-34 145.5zM395 411 q0 -41 16 -76t48 -61t82 -41t118 -15q70 0 137 24.5t125 62.5q-46 55 -81.5 100.5t-70 96t-71 111.5t-83.5 147q-52 -39 -93 -82.5t-69.5 -89t-43 -90t-14.5 -87.5zM745 1363q0 -36 10.5 -85.5t23.5 -95.5t23.5 -78t12.5 -32q53 49 97 94t74 89t47 89.5t17 94.5 q0 27 -7 48.5t-23.5 36.5t-44.5 23t-70 8q-23 0 -51 -14.5t-52 -40.5t-40.5 -61t-16.5 -76z" />
<glyph unicode="'" horiz-adv-x="657" d="M173 1386q0 19 1.5 50t3.5 68t5.5 78.5t6.5 81.5q8 94 17 202q0 33 16.5 58t42.5 43t58 27.5t65 9.5q27 0 51.5 -7t44 -21t31 -36.5t11.5 -52.5q0 -13 -2 -26.5t-7 -28.5q-15 -52 -32.5 -114t-36.5 -123.5t-37 -117.5t-32 -95q-18 -51 -52 -76.5t-69 -25.5 q-34 0 -60 26.5t-26 79.5z" />
<glyph unicode="(" horiz-adv-x="1513" d="M349 173q0 125 19.5 265t55.5 282.5t87 283t115 267.5t138.5 236t158.5 189t174 125t185 45q69 0 143.5 -23.5t137.5 -62.5t109 -88.5t59 -101.5q0 -2 0.5 -4.5t0.5 -4.5q0 -18 -15.5 -42t-38.5 -45t-49.5 -35t-47.5 -14q-15 0 -23 7q-25 19 -52 48t-59.5 56.5 t-72.5 47.5t-92 20q-66 0 -129 -41.5t-122 -113t-112 -169t-97.5 -210t-81 -233t-62 -241t-39.5 -234t-14 -209.5q0 -76 7 -139.5t23.5 -109.5t43 -71.5t65.5 -25.5q28 0 60 5t74 25.5t93 62t118 115.5q14 15 30 21.5t30 6.5q20 0 39 -13t32.5 -33t21.5 -45t8 -49 q0 -18 -5 -34t-17 -28q-143 -148 -283.5 -212t-270.5 -64q-89 0 -154.5 44t-107.5 122t-62.5 186t-20.5 236z" />
<glyph unicode=")" horiz-adv-x="1396" d="M66 -130q0 19 15.5 42.5t39 44.5t50 35t46.5 14q15 0 23 -6q26 -12 53 -30t59 -34t72 -27.5t92 -11.5q65 0 124 57.5t109 153.5t90.5 222.5t69 265t44.5 281.5t16 270q0 101 -10.5 188t-32.5 151.5t-56.5 101t-82.5 36.5q-28 0 -65 -4.5t-83.5 -25t-103.5 -62.5 t-122 -115q-14 -15 -30 -21.5t-30 -6.5q-21 0 -39.5 13t-32 33t-21.5 44.5t-8 48.5q0 40 21 63q144 148 284.5 211.5t269.5 63.5q108 0 187 -61t129 -166t74.5 -245.5t24.5 -298.5q0 -160 -23 -328.5t-67.5 -328t-108 -302t-144 -249.5t-177.5 -169.5t-206 -62.5 q-70 0 -144 17.5t-137 46t-109 66t-59 77.5q0 2 -0.5 4t-0.5 4z" />
<glyph unicode="*" horiz-adv-x="1163" d="M35 1334q0 28 18 49.5t63 33.5q32 6 70 13t77.5 14.5t77.5 13t70 11.5q-29 13 -64.5 29t-71.5 33t-72 33.5t-65 30.5q-58 34 -58 80q0 23 12.5 44.5t32.5 39t44.5 27.5t49.5 10q38 0 62 -25q45 -42 88 -83q37 -35 76 -72.5t66 -63.5q0 38 1 91.5t2 103.5q1 60 2 122 q0 24 12 43t30.5 32t42 19.5t48.5 6.5q39 0 70 -20.5t31 -64.5q0 -9 -2 -18.5t-4 -21.5q-12 -34 -26 -74.5t-29 -81t-29.5 -79t-26.5 -67.5q34 19 80 45t88 48q50 27 101 55q10 7 19.5 9t21.5 2q24 0 47.5 -12t41.5 -31.5t29 -43t11 -47.5q0 -27 -18 -49t-63 -34 q-32 -6 -71 -14t-78.5 -15t-77.5 -13.5t-71 -10.5q30 -13 65.5 -29t72 -33.5t72.5 -34t66 -30.5q31 -19 44.5 -39.5t13.5 -41.5q0 -23 -12.5 -44.5t-32.5 -38.5t-44.5 -27t-48.5 -10q-38 0 -63 25q-45 42 -88 83q-37 34 -76 71.5t-65 64.5q-1 -38 -1.5 -91.5t-1.5 -103.5 q-1 -58 -2 -119q0 -24 -12 -42.5t-31.5 -31.5t-43 -20t-47.5 -7q-20 0 -37.5 5t-31.5 15.5t-23 26.5t-9 38q0 9 1.5 19.5t4.5 20.5q11 34 25.5 73.5t29 79.5t29 77.5t26.5 66.5q-35 -19 -80.5 -44t-86.5 -47q-49 -27 -100 -54q-18 -11 -41 -11q-25 0 -48 12.5t-41.5 32 t-29.5 43t-11 47.5z" />
<glyph unicode="+" horiz-adv-x="1396" d="M232 552q0 19 9.5 38t27 33.5t44.5 24t63 9.5h237v246q0 30 10.5 54t28 40.5t38 25t41.5 8.5q35 0 62.5 -25.5t27.5 -82.5v-266h270q56 0 82 -27.5t26 -62.5q0 -22 -8.5 -42.5t-25.5 -37.5t-40.5 -27.5t-54.5 -10.5h-249v-241q0 -35 -9.5 -62t-24 -45t-33.5 -27t-38 -9 t-37.5 8.5t-33 26t-23.5 44t-9 60.5v245h-241q-35 0 -61.5 9t-44 23.5t-26 32.5t-8.5 38z" />
<glyph unicode="," horiz-adv-x="657" d="M310 -118q0 18 6 40q4 14 9 36.5t12.5 48t15.5 54.5t15 57q19 65 39 138q7 23 21.5 40t34.5 28.5t43.5 17t48.5 5.5q30 0 60.5 -8.5t54.5 -24.5t39.5 -39t15.5 -54q0 -21 -7.5 -41.5t-20.5 -44.5q-21 -32 -45.5 -69.5t-48.5 -74.5t-47.5 -71t-40.5 -59q-26 -36 -57 -51.5 t-61 -15.5q-35 0 -61 23t-26 65z" />
<glyph unicode="-" horiz-adv-x="829" d="M68 671q0 14 3.5 29.5t14 29t31.5 22t56 8.5h484q14 0 32 -3t33.5 -12.5t26 -25t10.5 -41.5q0 -21 -4.5 -43.5t-19.5 -40t-42 -29.5t-72 -12h-448q-35 0 -55.5 12.5t-31.5 30t-14.5 38t-3.5 37.5z" />
<glyph unicode="." horiz-adv-x="930" d="M346 175q0 39 11 76t35 66.5t61.5 46.5t89.5 17q90 0 136.5 -45t46.5 -130q0 -4 -1 -21.5t-7 -40t-18.5 -48t-35 -47t-57.5 -35.5t-84 -14q-40 0 -72.5 10.5t-55.5 31.5t-36 54t-13 79z" />
<glyph unicode="/" horiz-adv-x="1396" d="M240 59q0 28 10 66t32 88q15 33 47 105.5t75.5 170t95.5 215.5t107.5 243t112.5 252.5t108.5 244.5t96.5 216.5t77 171.5q14 30 39.5 60.5t61 55.5t80 40.5t96.5 15.5q26 0 40 -10t20.5 -25.5t7.5 -33.5t1 -34q0 -9 -6 -28t-15 -40.5t-19 -43.5t-16 -37 q-58 -126 -130 -303.5t-163 -394.5t-201 -466.5t-243 -518.5q-21 -36 -44.5 -56.5t-48 -31t-48 -14t-46.5 -3.5q-22 0 -45 2.5t-41 11.5t-30 28t-12 53z" />
<glyph unicode="0" d="M117 445q0 79 14.5 161.5t42.5 159.5t69.5 146t95.5 120t120.5 81t144.5 30q89 0 154.5 -34t100.5 -92.5t55 -135.5t20 -164q0 -80 -15.5 -164t-39 -164t-67 -151t-99 -123.5t-122.5 -83.5t-144 -31q-83 0 -145 36t-103 97t-61.5 141.5t-20.5 170.5zM382 408 q0 -45 5 -83.5t15.5 -67t26 -44.5t35.5 -16q30 0 58 26t52.5 70.5t46 102t36.5 118.5t23.5 121.5t8.5 110.5q0 42 -5.5 79t-16 64t-27.5 42.5t-41 15.5q-32 0 -60.5 -26.5t-53 -69.5t-43.5 -99t-32.5 -116t-20.5 -119t-7 -109z" />
<glyph unicode="1" horiz-adv-x="697" d="M9 872q0 11 22.5 19t70.5 8q11 0 35 17.5t57 44.5t73 58.5t82 58.5t85 44.5t84 17.5q59 0 78.5 -8t19.5 -23q0 -16 -4.5 -40t-4.5 -56l-7 -39q-5 -39 -14.5 -101.5t-22 -142t-24.5 -161t-23 -158.5t-18 -135q-3 -12 -8 -38t-13.5 -57t-21 -63t-30 -58.5t-40.5 -43 t-52 -16.5q-36 0 -67.5 4.5t-54 13.5t-35.5 23.5t-13 35.5q0 8 1 17t9 22q17 62 34 129.5t32.5 135.5t29.5 134.5t26 126.5q28 139 51 276q-17 -17 -35.5 -35t-36.5 -32.5t-33 -23.5t-23 -9q-101 0 -155 17.5t-54 36.5z" />
<glyph unicode="2" d="M11 239q0 35 12 72.5t37 68t64.5 50t95.5 19.5q86 0 151 -24.5t120 -59.5q33 39 61.5 84t50 92.5t34 95.5t12.5 94q0 79 -15 129t-39.5 78.5t-53.5 38.5t-57 10q-35 0 -65.5 -12t-55 -33t-38.5 -50t-14 -65q0 -19 31 -39.5t99 -42.5q2 -6 2 -11q0 -13 -25 -27.5t-62 -27 t-81.5 -20.5t-83.5 -8q-8 9 -16.5 10t-14.5 1q-46 37 -66.5 79.5t-20.5 87.5q0 61 34 131.5t93 118t138.5 77t169.5 29.5q23 0 62.5 -5t85.5 -20t93 -41.5t85.5 -70t62.5 -116.5t24 -159q0 -47 -15.5 -111.5t-45 -136t-73.5 -146t-99 -140.5q37 -19 76.5 -30t86.5 -11 q12 0 26.5 16.5t27.5 37t24.5 37.5t16.5 17q15 0 24.5 -12t9.5 -42q0 -47 -18 -116q-5 -22 -15 -45.5t-27 -43.5t-43.5 -33t-63.5 -13q-31 0 -63 9t-64 25t-63.5 36t-63.5 42q-62 -47 -132.5 -77t-148.5 -35q-57 0 -105.5 20t-84.5 53t-56.5 76t-20.5 89zM193 257 q0 -10 6 -18.5t16 -16t23 -12t26 -4.5q45 0 109 46q-26 16 -49.5 25.5t-41.5 9.5q-49 0 -69 -8.5t-20 -21.5z" />
<glyph unicode="3" horiz-adv-x="930" d="M57 284q5 41 19.5 68.5t36.5 44.5t50 24t57 7q25 0 56 -6t57 -16t43 -21.5t16 -22.5q-1 -9 -20 -14.5t-42.5 -14.5t-43 -23.5t-21.5 -40.5q-5 -37 0.5 -63t17.5 -42t28.5 -23.5t36.5 -7.5q28 0 69.5 13.5t67 37t43.5 56.5t22 71q6 62 -4.5 129.5t-39 94t-74 40.5 t-107.5 20q-34 2 -48.5 14.5t-11.5 30.5q1 16 6 33.5t15 33.5t25 26t35 10q43 0 79 16t64 73t43.5 86.5t18.5 57.5q3 37 -17.5 63t-70.5 26q-39 0 -67.5 -18.5t-30.5 -43.5q-1 -13 7 -27t29 -26q10 -6 9 -14q0 -8 -16.5 -16t-37.5 -14t-40 -10t-25 -4q-13 0 -25 6t-21.5 20 t-13.5 38t-1 59q7 68 36.5 114.5t73.5 73.5t98 40t111 13q60 0 117.5 -14.5t100.5 -42t68 -68t18 -105.5q-2 -30 -13 -66.5t-34 -72t-65.5 -105t-104.5 -91.5q65 -17 108.5 -51t69 -80t33.5 -125.5t3 -135.5q-5 -57 -40 -113.5t-91.5 -101.5t-131 -73t-159.5 -28 q-122 0 -192 21.5t-112 61.5t-57.5 95.5t-9.5 122.5z" />
<glyph unicode="4" horiz-adv-x="1001" d="M93 256q0 28 17 66t46 80q22 59 41 110.5t34 99.5t28 96.5t31 119.5t31 134t28 142q6 17 26 29t48 20t61 12t66 4q27 0 51 -3t42 -7t29 -11.5t11 -14.5q-12 -83 -34.5 -165t-57.5 -181.5t-71 -185.5t-76 -175q41 -3 69 -4h51h14q21 70 43 136.5t40 125.5q6 28 24 48 t40.5 32.5t47 18t43.5 5.5q51 0 69 -16t18 -44q0 -17 -7 -46.5t-19 -66t-27 -80t-30 -88.5q54 9 97 17t73 8q14 0 20 -12t6 -31q0 -47 -8 -75t-19 -43.5t-21.5 -20.5t-16.5 -5q-41 0 -85.5 1.5t-93.5 4.5q-8 -35 -14.5 -68t-9.5 -62v-21q0 -19 16 -44t34 -49t34 -44.5 t16 -32.5q0 -6 -3 -8.5t-13 -2.5q-47 0 -95 -4t-92 -4q-35 0 -61 5t-44 19t-27.5 38.5t-9.5 63.5q0 43 11 99t27 119q-67 0 -123 -13.5t-106 -30.5t-94.5 -30.5t-87.5 -13.5q-20 0 -28.5 14t-8.5 35z" />
<glyph unicode="5" horiz-adv-x="897" d="M50 284q0 41 12.5 68.5t33 44.5t47.5 24t56 7q25 0 56 -6t58 -16t45.5 -21.5t18.5 -22.5q0 -9 -18.5 -14.5t-41 -14.5t-41 -23.5t-18.5 -40.5q0 -37 7.5 -63t21 -42t31.5 -23.5t37 -7.5q36 0 72.5 15t66.5 41.5t49 63t19 80.5q0 53 -15.5 89t-46 58.5t-77.5 34.5t-110 17 q-31 6 -85 8.5t-68.5 9t-24 20.5t-14 41.5t-7 110t-3.5 148.5q-2 33 -3.5 60.5t-1.5 52.5q0 83 12 124.5t27.5 58t31.5 16.5h92q31 0 63 -6t64.5 -13t66.5 -13t68 -6q11 0 21.5 0.5t20.5 2.5q49 11 69.5 18.5t28 12.5t9 7.5t13.5 2.5q40 0 58 -38.5t18 -100.5q0 1 0 -5 t-6 -16.5t-20.5 -24t-42.5 -29t-72.5 -30.5t-111.5 -29q-45 4 -76 10t-53.5 11t-40 8t-36.5 3q-7 0 -14.5 -0.5t-15.5 -1.5q8 -50 8 -55q7 -32 10 -57q4 -45 12 -143q65 7 121 7q104 0 176 -19t120 -50t75 -71t40.5 -81.5t17 -82t3.5 -72.5q0 -62 -32.5 -122.5t-90 -108.5 t-137.5 -77.5t-175 -29.5q-101 0 -172.5 21.5t-117.5 61.5t-67 95.5t-21 122.5z" />
<glyph unicode="6" horiz-adv-x="1002" d="M38 432q0 134 51 261.5t140 239t208.5 204t255.5 156.5q22 9 41 15t38 6q48 0 75 -24t27 -59q0 -25 -14.5 -50.5t-49.5 -49.5q-96 -57 -187.5 -139t-162 -179t-114 -205.5t-43.5 -217.5q0 -42 8.5 -80t27 -67t49 -46t75.5 -17q47 0 86.5 26.5t67 68t43 92.5t15.5 100 q0 70 -24 107t-60 37q-27 0 -45.5 -13.5t-31.5 -33.5t-22.5 -43.5t-19.5 -43.5t-20.5 -33.5t-25.5 -13.5q-6 0 -13 25.5t-7 62.5q0 60 24.5 107.5t63 80.5t88.5 50.5t102 17.5q49 0 95.5 -17t83.5 -53.5t59 -92.5t22 -134q0 -86 -33.5 -171.5t-96 -153.5t-152.5 -110 t-203 -42q-79 0 -154.5 23t-135 75t-95.5 134t-36 200z" />
<glyph unicode="7" horiz-adv-x="656" d="M79 855q0 11 1 23.5t3 25.5q16 94 46.5 152.5t67.5 90t77.5 43t75.5 11.5q40 0 79 -12.5t79.5 -27.5t82.5 -27.5t87 -13.5q22 -1 39.5 -1h33.5q43 0 68.5 1.5t39 3.5t19 4t9.5 2q37 0 54 -26.5t17 -72.5q0 -29 -7 -62q-1 -7 -17 -20.5t-37 -28.5t-42.5 -29.5t-33.5 -22.5 q-71 -97 -120 -192.5t-86 -197t-69.5 -212t-70.5 -238.5q-8 -30 -30 -48t-48.5 -26.5t-54.5 -11t-49 -2.5q-9 0 -30.5 3.5t-45 16t-41 34.5t-17.5 59v8t1 9q17 100 56.5 201t95 203.5t126 208t150.5 216.5q-52 13 -84.5 24.5t-56 20.5t-43.5 14t-45 5q-35 0 -57.5 -1 t-38.5 -7.5t-28.5 -19.5t-27.5 -36q-33 -52 -55.5 -76.5t-41.5 -24.5q-17 0 -24 15.5t-7 41.5z" />
<glyph unicode="8" horiz-adv-x="865" d="M35 175q0 82 25 145t66 113.5t94 89.5t108 73q-87 56 -127.5 135.5t-40.5 161.5q0 110 38.5 169.5t98.5 99t136.5 59t150.5 19.5q63 0 120 -13t100.5 -39t69.5 -65t26 -91q0 -93 -27 -178t-71.5 -137t-103.5 -90t-121 -70q47 -35 91.5 -73.5t79 -81.5t55 -93t20.5 -108 q0 -76 -31 -138t-85.5 -107t-129 -69.5t-162.5 -24.5q-63 0 -130 13t-122.5 47.5t-91.5 95.5t-36 157zM259 195q0 -34 10.5 -60t26.5 -44t35.5 -27t37.5 -9q33 0 64.5 12.5t57 38t40.5 62.5t15 88q0 55 -26 96t-64 79q-42 -20 -78.5 -42.5t-63 -50.5t-41 -63t-14.5 -80z M383 927q0 -28 6 -59.5t18 -63t29 -61t39 -53.5q37 23 71 58t61 74t43 93.5t16 85.5q0 27 -10.5 47t-28.5 33t-41 19.5t-47 6.5q-31 0 -60 -10.5t-50 -29.5t-33.5 -46.5t-12.5 -93.5z" />
<glyph unicode="9" horiz-adv-x="1001" d="M57 680q0 57 14 115t41 113t67 104t93 85t118 57t141 21q66 0 138 -25t131.5 -78.5t97.5 -136.5t38 -201q0 -173 -50 -313.5t-137 -251.5t-203 -193.5t-248 -140.5q-22 -10 -41 -16.5t-38 -6.5q-48 0 -75 21t-27 51q0 25 15 51.5t49 49.5q108 55 197.5 122.5t153 154.5 t98 195t34.5 243q0 53 -7 101.5t-24 85.5t-46 59.5t-72 22.5q-44 0 -81 -27.5t-63 -70.5t-41 -95.5t-15 -103.5q0 -39 10 -69.5t26 -51.5t36.5 -31.5t42.5 -10.5q18 0 37 10.5t34 32.5q21 23 29 23q9 0 10 -6t1 -17q0 -35 -15.5 -73t-43 -70.5t-66 -53.5t-83.5 -21 q-72 0 -124 31t-85.5 80.5t-50 111.5t-16.5 123z" />
<glyph unicode=":" horiz-adv-x="760" d="M346 175q0 39 11 76t35 66.5t61.5 46.5t89.5 17q90 0 136.5 -45t46.5 -130q0 -4 -1 -21.5t-7 -40t-18.5 -48t-35 -47t-57.5 -35.5t-84 -14q-40 0 -72.5 10.5t-55.5 31.5t-36 54t-13 79zM410 901q0 39 11.5 76t35.5 66t61.5 46.5t89.5 17.5q90 0 136.5 -45.5t46.5 -129.5 q0 -4 -1.5 -21.5t-7 -40t-18 -48t-35.5 -47t-57.5 -35.5t-83.5 -14q-40 0 -72.5 10t-56 31t-36.5 54t-13 80z" />
<glyph unicode=";" horiz-adv-x="829" d="M310 -118q0 18 6 40q4 14 9 36.5t12.5 48t15.5 54.5t15 57q19 65 39 138q7 23 21.5 40t34.5 28.5t43.5 17t48.5 5.5q30 0 60.5 -8.5t54.5 -24.5t39.5 -39t15.5 -54q0 -21 -7.5 -41.5t-20.5 -44.5q-21 -32 -45.5 -69.5t-48.5 -74.5t-47.5 -71t-40.5 -59q-26 -36 -57 -51.5 t-61 -15.5q-35 0 -61 23t-26 65zM410 901q0 39 11.5 76t35.5 66t61.5 46.5t89.5 17.5q90 0 136.5 -45.5t46.5 -129.5q0 -4 -1.5 -21.5t-7 -40t-18 -48t-35.5 -47t-57.5 -35.5t-83.5 -14q-40 0 -72.5 10t-56 31t-36.5 54t-13 80z" />
<glyph unicode="&#x3c;" horiz-adv-x="1278" d="M63 676q0 63 27.5 100t72.5 62.5t103 45.5t118 48q3 1 42 18.5t101 44t138 58t150 62t138.5 55t104.5 37.5q24 8 48 8q29 0 49 -12.5t33.5 -32t20.5 -41.5t11 -42t4.5 -33.5t0.5 -14.5q0 -42 -23 -63.5t-62 -33.5l-866 -280l708 -259q17 -7 41.5 -23t46 -39t37 -53.5 t15.5 -66.5q0 -37 -29.5 -61t-81.5 -24q-47 0 -103.5 17.5t-118.5 42t-127.5 52t-129.5 49.5q-140 48 -231 89t-144 84t-73.5 92t-20.5 114z" />
<glyph unicode="=" horiz-adv-x="1843" d="M377 529q0 41 21 66t57 38t83.5 17t99.5 4h120h162t187.5 1t197 1h191h166.5q27 0 44.5 -5.5t27 -15.5t13.5 -21.5t4 -24.5q0 -38 -12.5 -70t-43.5 -55.5t-82 -37t-128 -13.5h-963q-26 0 -52 6.5t-46.5 20.5t-33.5 36t-13 53z" />
<glyph unicode="&#x3e;" horiz-adv-x="1278" d="M149 996q0 1 0.5 14.5t4.5 33.5t11 42t20.5 41.5t33.5 32t49 12.5q24 0 47 -8q36 -11 92.5 -31.5t121.5 -46t130.5 -52.5t119 -49.5t88 -37t36.5 -15.5q60 -28 118 -48t103.5 -45.5t73 -62.5t27.5 -100q0 -68 -20 -120.5t-72 -97.5t-141 -89t-226 -94 q-64 -21 -129.5 -48.5t-127.5 -52.5t-118.5 -42.5t-103.5 -17.5q-52 0 -81.5 24t-29.5 62q0 35 10.5 65.5t25.5 53.5t31.5 39.5t29.5 22.5l740 281l-780 237q-39 11 -61.5 33t-22.5 64z" />
<glyph unicode="?" horiz-adv-x="1395" d="M426 175q0 39 11 76t35 66.5t61.5 46.5t89.5 17q90 0 136.5 -45t46.5 -130q0 -4 -1 -21.5t-7 -40t-18.5 -48t-35.5 -47t-57.5 -35.5t-83.5 -14q-40 0 -72.5 10.5t-56 31.5t-36 54t-12.5 79zM442 1480q0 23 16 49q32 49 76.5 86.5t95.5 63t106.5 38.5t109.5 13 q66 0 138 -21t132 -66t99 -114t39 -164q0 -114 -27 -195t-71 -141.5t-98 -106.5t-108 -90t-102.5 -91.5t-79.5 -109.5q-16 -52 -46 -79t-65 -27q-38 0 -66.5 16t-28.5 53q0 97 31.5 169t79 128.5t103.5 104t103.5 98.5t79 111t31.5 140q0 45 -16.5 76.5t-43 51.5t-59 29 t-64.5 9q-25 0 -52 -15t-51 -35.5t-41 -43t-21 -35.5q-19 -22 -42 -32.5t-48 -10.5q-21 0 -41 11t-35 30t-24.5 44t-9.5 56z" />
<glyph unicode="@" horiz-adv-x="2420" d="M121 232q0 123 26 251.5t75 254.5t120 246t160 225.5t195.5 195t226.5 153.5t252.5 99.5t275.5 35.5q104 0 208.5 -18t200 -56.5t177 -98.5t142 -143.5t95 -192t34.5 -244.5q0 -28 -1 -57.5t-5 -59.5q-10 -73 -40 -159t-77 -171t-109.5 -163.5t-138 -138.5t-163 -96.5 t-182.5 -36.5q-24 0 -48 8.5t-43.5 30t-31.5 59t-12 98.5q0 26 4 55t10 64q-41 -84 -92.5 -146.5t-109.5 -105.5t-120 -64.5t-124 -21.5q-71 0 -135.5 23.5t-113.5 70.5t-78 116.5t-29 162.5q0 94 29.5 200t84 209.5t132 198t173.5 167t208.5 115t237.5 42.5q25 0 40 -3.5 t22.5 -9.5t9.5 -12.5t2 -10.5q0 -5 -0.5 -7.5t-0.5 -4.5v-5q25 -10 52.5 -12.5t53.5 -4.5t49 -7.5t41 -22.5t28 -50.5t10 -90.5q0 -43 -9 -97.5t-23.5 -114t-33 -120.5t-35.5 -118.5t-31.5 -108.5t-22.5 -90q-15 -48 -15 -83q0 -25 8 -40t26 -15q40 0 80 24.5t77.5 66.5 t69.5 98.5t55.5 122t37 135.5t13.5 140q0 162 -46 274t-126 182t-186.5 100.5t-228.5 30.5q-153 0 -288 -56t-248.5 -150.5t-203 -217t-152 -256.5t-95.5 -269.5t-33 -254.5q0 -96 33.5 -173.5t109 -132.5t197.5 -84.5t299 -29.5q258 0 456.5 39.5t344.5 106.5q24 10 45 10 q18 0 31 -8.5t22 -22.5t12.5 -32t3.5 -36q0 -28 -8.5 -53.5t-23.5 -33.5q-104 -62 -228.5 -108.5t-255.5 -77t-260.5 -46t-241.5 -15.5q-211 0 -369.5 48.5t-264.5 134.5t-159.5 205t-53.5 259zM969 414q0 -81 34 -125t106 -44q49 0 92.5 20t81 53t68 74t54 83t38.5 81.5 t20 67.5l142 487q-25 7 -52.5 10.5t-52.5 3.5q-69 0 -135 -35.5t-125.5 -93t-109 -133t-85.5 -154.5t-56 -156t-20 -139z" />
<glyph unicode="A" horiz-adv-x="1745" d="M138 486q0 105 24.5 219.5t71 231t112 231t150 217.5t184.5 191t213.5 152.5t238.5 101t260 36.5q37 0 59 -6t33.5 -15t14.5 -18.5t3 -17.5q0 -5 -0.5 -9.5t-0.5 -6.5v-6q29 -17 59.5 -20.5t59.5 -6.5t55 -11.5t45.5 -34t31 -74t11.5 -131.5q0 -65 -12.5 -146t-33 -169.5 t-46 -179.5t-51 -176t-49 -160.5t-40.5 -132.5q-3 -47 -5 -88t-2 -85q0 -35 1.5 -57t6 -35t12 -18t19.5 -5q21 0 54 11.5t70.5 29t78 40t77.5 44.5t69.5 40.5t54.5 30.5l55 -211q-23 -24 -58 -54t-79 -61t-94.5 -60t-103.5 -52t-106.5 -36.5t-103.5 -13.5q-34 0 -69 12 t-64 44t-47 88t-18 146q0 38 5.5 81.5t13.5 94.5q-60 -122 -136.5 -234t-162 -175t-177.5 -95.5t-184 -32.5q-100 0 -190.5 35t-159.5 105t-109.5 173.5t-40.5 278.5zM449 492q0 -189 61 -272.5t190 -83.5q80 0 151.5 33.5t133.5 88t113 141.5t89.5 157t63 135.5t35.5 113.5 l225 833q-38 11 -78.5 16t-78.5 5q-87 0 -172.5 -33.5t-166 -91.5t-153.5 -136t-136 -168.5t-113.5 -187.5t-87.5 -193.5t-56.5 -188t-19.5 -168.5z" />
<glyph unicode="B" horiz-adv-x="1513" d="M-165 1291q0 105 30 189.5t84.5 150t129.5 111t164.5 75.5t188.5 44t204 14q122 0 245 -18t236.5 -50.5t212 -78t171.5 -101.5t114.5 -120.5t41.5 -134.5q0 -84 -36.5 -165t-113.5 -146t-197.5 -107t-288.5 -46q107 0 186.5 -34t133.5 -91.5t81 -138t27 -163.5 q0 -68 -18 -138.5t-55 -135t-92 -121.5t-129 -99t-167 -66.5t-204 -24.5q-70 0 -148 9.5t-157 25t-156 37t-145 46.5q-30 8 -53 23t-23 54q0 179 9 367t37 372t75.5 320t135.5 265q76 53 139 53q79 0 132 -89q-50 -67 -85 -149t-53.5 -145.5t-33 -157.5t-23.5 -184 q-5 -51 -9 -113t-7 -121.5t-4.5 -118t-1.5 -112.5v-24t2.5 -31.5t7 -30t12.5 -19.5q66 -22 141.5 -37t151.5 -15q92 0 178.5 22t153 70t107 123t40.5 192q0 63 -23.5 104.5t-62 69.5t-87.5 45t-100.5 30.5t-100.5 26t-87.5 32.5t-62 50t-23.5 77q0 23 2.5 40t13 27.5 t30.5 16t54 5.5q47 0 85 -4t83 -4q103 0 187 25.5t143 69t90.5 101t31.5 123.5q0 43 -24.5 79.5t-69.5 65t-105.5 50t-132 36t-150 21.5t-159.5 7q-131 0 -203 -8q-100 -11 -185.5 -34.5t-152 -60t-101.5 -83.5q-70 -127 -125 -190.5t-90 -63.5q-47 0 -47 109z" />
<glyph unicode="C" horiz-adv-x="1629" d="M104 521q0 99 21.5 213t62 232t99 236t132 226t162.5 200t189 161t211.5 107.5t231.5 38.5q78 0 157.5 -27.5t143.5 -84.5t104.5 -144.5t40.5 -206.5q0 -80 -25.5 -161.5t-69.5 -156.5t-104 -141t-129.5 -114t-144 -76t-148.5 -28q-98 0 -147 26.5t-49 75.5q0 9 -0.5 21 t-0.5 25q0 19 2.5 40t9 38.5t18.5 28.5t34 11q13 0 22.5 -4t21.5 -8.5t29 -8t43 -3.5q69 0 139.5 30t127.5 85t93 131.5t36 168.5q0 48 -13 92t-42 76.5t-75 52.5t-112 20q-78 0 -152 -34t-142 -92t-129 -138t-112.5 -171.5t-93.5 -190t-71 -197t-44.5 -190.5t-15.5 -170 q0 -111 27.5 -194t78 -138t124 -82t165.5 -27q114 0 213 28.5t188.5 75t173.5 105t167.5 117.5t170.5 112.5t184 89.5v-232q-53 -23 -102.5 -60t-100.5 -81.5t-105.5 -93.5t-117.5 -97t-137.5 -92t-164.5 -76.5t-198.5 -52t-240.5 -19.5q-146 0 -263 58.5t-200.5 158.5 t-128 232.5t-44.5 278.5z" />
<glyph unicode="D" horiz-adv-x="1513" d="M-133 1291q0 105 27.5 189.5t77 150t117 111t147.5 75.5t171 44t186 14q176 0 313 -29t240.5 -81t174.5 -124t115.5 -156.5t64.5 -179.5t20 -195q0 -136 -30.5 -294.5t-87.5 -289.5t-141 -245.5t-192 -199.5t-237.5 -134.5t-279.5 -49.5q-51 0 -104 8t-102.5 20.5t-94 29 t-77.5 33.5q-14 4 -22 10t-12.5 14.5t-5.5 20t-1 30.5q0 179 9 367t37 386t81 350t141 280q21 31 139 31q92 0 132 -67q-50 -66 -83.5 -148.5t-56 -161.5t-37.5 -173q-28 -176 -28 -184q0 -25 -25 -207q-11 -72 -17 -124.5t-8.5 -92.5t-2.5 -78q0 -40 2.5 -67t13 -43.5 t31.5 -23.5t56 -7q108 0 205.5 43t179.5 114.5t147.5 166.5t111 220t70.5 234.5t25 211.5q0 125 -41 224t-115 167.5t-177.5 104.5t-227.5 36q-91 0 -180 -10.5t-165.5 -33.5t-134 -58t-86.5 -84q-79 -122 -130 -188t-85 -66q-48 0 -48 109z" />
<glyph unicode="E" horiz-adv-x="1396" d="M69 393q0 109 39.5 209.5t122 178.5t211.5 125.5t310 51.5q-119 0 -207.5 34t-147 92t-87.5 135t-29 163q0 81 28 148t77 120.5t116 93.5t145.5 66.5t164 40t173.5 13.5q126 0 247 -27.5t215 -82.5t151.5 -137.5t57.5 -193.5q0 -38 -26.5 -76t-63.5 -67.5t-77.5 -47.5 t-67.5 -18q-22 0 -22 40q0 36 11 92t38 140q-29 24 -85 47.5t-127 43t-151 32t-157 12.5q-73 0 -138.5 -13t-116 -42.5t-80 -78t-29.5 -120.5q0 -58 21 -98t56 -68t80.5 -46t94 -32t95.5 -27t86.5 -29.5t66.5 -40.5t35 -59q3 -23 5 -46.5t2 -44.5q0 -61 -22.5 -88.5 t-88.5 -27.5q-28 0 -70 3.5t-79 3.5q-87 0 -170 -22t-149 -66t-106.5 -108t-40.5 -150q0 -81 23.5 -135t64 -87t95.5 -47t118 -14q77 0 161.5 15t168 41.5t163 63t147.5 78t120 87.5t80 92l74 -245q-87 -93 -197 -162.5t-229 -116.5t-242 -71t-239 -24q-127 0 -239.5 30 t-197 91t-133.5 154.5t-49 221.5z" />
<glyph unicode="F" horiz-adv-x="1513" d="M138 25q0 16 7 42.5t21.5 51.5t37 43t53.5 18q36 0 75.5 -11.5t81.5 -26.5t86 -26.5t90 -11.5q35 0 68.5 28.5t63.5 78.5t57 117.5t50.5 146t44 164t38.5 170.5h-133q-19 0 -46 4.5t-51.5 14.5t-42 27.5t-17.5 43.5q0 18 10 34t32 24q61 13 106 22.5t80.5 16.5t62.5 12.5 t49 8.5q26 116 41 201.5t26 155t20.5 131t22.5 130.5q-94 -27 -163 -64.5t-114 -81t-67 -90t-22 -90.5q0 -2 -1 -15t-11.5 -28t-35 -27t-70.5 -12q-63 0 -98 7t-52 19.5t-20.5 28t-3.5 31.5q0 161 81 276t227 188.5t351 108t452 34.5q164 0 344 -10.5t371 -37.5 q55 -15 76 -43.5t21 -59.5q0 -20 -6 -43t-18 -42.5t-31.5 -32t-46.5 -12.5q-5 0 -10 1l-10 2q-70 11 -152 20.5t-172 15.5t-185.5 8.5t-193.5 2.5q-29 0 -69.5 -3t-78.5 -8q-43 -4 -90 -10q0 -12 -2 -27.5t-6.5 -42.5t-10 -69t-14.5 -108.5t-19.5 -160.5t-23.5 -223h599 q26 0 40 -10.5t20.5 -26t7.5 -33.5t1 -34q0 -52 -22.5 -78t-46.5 -26q-7 0 -49.5 -1.5t-103 -3.5t-132.5 -5t-139.5 -5t-123.5 -3.5t-84 -1.5q-19 -131 -44 -252t-62 -226t-88 -191.5t-121 -148t-162 -95.5t-211 -34q-24 0 -59 3t-72.5 10.5t-75 20t-66.5 31t-47.5 43 t-18.5 55.5z" />
<glyph unicode="G" horiz-adv-x="1745" d="M104 521q0 191 45.5 365.5t126.5 324t191.5 271t238 207t267 132.5t280.5 47q86 0 160 -25.5t128.5 -81t85.5 -139.5t31 -201q0 -45 -11 -90t-36 -90q-34 -51 -66.5 -72t-61.5 -21q-23 0 -42.5 12t-33.5 31.5t-22 43.5t-8 50q0 21 6.5 40.5t13.5 38.5t13.5 40.5t6.5 43.5 q0 108 -47.5 162t-118.5 54q-88 0 -184.5 -36t-189.5 -104.5t-176.5 -168.5t-147.5 -228.5t-101 -283.5t-37 -333q0 -111 27.5 -194t98.5 -138t144.5 -82t165.5 -27q171 0 314.5 46t269.5 129q9 32 15.5 62t6.5 55q0 32 -8.5 51t-23.5 28t-34.5 11.5t-42.5 2.5 q-41 0 -72 10.5t-52.5 28t-32.5 40t-11 45.5q0 22 10.5 43.5t32 37.5t54.5 26.5t77 10.5q105 0 172.5 -22t106 -64t53 -103t14.5 -139q0 -125 -14.5 -260t-47 -264.5t-86 -245t-131 -203t-182 -139t-238.5 -51.5q-25 0 -59.5 3.5t-72 11t-75 20t-66.5 30.5t-47.5 42.5 t-18.5 55.5q0 16 7 42.5t21.5 51.5t37 43.5t53.5 18.5q35 0 68.5 -12t69.5 -26.5t74.5 -26.5t84.5 -12q51 0 100 52t92.5 135t80 186t61.5 207q-52 -48 -110 -90.5t-132 -74.5t-169 -50.5t-220 -18.5q-146 0 -283.5 58.5t-221 158.5t-128 232.5t-44.5 278.5z" />
<glyph unicode="H" horiz-adv-x="2327" d="M382 1582q0 56 26.5 107t71 93.5t102 77.5t118.5 59.5t121.5 37.5t111.5 13q76 0 145 -20.5t121.5 -66t83 -118t30.5 -175.5q0 -49 -11 -119t-30.5 -154t-46 -178.5t-56.5 -192.5q111 8 250 15.5t280 14.5q55 181 121.5 373.5t140.5 378.5q25 62 65.5 98.5t95.5 36.5 q23 0 44 -6.5t37 -20t25.5 -34.5t9.5 -49q0 -25 -3.5 -58t-17.5 -71q-25 -67 -53 -143t-56.5 -156.5t-57 -164.5t-54.5 -167q68 4 118.5 7.5t76.5 6.5q12 1 22.5 1.5t18.5 0.5q33 0 53 -6.5t31 -18.5t15.5 -28t4.5 -37q0 -23 -9.5 -38t-24.5 -24t-31 -13t-30 -5 q-30 -3 -43 -4.5t-18.5 -2t-7 -1t-8 -1.5t-23 -2t-49.5 -4q-39 -4 -76 -7.5t-74 -6.5q-19 -53 -63 -281q-22 -114 -22 -199q0 -73 30.5 -114.5t101.5 -41.5q27 0 65 15.5t86.5 49t108.5 86.5t133 126q4 -6 13 -30q9 -20 24.5 -61.5t43.5 -114.5q-81 -85 -162.5 -150 t-158.5 -108.5t-148 -66t-130 -22.5q-68 0 -126.5 25.5t-101 74t-67.5 119.5t-25 162q0 31 6.5 78.5t19 108t31.5 148.5t41 168q-145 -15 -278 -28t-265 -25q-30 -91 -59.5 -183t-57 -168.5t-51 -139.5t-39.5 -107q-74 -156 -106 -184q-51 -47 -90 -47q-26 0 -51 8.5 t-44.5 24.5t-31 39t-11.5 51q0 17 5 33q39 178 102 341q63 164 108 310q-59 0 -113.5 9.5t-101 32t-82.5 62.5t-60 102q-5 19 -7.5 34t-2.5 30q0 48 34 48q20 0 45 -22t64 -71q50 2 101 3t109 1h104q39 101 74 194q45 121 65 183q19 58 29.5 115t10.5 109q0 42 -7.5 77.5 t-24.5 60.5t-44 39t-67 14q-33 0 -75.5 -11t-94.5 -35t-113 -63.5t-132 -97.5q-25 -21 -46 -29.5t-38 -8.5q-9 0 -13.5 28.5t-4.5 70.5z" />
<glyph unicode="I" horiz-adv-x="930" d="M-108 -29q0 3 10.5 10t23 19.5t24.5 31t15 45.5q3 18 37.5 35t83 30.5t103 22t96.5 11.5q34 142 68 283t67 277t64.5 262.5t62 238t58.5 204.5t53 162q-40 -5 -70.5 -9t-54 -9.5t-44.5 -12t-44 -14.5t-49.5 -18.5t-61.5 -23.5l-5 -2q-3 0 -5.5 38.5t-2.5 103.5 q0 13 12 34t40 44.5t73.5 47.5t115.5 43.5t164.5 31t218.5 11.5q107 0 167 -10t90 -27t37 -39t7 -45t-5 -46t-28 -40.5t-68.5 -28.5t-123.5 -11q-36 0 -72 3q-30 -117 -52.5 -210t-41 -171.5t-33.5 -147.5t-31 -139t-33 -147t-39 -170t-52 -208t-69 -261q7 0 30 -2.5 t53.5 -8t64.5 -14t62 -21.5t46.5 -30t18.5 -40q0 -45 -78 -89h-73h-118h-147q-79 -1 -158 -1h-78h-75q-74 0 -130 1.5t-90 2.5t-34 3z" />
<glyph unicode="J" horiz-adv-x="2095" d="M622 -276q0 145 55.5 297t158.5 287.5t247.5 242t322.5 161.5q-92 74 -171.5 156t-139 168t-93.5 173t-34 173q0 111 24 210t67 184t101 153.5t125 116.5t140 74t146 26q98 0 188 -49.5t160 -157.5t112.5 -280t42.5 -415q0 -176 -12.5 -334t-36.5 -303q66 -41 133.5 -80 t136.5 -78l35 -20t41 -25.5t34 -27t14 -24.5t-9 -21t-21.5 -19.5t-25 -16t-18.5 -9.5q-19 -10 -48 -10q-60 2 -141.5 24.5t-178.5 63.5q-47 -200 -113.5 -365.5t-145.5 -297.5t-167 -229.5t-178 -162.5t-179 -97.5t-171 -32.5q-86 0 -158.5 34.5t-126.5 103t-85 170.5 t-31 237zM899 -346q0 -110 42.5 -166.5t112.5 -56.5q71 0 161.5 62.5t181 194t173 333t140.5 480.5l-40 25q-110 -22 -210 -75.5t-186 -126.5t-155 -161t-118.5 -178t-75.5 -175.5t-26 -155.5zM1244 1452q0 -87 38 -172.5t106 -169t162 -165.5t207 -162q19 150 29.5 316 t10.5 353q0 127 -16 215t-43.5 143t-65 79.5t-78.5 24.5q-40 0 -81 -19.5t-80 -53.5t-73.5 -79.5t-60 -96.5t-40.5 -106t-15 -107z" />
<glyph unicode="K" horiz-adv-x="2095" d="M134 39q0 29 14 53.5t28 48.5q4 8 14 20t23 23t28 19.5t30 8.5q7 0 10 -1q38 -18 76 -28t74 -10q97 0 176 59.5t141.5 162t110.5 241t83.5 298t61 330.5t43.5 340l12 89q-95 0 -171.5 -22.5t-137 -61.5t-104 -90t-72.5 -107.5t-42.5 -115t-13.5 -111.5q0 -6 -3.5 -19 t-17 -26.5t-40 -23.5t-73.5 -10q-60 0 -95 11t-53 25.5t-23.5 30.5t-5.5 27v10q0 2 1 3q18 146 76.5 251t144 177.5t188.5 117t207 68t200.5 31.5t168.5 8q43 0 69 -9.5t41.5 -24.5t20.5 -33.5t5 -35.5q0 -45 -0.5 -80t-3.5 -66q-11 -94 -19 -191t-14 -175q-8 -93 -13 -180 q112 0 206.5 6.5t171 27.5t135.5 60.5t98.5 105t59.5 160.5t20 228q0 54 0.5 86t12 49t40 24.5t85.5 13.5q42 0 68.5 -11.5t41 -27.5t19.5 -33t6 -28q2 -20 2 -50q0 -7 -0.5 -15.5t-0.5 -15.5q0 -31 2 -59q0 -122 -15.5 -223t-51.5 -182t-96 -141.5t-148.5 -101t-208 -60.5 t-274.5 -20q127 -306 129 -309q64 -121 147 -302q35 -74 106 -132q54 -45 121 -45q41 0 90.5 11t101 32t102 50.5t94.5 63.5l125 -211q0 1 -20.5 -12.5t-57.5 -34.5t-87 -45.5t-110.5 -46t-128 -35.5t-137.5 -14q-78 0 -138 24t-107 66.5t-105.5 142t-89.5 164.5t-65 140 t-65 143t-66.5 131t-80.5 115q-58 -220 -134.5 -377t-171 -257.5t-204 -147.5t-231.5 -47q-42 0 -99.5 5.5t-110 18.5t-89 33.5t-36.5 50.5z" />
<glyph unicode="L" d="M-195 281q0 20 4.5 40t22.5 32q14 10 47.5 32t78.5 52.5t97.5 66.5t103.5 73l8 73q24 227 77 416.5t125 342.5t156.5 267.5t172.5 191.5t174 115.5t160 38.5q54 0 99.5 -20.5t78 -61.5t51 -102.5t18.5 -144.5q0 -100 -30.5 -210t-86 -222.5t-133.5 -224.5t-172.5 -215.5 t-204 -196t-226.5 -164.5q0 -66 -5 -158q-1 -38 -1.5 -58t-0.5 -28v-12q0 -10 4 -18t15 -13t30.5 -7.5t52.5 -2.5q47 0 130 24l362 104q7 2 17 3q9 1 17 1q27 0 46 -10.5t32 -27.5t19.5 -40t6.5 -46q0 -22 -6.5 -42.5t-19.5 -38.5t-32 -31t-45 -17q-106 -42 -216 -75 q-48 -15 -100.5 -28.5t-107 -23.5t-110 -16.5t-107.5 -6.5q-80 0 -131 27.5t-81 74.5t-42 135.5t-12 157.5q-92 -68 -157 -108t-83 -40q-19 0 -35.5 12.5t-30.5 33t-22 46t-8 50.5zM445 732q55 57 115 124.5t119 141.5t113.5 151.5t98 154t73.5 149t38 137.5q3 21 4.5 41 t1.5 38q0 61 -17 89t-46 28q-35 0 -81 -36t-97 -103t-103 -162t-96 -211.5t-77 -254t-46 -287.5z" />
<glyph unicode="M" horiz-adv-x="2327" d="M-60 1382q0 7 4 11q39 128 88 213.5t103.5 137t111 73t108.5 21.5q67 0 111.5 -25.5t70.5 -71t36 -110.5t10 -144q0 -60 -9.5 -141t-24 -170.5t-32 -179t-33.5 -167.5q34 144 81 276.5t103 247.5t118.5 208.5t129 160t134.5 103.5t135 37q49 0 91.5 -21.5t72.5 -67 t47 -114.5t17 -164q0 -9 -2 -27.5t-4.5 -42t-6.5 -51t-7 -54.5q-8 -65 -18 -141l23 1q42 160 103.5 287.5t138 216.5t165 136.5t183.5 47.5q66 0 117.5 -38.5t86 -105t53 -155.5t18.5 -189q0 -93 -12.5 -190.5t-31 -193t-39.5 -187.5t-39.5 -174t-31 -151.5t-12.5 -120.5 q0 -64 23.5 -92.5t67.5 -28.5q25 0 52.5 13.5t55 35.5t54.5 50.5t52 59.5q57 69 113 158q0 -1 10 -22q8 -19 25 -63t48 -127q-54 -95 -111 -161t-116.5 -107.5t-120.5 -60t-121 -18.5q-59 0 -114.5 20.5t-98.5 61t-69 100.5t-26 138q0 8 0.5 18t1.5 19q4 73 18 154.5t32 168 t37.5 176t35.5 178.5t27 176t11 167q0 49 -3.5 88t-13 67t-28 43t-48.5 15q-57 0 -108 -40t-96 -110.5t-84.5 -166.5t-74.5 -207.5t-65.5 -234.5t-56.5 -247t-48.5 -245t-42.5 -229q-8 -30 -26 -51t-41 -34t-49 -19t-52 -6q-23 0 -45 8.5t-38.5 27.5t-27 48t-10.5 72 q0 28 13 96.5t33 164t43 209.5t43 232t33 233.5t13 213.5q0 67 -3 119.5t-15 89.5t-34 56.5t-59 19.5q-30 0 -69 -41t-84 -113.5t-92.5 -170.5t-94.5 -211t-90.5 -237t-80.5 -247.5t-65 -241.5t-42 -222q-4 -33 -20.5 -53.5t-39 -32t-48.5 -16.5t-49 -5q-29 0 -55 6 t-47 18.5t-32.5 30t-11.5 40.5q0 44 4 81.5t13 75.5q30 126 53 234.5t39 205.5t28 188.5t21 184t16.5 190.5t16.5 210v25t-3.5 28.5t-11.5 23.5t-24 10q-26 0 -63 -18t-78.5 -48t-82.5 -70.5t-75 -87.5q-7 -16 -21 -23t-31 -7q-5 0 -11 9t-11 22t-8 28t-3 26z" />
<glyph unicode="N" horiz-adv-x="1745" d="M-45 1377q0 6 4 11q36 122 81.5 206.5t97 137t104.5 76.5t104 24q76 0 128.5 -23.5t85 -65t46.5 -100t14 -129.5t-12 -153t-32.5 -170t-46.5 -180t-53 -183l19 -6q74 220 146.5 383.5t142 280t135 190.5t127.5 116t120 58t112 16q62 0 106.5 -30t73 -77.5t41.5 -105 t13 -112.5q0 -65 -10.5 -144t-25.5 -168t-33 -183.5t-33.5 -187.5t-25.5 -183.5t-10 -170.5q0 -26 1.5 -57.5t7 -64.5t15.5 -64.5t28 -56t44.5 -40t63.5 -15.5q51 0 109 26t113.5 65.5t106 85.5t88.5 85.5t60.5 66t22.5 27.5l64 -235q-34 -46 -78.5 -92t-95 -87t-107.5 -76 t-116 -61t-119 -40.5t-119 -14.5q-75 0 -132.5 26t-99 70t-69.5 103t-44.5 125t-24 134t-7.5 131q0 85 13.5 166t33 159t43.5 152.5t43.5 145.5t33 137.5t13.5 127.5q0 16 -2.5 43t-9.5 52t-22 43.5t-41 18.5q-43 0 -89 -40.5t-94 -112t-96.5 -169t-96.5 -210.5t-95 -237.5 t-91 -250.5t-85 -248t-76 -230q-31 -59 -70 -83t-88 -24q-28 0 -54.5 12t-47 35t-32.5 57t-12 77q0 46 4.5 82.5t12.5 74.5q27 123 50.5 228t43 200t35 184t28.5 179t22.5 185t17.5 203v25t-3 28.5t-11.5 23.5t-24.5 10q-21 0 -52 -20.5t-64 -57t-67 -85t-62 -104.5 q-7 -16 -21 -23t-31 -7q-14 0 -29 9t-28 22t-21.5 27.5t-8.5 26.5z" />
<glyph unicode="O" horiz-adv-x="1745" d="M104 684q0 103 15 212t45.5 218t76.5 213t107 197t137 171t167 135t196.5 88.5t226.5 31.5q162 0 290 -58t216 -163t135 -250t47 -320q0 -145 -29 -302t-84 -309t-137 -289t-189 -240.5t-238 -164.5t-285 -61q-161 0 -290 65.5t-219.5 184t-139 282t-48.5 359.5zM380 630 q0 -122 31 -227.5t88.5 -182t140.5 -120.5t187 -44q87 0 161.5 33.5t136.5 92t113.5 136.5t91 168t69.5 186t49.5 190t28.5 181t9 158q0 104 -22.5 195t-68.5 158.5t-115.5 106.5t-162.5 39q-100 0 -192.5 -48t-175 -129.5t-150.5 -189t-116.5 -226.5t-75.5 -242t-27 -235z " />
<glyph unicode="P" horiz-adv-x="1513" d="M97 720q0 171 31.5 330t89.5 297.5t141.5 253t187.5 196.5t226.5 127t261.5 45q181 0 317.5 -49t227.5 -131t137 -187.5t46 -219.5q0 -105 -41.5 -209t-124 -191.5t-208 -151t-295.5 -89.5q-3 -79 -5 -145q-1 -28 -2.5 -56t-2 -51.5t-1 -40.5t-0.5 -24 q-2 -75 -17.5 -156.5t-45.5 -159.5t-72.5 -147.5t-99 -122t-127 -83t-153.5 -30.5q-88 0 -158 45.5t-122.5 123.5t-88.5 179.5t-58.5 212t-33 223t-10.5 211.5zM387 748q0 -44 0.5 -119t6 -160.5t17 -173t35 -158t58.5 -115.5t88 -45q55 0 94 38.5t65 99.5t41 138t22.5 155 t9.5 148.5t2 120.5v51q-89 36 -140.5 63t-77.5 51.5t-33 52t-7 64.5q0 19 1 38t6 33.5t14 24t26 9.5q10 0 19.5 -4.5t23.5 -11.5q35 -20 64.5 -32.5t49.5 -19.5q24 -9 43 -13q0 14 0.5 55.5t6.5 95t20 112t41 107t70.5 80t107.5 31.5q19 0 39.5 -3.5t37.5 -14t28 -27.5 t11 -44q0 -8 -0.5 -10.5t-0.5 -6.5l-66 -278l-9 -85q105 16 182 51.5t127 84t74.5 107t24.5 120.5q0 60 -23.5 123t-80.5 115t-153 85.5t-242 33.5q-109 0 -197.5 -41.5t-158 -113t-120 -166.5t-83.5 -202.5t-48.5 -221.5t-15.5 -222z" />
<glyph unicode="Q" horiz-adv-x="1629" d="M104 678q0 147 27.5 302.5t82 303t136 278t189.5 229.5t242.5 156t294.5 57q161 0 288 -61.5t216 -173t136 -270t47 -350.5q0 -126 -22.5 -267t-67 -280.5t-114 -269t-163.5 -232.5t-213 -172t-265 -88q51 -51 90.5 -98.5t77 -84.5t78.5 -60t94 -23q52 0 101 27t89 60 q47 38 89 87q12 9 22.5 10t17.5 1q28 -5 47.5 -21.5t30.5 -39t16 -48t5 -46.5q0 -28 -6 -39.5t-11 -17.5l-19.5 -19.5t-51.5 -47t-79 -61t-101.5 -60.5t-118.5 -46t-131 -18q-82 0 -139.5 31t-98 80.5t-67 109.5t-48 117t-41 105t-45.5 73q-164 29 -280.5 109t-191 195.5 t-109 260.5t-34.5 302zM415 662q0 -127 28 -235.5t81 -188t129.5 -124.5t173.5 -45q82 0 153 34t130.5 92.5t107.5 138t85.5 169.5t66 186.5t46.5 191t27 182.5t9 160q0 123 -22 228t-66 182.5t-111 120.5t-158 43q-92 0 -178 -50.5t-162 -137t-138.5 -200t-107.5 -240 t-69.5 -257t-24.5 -250.5z" />
<glyph unicode="R" horiz-adv-x="1861" d="M69 583q0 168 41.5 328t120 302.5t189.5 262t250 206.5t302.5 135.5t346.5 48.5q81 0 161 -15t152 -44t134 -72.5t107 -99t71 -123.5t26 -148q0 -52 -17.5 -109t-53 -113t-91 -107.5t-133.5 -92.5t-177 -68.5t-224 -35.5q76 -28 127 -72.5t85 -99t54 -115t34 -118.5 t25 -111.5t27 -94t39.5 -65t63.5 -24.5q37 0 80.5 12.5t89.5 35t91 54t84 69.5l125 -212q0 1 -20.5 -13.5t-57.5 -36.5t-87 -48.5t-110.5 -49t-128 -38t-137.5 -15.5q-79 0 -134.5 39t-94.5 103t-65 145.5t-45.5 166.5t-36 166.5t-37 145.5t-48.5 103t-71 39h-68 q-21 -237 -53.5 -424.5t-86 -318t-134 -199.5t-196.5 -69q-87 0 -159 33t-129.5 90t-100.5 133.5t-72 164.5t-43.5 182t-14.5 187zM346 526q0 -88 15 -176t47.5 -158t83.5 -113.5t124 -43.5q36 0 64 28.5t50 76.5t38 111t27 131t17.5 137.5t10 130t4.5 107.5t1 71 q-84 40 -127.5 74.5t-43.5 80.5q0 11 1.5 26t7 28t15.5 22t27 9q8 0 30.5 -2.5t47.5 -6.5t46 -6.5t28 -2.5l1 22q1 18 3.5 48t9 64.5t19 70t33 64t49 46t69.5 17.5q54 0 72 -24t18 -62v-10q-1 -41 -12.5 -108.5t-20.5 -155.5q176 3 290.5 35t181 80.5t93.5 106t27 111.5 q0 53 -25 102t-75 86t-123.5 59t-170.5 22q-178 0 -318 -49.5t-245.5 -134t-180 -195.5t-121 -233t-67.5 -247.5t-21 -238.5z" />
<glyph unicode="S" horiz-adv-x="1861" d="M274 394q0 69 22.5 121.5t55 87.5t71.5 53t73 18t57.5 -19t23.5 -59q0 -18 -4.5 -38.5t-9.5 -45t-9 -53.5t-4 -64q0 -75 34.5 -130t91.5 -91t131.5 -53t154.5 -17q94 0 188 22.5t168.5 67t121 108.5t46.5 147q0 77 -41.5 137.5t-110 112t-156 96.5t-178.5 91.5t-178.5 98 t-156 113t-110 137.5t-41.5 173q0 91 44 179t132 157.5t219.5 113t308.5 43.5q113 0 220 -33.5t191.5 -95t136 -147t51.5 -189.5q0 -61 -21.5 -126t-67.5 -135q-45 -68 -98.5 -101t-96.5 -33q-33 0 -53.5 19t-20.5 57q0 28 13 66t44 88q29 48 43.5 89.5t14.5 76.5 q0 56 -30 97.5t-82.5 69.5t-125.5 42t-161 14q-97 0 -169 -22t-120 -57.5t-71 -78.5t-23 -85q0 -71 41.5 -127.5t110 -104.5t155.5 -91t178 -89t178 -98.5t155.5 -118t110.5 -149t42 -190.5q0 -97 -31.5 -178.5t-86 -146.5t-129 -114.5t-161 -82t-181.5 -49t-191 -16.5 q-135 0 -262.5 33t-227 99t-159.5 166t-60 234z" />
<glyph unicode="T" horiz-adv-x="1629" d="M215 1436q0 91 37 158.5t104.5 115t162 78.5t208 48t243 23.5t268.5 6.5q188 0 393.5 -15t429.5 -55q51 -11 72.5 -39t21.5 -62q0 -22 -10 -42.5t-26 -38t-37.5 -27.5t-45.5 -10q-83 0 -173.5 8.5t-188 19.5t-201.5 21.5t-214 16.5q-19 -121 -49.5 -260.5t-66.5 -284.5 t-75.5 -289.5t-76 -275.5t-68.5 -242.5t-53 -191.5q-8 -36 -26 -67t-40 -53.5t-46 -35t-44 -12.5q-62 0 -102 29t-40 94q0 21 7 45q14 99 37 194t54.5 198t71.5 218.5t88.5 254.5t105.5 306t122 373q-57 -5 -116 -10t-114.5 -14.5t-103.5 -23.5t-84 -35.5t-57 -52t-21 -71.5 q0 -2 -3 -23.5t-19 -47t-51 -46.5t-100 -21t-100.5 21.5t-51.5 47.5q-20 31 -22 69z" />
<glyph unicode="U" horiz-adv-x="1513" d="M104 635q0 129 16.5 260.5t42.5 256.5t59 236.5t65 201.5q21 62 42 97t41.5 51.5t41 20.5t42.5 4q41 0 72.5 -4t53.5 -15t32.5 -31t10.5 -53v-9q-2 -13 -3 -28t-7 -33q-13 -40 -35 -107.5t-48 -154.5t-53 -187.5t-48.5 -206t-35 -209.5t-13.5 -198q0 -97 16.5 -181 t54.5 -145.5t99.5 -96.5t152.5 -35q70 0 133.5 38.5t119 108t104.5 167t90 214t74 248.5t58 273t41.5 287t24.5 288q3 56 20.5 89t44 52t59 25.5t65.5 6.5q29 0 51.5 -6.5t38.5 -23t24 -44.5t8 -72q0 -299 -35.5 -556t-100.5 -467t-155.5 -372.5t-200.5 -272.5t-236 -167.5 t-261 -57.5q-162 0 -271.5 65.5t-174.5 176.5t-92.5 257.5t-27.5 308.5z" />
<glyph unicode="V" horiz-adv-x="1163" d="M33 1551q0 66 17 101.5t40.5 52.5t49.5 19.5t46 2.5q40 0 65 -11t40 -32t20 -51t5 -68l48 -1284l703 1350q8 26 26 49.5t44 41.5t57.5 28t64.5 10q39 0 61 -34t22 -89q0 -39 -20.5 -103.5t-54.5 -145.5t-79 -174t-94.5 -189t-99.5 -190.5t-95 -177.5q-13 -25 -19.5 -52 t-6.5 -54q0 -41 16 -80t50 -69t86.5 -48t124.5 -18q17 0 38.5 7.5t44 20t46 28.5t46.5 32q52 39 107 89l-25 -224q-89 -71 -178.5 -113.5t-166.5 -42.5q-74 0 -130.5 20t-96.5 56.5t-60.5 88.5t-20.5 116q0 32 6 70q-63 -149 -119 -249t-107.5 -160t-100.5 -85.5t-96 -25.5 q-65 0 -106 22t-65.5 60t-35.5 91t-16 114.5t-7 129.5t-9 137q0 3 -3 38.5t-7.5 95t-10.5 136.5t-12 162t-11.5 173t-10 168.5t-7.5 148t-3 111.5z" />
<glyph unicode="W" horiz-adv-x="2560" d="M415 643q0 114 13 234.5t37 241.5t60 239.5t81 231.5q27 62 54 97.5t55 52t56.5 20t57.5 3.5q24 0 43.5 -3.5t33 -13.5t20.5 -29t7 -52q0 -36 -18 -108t-45 -166t-58 -204t-58 -223.5t-45 -223t-18 -203.5q0 -77 10.5 -143.5t32 -115.5t54 -77t76.5 -28t85.5 26t80.5 71 t74.5 108t68.5 135.5t62.5 153t55.5 162.5q90 290 161 658q12 60 30 99.5t43 63.5t58 33.5t76 9.5q41 0 67.5 -7.5t42 -20.5t22 -31t6.5 -41q0 -8 -8.5 -63.5t-22 -142.5t-29 -197t-29 -226t-22.5 -229.5t-9 -208.5q0 -97 7 -175.5t24 -133.5t44 -84t67 -29q69 0 125.5 54 t103.5 144t84.5 209t66 248.5t49.5 261t35 249t22 211t12 145.5q3 56 19.5 89.5t42.5 51.5t59 24t68 6q27 0 49 -6t38 -20.5t25 -39t9 -61.5q0 -105 -13.5 -226.5t-33.5 -243.5t-43.5 -237.5t-43.5 -208.5t-33.5 -156.5t-13.5 -81.5q0 -42 12 -71.5t32 -49t47.5 -28 t58.5 -8.5q32 0 65 14.5t63 40.5t55.5 62t42.5 80l18 -223q-80 -92 -164.5 -145t-159.5 -53q-35 0 -66.5 11.5t-55.5 35t-40.5 61.5t-22.5 90q-54 -101 -116.5 -181.5t-132 -137t-145.5 -87.5t-157 -31q-103 0 -174.5 54t-116.5 147t-65.5 218.5t-20.5 266.5q0 52 5.5 97.5 t8.5 80.5q-39 -246 -98 -411.5t-138 -266t-181.5 -143.5t-226.5 -43q-71 0 -136 47t-114 140t-78.5 233t-29.5 327z" />
<glyph unicode="X" horiz-adv-x="1861" d="M284 -5q0 57 51 123q22 29 64.5 81.5t96 118t114.5 141t121.5 148.5t115 140t96.5 118.5t66.5 81t22.5 28.5l-9 34q-9 59 -21 125t-29 130.5t-41.5 123.5t-57.5 104t-75.5 71.5t-96.5 26.5q-6 0 -28.5 -19.5t-51 -53.5t-60 -79t-57.5 -94q-17 -33 -32 -33 q-11 0 -20.5 14.5t-17 37.5t-13.5 51t-10 54.5t-6 48.5t-2 34q0 80 21.5 139.5t60.5 98t91.5 58t113.5 19.5q54 0 109.5 -8.5t111.5 -33t109 -69.5t100.5 -118.5t88 -179.5t70.5 -252q53 80 112.5 158.5t120.5 149.5t121.5 132t115 106t102 70.5t82.5 25.5q34 0 62 -24.5 t48 -64t30.5 -90t13.5 -102.5q0 -104 -58.5 -156t-149.5 -52q-11 0 -15 12t-5 30.5t-0.5 40.5t-0.5 40.5t-5.5 31t-14.5 12.5q-21 0 -52 -22t-69 -61t-81.5 -92t-90 -114.5t-93.5 -128.5t-92 -134q34 -130 57 -240t41 -199t35.5 -156.5t41.5 -113.5t58 -69t85 -23 q66 0 147 64.5t177 212.5q17 16 37 16q18 0 36.5 -11.5t33 -30.5t24 -42.5t9.5 -45.5q0 -34 -24 -57q-71 -86 -144 -150.5t-142 -108.5t-133 -66t-116 -22q-60 0 -108.5 12.5t-88.5 44t-74 88.5t-66 145t-63.5 212t-66.5 292q-117 -175 -218 -328q-44 -64 -88 -130 t-83.5 -124.5t-71 -104.5t-49.5 -71q-26 -36 -74 -58t-101 -22q-75 0 -111.5 30t-36.5 78z" />
<glyph unicode="Y" horiz-adv-x="1629" d="M212 106q0 16 7.5 28.5t25.5 12.5q7 0 16 -3q34 -22 66.5 -31.5t60.5 -9.5q81 0 145.5 28.5t116.5 74t93 103t101 150.5t85.5 146.5t46.5 91.5q-37 95 -77 189t-83.5 179.5t-88 159t-91.5 128t-96 85.5t-97 31q-26 0 -41.5 -6.5t-24.5 -17.5t-12 -25t-3 -28q0 -16 2 -32 t2 -28q0 -19 -9 -23t-21 -4q-22 0 -39 25.5t-29 69t-18.5 99t-6.5 115.5q0 18 9.5 37.5t31 35.5t53 26.5t77.5 10.5q123 0 225 -62.5t189.5 -169.5t163 -251.5t146.5 -307.5q64 116 123 227.5t108.5 209t89 175.5t65.5 127q14 26 51 42t81 16q22 0 44 -6.5t38.5 -20.5 t27.5 -37t11 -56q0 -45 -28 -111q-25 -57 -70 -148t-106 -203t-135.5 -239t-156.5 -256l-65 -107q-3 -10 -215 -280q-71 -90 -130 -155t-108 -107.5t-94.5 -66.5t-88.5 -34t-91 -10q-43 0 -87.5 19.5t-81 45.5t-62 51.5t-29.5 38.5q-7 8 -12 24.5t-5 33.5z" />
<glyph unicode="Z" horiz-adv-x="1163" d="M-51 168q0 42 27.5 96t92.5 116l793 1037q-25 0 -51.5 -1t-54.5 -1q-35 0 -70 3q-57 7 -101.5 19t-79 24.5t-62 22t-51.5 9.5q-19 0 -37.5 -9t-37.5 -30t-39.5 -56t-44.5 -88q-30 -66 -61.5 -90t-53.5 -24q-21 0 -29.5 17.5t-8.5 47.5q0 12 1.5 26t3.5 30 q19 139 55 226.5t81 136.5t92.5 66.5t89.5 17.5q47 0 93.5 -14t94.5 -31.5t98.5 -32t104.5 -15.5q40 -1 75 -1h66q99 0 156.5 2t88.5 4t41.5 4.5t15.5 2.5q45 0 65 -30.5t20 -82.5q0 -16 -2 -34t-6 -37q-2 -5 -15.5 -20t-44.5 -32q-125 -122 -230.5 -244.5t-191.5 -237 t-153 -216t-115.5 -181t-79 -131t-43.5 -68.5l-6 -24q1 0 18 -9t44.5 -21.5t61.5 -27.5t69.5 -27.5t69 -21t59.5 -8.5q88 0 157 18.5t125.5 45t102.5 56t86 52.5q24 17 47 17q24 0 46.5 -13t39.5 -33.5t27.5 -46t10.5 -48.5q0 -37 -20 -60q-39 -32 -104 -75.5t-146 -82 t-173 -65.5t-186 -27q-15 0 -50.5 8.5t-95 29.5t-142.5 55t-193 85q-55 -49 -109.5 -70t-99.5 -21q-58 0 -94.5 30.5t-36.5 82.5z" />
<glyph unicode="[" horiz-adv-x="1001" d="M190 -62q0 32 6 63.5t11 58.5q20 99 39.5 214t38 238t37.5 246q-3 0 32 235q48 309 69 538q7 25 15 55t21.5 60t34 58.5t52 50.5t75.5 35.5t105 13.5h343q27 0 47 -11.5t33 -29t19.5 -37.5t6.5 -37q0 -24 -13.5 -47t-34.5 -41t-45.5 -28.5t-46.5 -10.5h-309 q0 -2 -6.5 -46.5t-17.5 -118.5t-25.5 -172.5t-31 -209.5t-34 -226.5t-34 -224.5t-31.5 -208t-26 -171.5t-17.5 -114t-6.5 -40.5h309q17 0 33.5 -7t28.5 -19.5t19.5 -28.5t7.5 -34q0 -17 -12.5 -42.5t-35 -50t-54 -42.5t-67.5 -18h-344q-58 0 -95.5 12.5t-58.5 33.5t-29 48 t-8 56z" />
<glyph unicode="\" horiz-adv-x="1347" d="M167 1882q0 33 10 57t26.5 41t39 25t45.5 8q46 0 90.5 -28t70.5 -84q33 -71 79.5 -174.5t101.5 -225t115 -255t119 -265t115 -255.5t102.5 -227t79.5 -178t49 -108q21 -50 31.5 -88t10.5 -66q0 -53 -33.5 -77t-81.5 -24q-27 0 -55.5 7.5t-55.5 21.5t-50 35t-40 47 q-132 269 -242.5 518.5t-201 466.5t-163.5 394.5t-129 303.5q-17 38 -25 70.5t-8 59.5z" />
<glyph unicode="]" horiz-adv-x="1001" d="M68 -90q0 23 12 44.5t31 39t41.5 27.5t44.5 10h252q0 2 6.5 46.5t17.5 118.5t25.5 172.5t31 208t34 226.5t34.5 213.5t31.5 229t25.5 205t17.5 114t6.5 40.5h-280q-21 0 -41 9t-36 24t-26.5 47t-10.5 54q0 16 9 39t26.5 43.5t43 35.5t56.5 15h374q58 0 95.5 -12.5 t58.5 -33.5t29 -48t8 -56q0 -32 -6 -64.5t-11 -58.5q-20 -98 -40 -248.5t-38 -272t-36 -245t-33 -236.5q-36 -264 -69 -535q-7 -25 -15 -55t-21.5 -60t-34 -58.5t-52 -50.5t-75.5 -35.5t-105 -13.5h-264q-29 0 -51 12.5t-36.5 31t-22 39.5t-7.5 38z" />
<glyph unicode="^" horiz-adv-x="1176" d="M100 671q0 14 3.5 31t12.5 33q1 3 12.5 25.5t30.5 58t42.5 80.5t48 91.5t48.5 92t42.5 81t30.5 58.5t13 26q49 107 110 155.5t118 48.5q31 0 61.5 -6t60.5 -24.5t59 -51.5t55 -86q61 -119 124 -257t122 -293q11 -33 11 -62t-10 -52t-24.5 -39t-31.5 -24t-31 -8 q-33 0 -60 16.5t-48 39t-35 47.5t-18 41l-223 521l-281 -563q-30 -55 -65.5 -77t-67.5 -22q-23 0 -43 9t-34.5 25.5t-23.5 38t-9 46.5z" />
<glyph unicode="_" horiz-adv-x="1347" d="M-6 117q0 41 21 65.5t57 37.5t83.5 17.5t99.5 4.5h119h162t188 0.5t197.5 0.5h190.5h167q27 0 44 -5.5t27 -15t13.5 -21.5t3.5 -25q0 -38 -12.5 -69.5t-43 -55.5t-82 -37.5t-127.5 -13.5h-964q-26 0 -52 6.5t-46.5 20.5t-33 36t-12.5 54z" />
<glyph unicode="`" horiz-adv-x="657" d="M69 1700q0 32 14 59t36 46.5t50.5 30.5t56.5 11q31 0 59.5 -16.5t42.5 -52.5q50 -113 92 -210q17 -41 35.5 -83t34 -78t27.5 -65t19 -43q5 -14 7.5 -27t2.5 -25q0 -32 -18 -52t-44 -20q-19 0 -37.5 9t-36.5 31q-14 16 -35.5 43t-48.5 60t-56.5 70t-58 74t-55 71t-47.5 62 q-40 56 -40 105z" />
<glyph unicode="a" d="M69 303q0 81 22.5 166.5t70.5 185t102.5 172t119 126.5t136.5 85.5t146 31.5q25 0 39 -9.5t23.5 -22t18 -24.5t21.5 -17q13 -6 26.5 -7.5t27.5 -1.5q12 0 24.5 0.5t23.5 0.5q17 0 31 -3t24.5 -14t16.5 -30.5t6 -52.5q0 -52 -10.5 -115t-23.5 -129.5t-31.5 -151 t-18.5 -143.5q0 -51 9 -79.5t40 -28.5q22 0 47 11.5t50.5 29.5t50.5 41.5t48 48.5q53 58 107 131l52 -239q-25 -35 -66.5 -81.5t-93.5 -88.5t-111.5 -71t-118.5 -29q-71 0 -118.5 45.5t-82.5 133.5q-26 -30 -63.5 -61.5t-82.5 -57t-93.5 -41.5t-97.5 -16q-52 0 -101 21 t-87 60.5t-60.5 96t-22.5 127.5zM346 350q0 -27 3.5 -52.5t13.5 -45.5t26 -32.5t41 -12.5q40 0 72.5 34.5t56 83.5t38 100.5t19.5 86.5l81 353q-45 0 -87 -22t-79 -60t-68.5 -86.5t-62 -120t-42.5 -125.5t-12 -101z" />
<glyph unicode="b" d="M79 143q3 87 13 197q7 96 22 235q22 204 42 299q9 107 25 236q13 100 42 248.5t72.5 274t97 224t116.5 158t137 59.5q82 0 131.5 -28.5t76.5 -76.5t36 -112.5t9 -138.5q0 -102 -38.5 -211t-100 -218t-138 -212.5t-151.5 -195.5l17 -12q61 76 111 122t100 46q63 0 113 -28 t84.5 -74.5t53 -107t18.5 -126.5q0 -55 -4.5 -104t-16 -96t-31.5 -93.5t-52 -96.5q39 23 79 44.5t80.5 47.5t81.5 57.5t84 75.5l83 -179q-59 -54 -118 -93.5t-121 -69.5t-129.5 -51.5t-143.5 -38.5q-18 -19 -50 -37t-63 -34q-36 -17 -77 -33h-27q-168 0 -182 4 q-130 36 -163 56q-62 40 -119 83zM311 221q36 -10 71 -18q17 -3 36 -3q14 0 30 2q34 5 66 5q37 0 67 22t54 58t41 82.5t28 96.5t16.5 99.5t5.5 90.5q0 27 -6 51t-21.5 42.5t-43.5 30t-70 11.5q-37 0 -75 -16t-70.5 -49t-57.5 -84q-38 -81 -38 -112q0 -8 2 -12q0 -2 -17 -129 q-6 -49 -10 -87q-5 -43 -8 -81zM346 967q29 56 65 116.5t73 125.5t72 134t63.5 140.5t47.5 145.5t24 151q0 4 -1.5 18t-7.5 29t-17 27t-29 12q-21 0 -44.5 -30.5t-46 -83t-44 -121t-42.5 -143.5t-38.5 -153t-32 -147.5t-25.5 -127.5t-17 -93z" />
<glyph unicode="c" horiz-adv-x="814" d="M69 446q0 63 21.5 150.5t47 152.5t63 124.5t86.5 104.5t109.5 71.5t132.5 26.5q62 0 114.5 -19t89.5 -52.5t58 -79.5t21 -99q0 -37 -9.5 -72.5t-37.5 -83.5t-54.5 -65t-60.5 -17q-52 0 -67 27q-18 30 -18 55q0 10 3 19q3 17 20 80q2 9 1 39q0 26 -5.5 43t-24.5 17 q-44 0 -75 -21t-53.5 -55t-44 -96t-30.5 -104t-11.5 -80.5t-2.5 -64.5q0 -39 7 -81t28.5 -77t54.5 -58.5t86 -23.5q52 0 115 32t126 80.5t120 107t98 110.5l75 -126q-81 -115 -175 -206q-40 -39 -87 -75.5t-98.5 -65t-107 -46.5t-112.5 -18q-99 0 -174.5 36.5t-126 98.5 t-76.5 143t-26 168z" />
<glyph unicode="d" horiz-adv-x="1163" d="M58 356q0 70 18 140.5t52 137t75.5 139t110 131.5t141 89.5t154.5 37.5q3 139 25 247t57.5 230t83.5 225.5t105 179t122 118.5t134 43q51 0 86.5 -26.5t57.5 -70.5t32 -101.5t10 -119.5q0 -38 -3 -78q-14 -152 -52 -287.5t-88.5 -264t-110.5 -254.5q-91 -194 -115 -263 q-6 -15 -11.5 -36.5t-10 -47t-8 -52t-3.5 -51.5q0 -31 4 -59t12.5 -50t23 -35t36.5 -13q20 0 44.5 8t51.5 22t54.5 32t53.5 36q59 43 124 98l32 -249q-76 -60 -151 -106q-31 -20 -65.5 -38.5t-68 -33.5t-65.5 -24t-59 -9q-15 0 -44.5 6.5t-65 26.5t-70.5 58t-61 100 q-40 -39 -84.5 -74t-92.5 -61t-97.5 -41.5t-98.5 -15.5q-71 0 -122 30t-85 80.5t-51 114t-17 131.5zM318 349q0 -22 4.5 -43.5t17.5 -39t37 -28t61 -10.5q20 0 39 9.5t36 25.5t33 36t29 41q30 50 55 113q-4 15 -6 48t-3 100.5t-2 110.5t-1.5 78.5t-1.5 58.5t-3 21 q-71 -34 -126.5 -90.5t-93 -149.5t-56.5 -160t-19 -121zM873 813q61 141 113 280q22 59 44 124.5t40.5 131.5t32 129.5t18.5 120.5q7 76 7 120q0 59 -10.5 81.5t-29.5 22.5q-35 0 -63 -43.5t-49.5 -112t-38 -150.5t-27 -158.5t-17 -138t-8.5 -87.5q-5 -53 -7.5 -102 t-3.5 -89.5t-1 -71v-46.5v-11z" />
<glyph unicode="e" horiz-adv-x="814" d="M97 450q0 61 23 144.5t47 148.5t61 124t86 103.5t110 71t135 26.5q61 0 113 -19.5t90 -54.5t59.5 -84.5t21.5 -111.5q0 -67 -43.5 -150t-102 -142.5t-139 -106t-174.5 -72.5q17 -29 32.5 -48.5t31.5 -30t34 -15t39 -4.5q64 0 136 26t140 65t128.5 84.5t102.5 86.5 l139 -144q-95 -99 -201 -174q-47 -33 -100.5 -64t-112.5 -55.5t-122 -39t-128 -14.5q-101 0 -177.5 36.5t-127 99t-76 144t-25.5 170.5zM360 508q39 0 84.5 20t85 51t77.5 84t38 88q0 48 -18 79.5t-44 31.5q-46 0 -79 -17.5t-55 -45t-35.5 -62.5t-31.5 -87t-20 -85.5 t-2 -56.5z" />
<glyph unicode="f" horiz-adv-x="814" d="M73 -41q0 5 3 65.5t10.5 161t20.5 232t34 277.5t49.5 300t68 300t90.5 275t114 225.5t140.5 152.5t170.5 56q37 0 77.5 -12.5t74 -42t55.5 -77.5t22 -118q0 -64 -20 -146.5t-56 -176.5t-85 -195.5t-107.5 -202.5t-122.5 -198.5t-131 -183.5l-3 -17q22 11 33 14t23 3 q14 0 22.5 -2.5t15.5 -6t14.5 -6t18.5 -2.5q107 0 189 25.5t138 56.5q66 36 115 83l-24 -262q-72 -39 -149.5 -60.5t-143.5 -32.5q-77 -12 -152 -15q39 -72 70 -148q27 -66 49 -147.5t22 -164.5q0 -10 -2.5 -41.5t-9 -76.5t-18.5 -100.5t-31 -111.5t-46 -108.5t-63 -93 t-83 -65t-106 -24.5q-60 0 -104 27t-75.5 72.5t-52.5 107t-33 129.5t-17 138.5t-5 136.5zM318 64q0 -159 5.5 -253t15 -142.5t20.5 -63t23 -14.5q37 0 59 33.5t33.5 84.5t15.5 112t4 117q0 38 -2.5 93t-6.5 120t-17.5 148.5t-38 126t-39.5 71.5t-28 29q-5 0 -10 -24.5 t-10 -62.5t-9.5 -110t-7.5 -118t-5 -85.5t-2 -61.5zM431 881q66 124 136 242t124 221t92.5 199t38.5 137q0 58 -16.5 84.5t-53.5 26.5q-56 0 -76 -26q-15 -22 -52 -109q-60 -144 -99 -274q-36 -118 -53.5 -210t-25.5 -161.5t-15 -129.5z" />
<glyph unicode="g" d="M81 -775q5 -61 29.5 -106.5t64 -70.5t86 -37.5t101.5 -12.5q68 0 125 21.5t98 56t74 85t53.5 100.5t36.5 110t23.5 107t11.5 98q2 21 7 61q13 139 23.5 190t39.5 70q47 32 150 99q6 3 16 9q54 43 131 120q77 79 107 140l-70 239q-161 -261 -288 -357q-36 -27 -67 -45 q16 169 23.5 275t32 192.5t27.5 144.5q4 82 4 134q0 68 -7 87q-8 20 -14 32q-19 29 -67 29l-48 -1q-14 0 -25 1t-19.5 4t-14 5t-12 8.5t-9 8.5t-9 11t-9.5 12q-26 32 -82 32q-124 0 -256 -118q-91 -81 -148 -190.5t-114 -278.5q-30 -87 -30 -164q0 -81 34 -151 q35 -76 106 -126.5t155 -50.5q114 0 235 115l-21 -129q-68 -60 -117 -111t-125 -137q-37 -41 -72 -92t-50.5 -79t-56.5 -100q-64 -113 -64 -215q0 -12 1 -25zM302 -692q44 123 117 242.5t149 173.5q-1 -16 -6.5 -70.5t-11.5 -92t-15 -69.5q-17 -58 -28.5 -93t-26.5 -72 t-27.5 -56t-30 -36t-37.5 -23.5t-46 -6.5q-48 0 -48 47q0 22 11 56zM335 460q10 64 112 243q95 169 220 169l-81 -360q-4 -94 -42 -187q-48 -118 -122 -118q-42 0 -68 46t-26 121q0 39 7 86z" />
<glyph unicode="h" horiz-adv-x="1163" d="M126 241q0 72 2 189.5t10.5 260t24.5 300t46 311.5t74.5 294t109 246t151 169t198.5 63q58 0 95.5 -17.5t59.5 -49t30.5 -75t8.5 -97.5q0 -80 -22.5 -177t-60 -202t-85 -212.5t-97 -208.5t-97.5 -190.5t-85 -157.5l22 -15q44 58 99 125t147.5 154.5t151.5 126t111 38.5 q12 0 28.5 -5t31 -18t24 -36t9.5 -60q0 -74 -20.5 -143.5t-77.5 -169t-77 -171.5t-20 -151q0 -43 13 -69t33 -26q26 0 55.5 10.5t58.5 28t57 39.5t53 46q59 55 117 125l18 -287q-19 -15 -49 -38t-66 -48t-78 -51t-85 -46t-85.5 -33t-81.5 -13q-59 0 -103 32t-72 81 t-42 107.5t-14 109.5q0 35 9 77.5t22.5 86t30.5 84.5t31.5 73.5t25.5 53t14 23.5l-23 3q-18 -12 -62 -60.5t-99 -122.5t-114 -166.5t-106 -190.5q-24 -48 -39 -84.5t-29.5 -59.5t-32 -35t-44.5 -12q-36 0 -56.5 20.5t-31 54.5t-14 77t-3.5 89zM363 767q29 68 63.5 148 t68 158t63.5 148t49 118q64 165 92.5 278.5t28.5 167.5q0 82 -22 82q-28 0 -83 -91.5t-129 -266.5q-19 -60 -34.5 -123.5t-28 -126.5t-22.5 -124t-18 -117q-18 -128 -28 -251z" />
<glyph unicode="i" horiz-adv-x="581" d="M104 217q0 68 15 159q30 175 39 196q15 48 60 211q37 136 46 177q5 27 30 49q22 19 51 31.5t59.5 18.5t55.5 6q45 0 61.5 -17t16.5 -45q0 -23 -11 -68t-27 -101.5t-41 -136t-41 -145t-27 -127.5t-11 -112q0 -48 11 -77t44 -29q39 0 86.5 27t96 65.5t95 79.5t82.5 70v-219 q-39 -36 -97 -76.5t-124.5 -74.5t-136.5 -56.5t-132 -22.5q-57 0 -95 15.5t-62 43.5t-34 68.5t-10 89.5zM312 1362q0 25 11 56t35 58.5t64.5 46.5t101.5 19q38 0 71.5 -8.5t58 -26.5t39 -47t14.5 -69q0 -37 -11.5 -71.5t-37.5 -61.5t-65.5 -43.5t-94.5 -16.5 q-95 0 -140.5 44.5t-45.5 119.5z" />
<glyph unicode="j" horiz-adv-x="697" d="M0 0q0 17 5 61t13 106t20 137.5t26 155t30 170t33.5 159.5t35 121.5t35.5 82.5q15 24 35.5 38t44.5 20.5t50.5 8.5t52.5 2q38 0 55 -23t17 -48q0 -13 -6 -41t-15 -60t-17 -62q-8 -27 -13 -43l-61 -197q61 9 117 13t123 14t151 34.5t201 76.5v-208q-71 -38 -143 -59.5 t-130 -30.5q-68 -12 -133 -13q27 -70 48 -146q18 -65 32.5 -144.5t14.5 -159.5q0 -14 -2.5 -65t-13 -120t-32.5 -146.5t-60.5 -141.5t-96 -106.5t-141.5 -42.5q-75 0 -128 44.5t-86 128.5t-47.5 206t-14.5 278zM240 1362q0 25 10.5 56t35 58.5t65 46.5t100.5 19 q38 0 71.5 -8.5t58.5 -26.5t39.5 -47t14.5 -69q0 -37 -12 -71.5t-38 -61.5t-65 -43.5t-94 -16.5q-96 0 -141 44.5t-45 119.5zM242 -207q0 -60 7.5 -99.5t19 -63.5t22.5 -34.5t20 -10.5q36 0 57 39t31 96.5t13 123.5t3 121q0 32 -5 71.5t-12 81.5t-16.5 85t-19.5 84 q-24 95 -53 196q-28 -168 -47.5 -338.5t-19.5 -351.5z" />
<glyph unicode="k" d="M127 248q0 62 4.5 163.5t13 223t23.5 254.5t35 258q8 44 19.5 107.5t29.5 135.5t42.5 150.5t56 152.5t71.5 141t90 117t109 79.5t130 29.5q55 0 90.5 -18t56.5 -50t29.5 -76t8.5 -96q0 -92 -23 -198t-58.5 -212t-78 -206.5t-81 -181.5t-68.5 -137t-39 -73l-129 -192 l26 -16q39 49 85.5 108.5t91 113.5t90 112.5t67.5 73.5q33 24 81.5 40.5t108.5 16.5q30 0 57.5 -14t48 -40t32.5 -62.5t12 -82.5q0 -44 -30 -105t-62 -106.5t-70 -90.5t-70.5 -91t-54 -91.5t-21.5 -90.5q0 -39 19 -56t59 -17q21 0 46.5 15t52.5 38.5t54.5 52.5t53 59.5 t48 58t41.5 46.5l65 -264q-34 -49 -85.5 -90.5t-111 -72t-124 -48t-123.5 -17.5q-78 0 -127 19t-77.5 50t-38.5 70.5t-10 81.5q0 25 6 61.5t22.5 81.5t47 99.5t78.5 117.5q20 19 36 35t28 28.5t18.5 23t6.5 22.5q0 23 -8 37t-23 14q-19 0 -48 -24q-30 -25 -64 -83l-317 -557 q-26 -42 -52 -59.5t-60 -17.5q-47 0 -74 20t-41 54t-18 79t-4 95zM375 740q24 71 52 154.5t55.5 165.5t51.5 154.5t41 123.5q7 24 21 59.5t30.5 76.5t32.5 85.5t29.5 85.5t22 76.5t8.5 60.5q0 35 -22 35q-35 0 -60 -22t-47 -62t-44 -97t-50 -127q-18 -62 -32.5 -128 t-26 -131t-21 -129t-15.5 -120q-17 -133 -26 -261z" />
<glyph unicode="l" horiz-adv-x="581" d="M104 629q0 96 14 208.5t41 232.5t64 241t84 232.5t102 208t115.5 168.5t126.5 113t134 41q47 0 77 -21.5t47.5 -56t24.5 -78t7 -88.5q0 -102 -23.5 -207.5t-63 -211.5t-91 -213t-108 -212.5t-113 -207.5t-106.5 -199q-5 -11 -11 -28t-11.5 -37t-11 -43t-8.5 -44v-16 q0 -28 6 -54.5t14.5 -47.5t18.5 -33t18 -12q21 0 47.5 8.5t56 23t61 33.5t60.5 38q68 46 143 105l88 -227q-96 -69 -190 -123q-41 -23 -84.5 -45t-88 -39t-86.5 -27.5t-79 -10.5q-58 0 -108.5 51.5t-87.5 137.5t-58 200t-21 240zM380 864q49 86 103.5 194t103 222.5 t84 228.5t45.5 213q0 31 -1.5 53t-10.5 22q-31 0 -67.5 -40.5t-72.5 -109.5t-69 -161t-59 -195.5t-41 -213t-15 -213.5z" />
<glyph unicode="m" horiz-adv-x="1396" d="M104 226q0 44 5 104.5t14 127.5t25.5 153t29 149.5t25.5 116.5t24 86q11 35 20.5 55.5t22 32t29.5 15t44 3.5q41 0 64.5 -2.5t35 -13t13.5 -30t2 -52.5q0 -18 -1.5 -42t-5.5 -51q-2 -27 -6 -55q-8 -54 -9 -56q-15 -74 -31 -164l12 -13q2 3 28.5 57t57.5 107t66.5 110.5 t67.5 102.5q32 44 67 73t83 29q46 0 78 -26.5t32 -74.5q0 -42 -5 -80q-6 -49 -13 -74q-7 -28 -17 -69q-8 -35 -27 -102q-3 -11 -7 -32q-1 -6 -1 -8l12 -13q2 3 30 56.5t61 106.5t70.5 111t69.5 103q32 43 63 72.5t77 29.5q50 0 85.5 -26.5t35.5 -74.5q0 -75 -8 -142 t-23 -148t-22.5 -147.5t-7.5 -140.5q0 -58 15 -95t37 -37q23 0 47.5 10t50.5 25t51 35t47 41q53 50 105 113l19 -255q-48 -38 -95 -78.5t-99.5 -73.5t-115 -54t-141.5 -21q-39 0 -65.5 25.5t-42.5 70.5t-23 107t-7 134q0 68 5 144t13 154h-16l-219 -558q-28 -46 -62.5 -61.5 t-80.5 -15.5q-34 0 -54.5 19t-32 48.5t-15 65t-3.5 69.5q0 14 2 40t6 59.5t9.5 70.5t11.5 74q12 86 29 186h-16q-13 -16 -30 -48.5t-47 -95t-77 -162.5t-122 -250q-21 -45 -50 -60.5t-63 -15.5q-44 0 -71 19t-42 51t-19.5 72.5t-4.5 83.5z" />
<glyph unicode="n" d="M138 226q0 71 9 164.5t21.5 205t29 201.5t31.5 153q12 50 46 83.5t92 33.5q59 0 81.5 -35.5t22.5 -95.5q0 -16 -3.5 -43.5t-8 -60.5t-10 -68t-10.5 -80t-8 -67t-3 -29h21q7 11 21 37.5t32.5 76.5t39.5 88t39 73.5t33.5 62.5t22.5 40q35 58 79 79.5t98 21.5t86 -45.5 t32 -125.5q0 -11 -5 -39.5t-12.5 -67t-16.5 -100.5t-16.5 -110.5t-12.5 -96t-5 -87.5q0 -67 16.5 -110t52.5 -43q13 0 37 10q35 13 45 22q47 36 50 36q4 0 72 43q87 55 207 135l-2 -242l-54 -41q-6 -5 -101 -56q-137 -73 -172 -89q-84 -37 -105 -43q-54 -17 -113 -17 t-99.5 86t-40.5 251q0 65 8.5 140t21.5 161h-17l-283 -561q-23 -46 -49 -61q-27 -16 -63 -16q-44 0 -71 19t-41.5 51t-19.5 72.5t-5 83.5z" />
<glyph unicode="o" horiz-adv-x="930" d="M69 472q0 143 35.5 246t102 179t162.5 120t216 44q103 0 192.5 -32t168 -85.5t146 -134.5t125.5 -155l-20 -152q-30 39 -79.5 84.5t-105 100.5t-109.5 93.5t-93 64.5l-9 -12q32 -63 47.5 -132.5t15.5 -157.5q0 -63 -14 -128t-40.5 -125.5t-65 -113.5t-87.5 -92 t-107.5 -61.5t-123.5 -22.5q-96 0 -163.5 41.5t-110.5 108.5t-63 151.5t-20 170.5zM311 428q0 -46 8.5 -86t27 -69.5t49 -47.5t72.5 -18q36 0 70.5 37.5t60.5 94t42 137t16 143.5q0 50 -7.5 92.5t-23 73.5t-39 49.5t-57.5 18.5q-44 0 -84 -37.5t-70 -96.5t-47.5 -130.5 t-17.5 -160.5z" />
<glyph unicode="p" horiz-adv-x="930" d="M-139 -463q0 44 14 99.5t37.5 116.5t53.5 124.5t61 122.5q73 138 167 285q12 84 24.5 172.5t31.5 172t58.5 174.5t84 146t107.5 87.5t151 32.5q66 0 123.5 -17.5t100.5 -57.5t68 -103.5t25 -154.5q0 -102 -22 -159q-32 -86 -83.5 -148.5t-122 -117t-168.5 -97.5l7 -23 q109 0 198.5 21.5t162.5 58.5t132 86t106 105l12 -247q-34 -42 -83.5 -81.5t-107.5 -69t-122.5 -47.5t-126.5 -18q-8 0 -19.5 2t-39.5 7.5t-80.5 14.5t-141.5 22v-19q0 -197 -33 -357t-88 -273.5t-126.5 -175t-148.5 -61.5q-61 0 -102 30t-65.5 81.5t-34.5 120t-10 145.5z M67 -476q0 -9 4 -28.5t12.5 -39t22.5 -34.5t34 -15q19 0 31 20t19.5 53.5t10.5 75.5t5 86.5t3 86.5t3 76q3 58 4.5 98.5l2.5 67.5q1 30 2 51q-20 -36 -39.5 -83t-37 -98t-31.5 -101.5t-24 -94.5t-16 -75.5t-6 -45.5zM443 301q65 33 112 73q45 40 80 85q14 2 67 99 q36 84 45 128q6 24 7.5 55.5t-6.5 59.5t-28 48t-56 20q-40 0 -70 -22t-52.5 -59.5t-37 -89.5t-34.5 -128t-23.5 -140.5t-3.5 -128.5z" />
<glyph unicode="q" horiz-adv-x="930" d="M35 553q0 110 47 212q48 101 116 166q144 139 329 139h3q155 0 237 -85q71 -75 72 -198q0 -43 -9.5 -74.5t-27.5 -87.5t-30.5 -99.5t-25.5 -87.5t-22.5 -79t-16 -57.5t-7 -23t3.5 -17.5t11 -45q20 -9 52 -9t82.5 27t103 65.5t102.5 79.5t85 70v-242q-177 -171 -383 -201 q38 -210 38 -332.5t-22 -205.5q-23 -84 -67 -142q-90 -121 -257 -121q-80 0 -140 64q-67 70 -67 178q0 109 43 269.5t73.5 261.5t56.5 195q-26 -5 -75 -5t-110 33q-62 30 -105 84q-90 111 -90 268zM276 556.5q0 -38.5 6.5 -79t26.5 -75.5q44 -83 140 -91q-1 7 11.5 35.5 t16.5 68t21 62.5q-1 2 -1 6q0 24 37 107q43 95 65 238q-34 35 -81 35t-92 -27t-75.5 -68.5t-52.5 -107t-22 -104zM433 -538q0 -21 11 -35.5t41 -14.5t58 26q29 24 47 67q32 79 32 187q0 212 -34 344q-6 -15 -19 -58l-30 -98q-106 -343 -106 -418z" />
<glyph unicode="r" horiz-adv-x="930" d="M138 226q0 47 5.5 110.5t14.5 133.5t21.5 143t32 155.5t33.5 137.5t28 91q9 24 17.5 38t20 22t28 10.5t41.5 2.5q28 0 44 -2.5t23.5 -13t9 -30t1.5 -52.5q0 -40 -6 -114q-4 -54 -4 -97q0 -16 1 -31h12q22 43 54.5 113.5t68 117t81 78t104.5 31.5q20 0 39.5 -7t34.5 -20 t23.5 -31.5t8.5 -42.5q0 -19 -5.5 -51.5t-17.5 -85.5t-17.5 -87t-5.5 -57q0 -39 8 -65t20 -41.5t28 -22t33 -6.5q49 0 100.5 21.5t94.5 48.5q51 31 100 71l-16 -252q-28 -19 -64 -41.5t-76.5 -42.5t-84 -33.5t-89.5 -13.5q-81 0 -130.5 33t-78.5 86.5t-43 120t-23 134.5h-17 l-194 -539q-15 -42 -28.5 -69.5t-27.5 -45t-30 -24.5t-36 -7q-44 0 -71 19t-41.5 51t-19.5 72.5t-5 83.5z" />
<glyph unicode="s" horiz-adv-x="930" d="M0 276q0 26 13 48.5t30 39.5t34.5 30t26.5 21q60 52 98 86.5t75.5 80t60 75t52.5 69.5t73.5 97.5t112.5 144.5q14 19 31 37.5t38 33t46.5 23.5t56.5 9q52 0 80 -11t41 -27.5t15.5 -34t2.5 -30.5q0 -26 -20.5 -57.5t-45.5 -60.5t-47 -53.5t-26 -36.5q0 -33 5 -60.5t13 -54 t17 -56.5q9 -31 17 -69q5 -22 5 -53q0 -24 -3 -53q-6 -68 -6 -138q39 26 83.5 47.5t93.5 44t100 50t103 66.5l1 -242q-67 -52 -155 -97.5t-184.5 -80t-195.5 -54.5t-187 -20q-64 0 -119 12t-96.5 37.5t-67.5 66.5t-32 99q-15 -3 -29.5 -4t-28.5 -1q-17 0 -32 1t-26 8 t-17.5 22.5t-6.5 44.5zM242 276q13 0 28.5 -16t36 -35.5t47.5 -35.5t62 -16q42 0 69.5 14t43.5 37t22.5 54t6.5 64q0 30 -4 60q-1 12 -1 27q0 21 3 48q2 18 2 33q0 22 -4 36q-8 24 -13 42z" />
<glyph unicode="t" horiz-adv-x="814" d="M-104 1120q0 22 21 33t54 17t73 6h26q26 0 50 -1q36 -1 64.5 -1t39.5 1q29 146 73.5 282.5t100.5 243t121.5 170.5t138.5 64q46 0 84.5 -25.5t65.5 -69t41.5 -101t14.5 -120.5q0 -53 -15 -112t-41 -120t-61 -123.5t-74 -124.5q10 -1 32.5 -1t52 -1.5t64 -3t67 -2.5 t60.5 -2t47 -3q21 -1 31 -21.5t10 -51.5q0 -38 -21.5 -61.5t-47.5 -23.5h-415q-31 -44 -63 -85.5t-59 -74.5q-4 -67 -8 -132q-1 -28 -2 -57.5l-2 -59t-1.5 -56.5t-0.5 -49q0 -59 10.5 -99t31.5 -65t50.5 -36.5t66.5 -11.5q22 0 56 11t74.5 29.5t85.5 44.5t88.5 57t83.5 65 t73 69v-276q-104 -61 -185 -106t-144 -75.5t-112.5 -45.5t-88.5 -15q-83 0 -145.5 49.5t-104.5 143t-63 226.5t-21 299q0 65 5.5 138.5t14.5 145.5q-32 5 -50 8.5t-38 7.5t-50.5 8t-89.5 11q-25 3 -39.5 12t-21 21.5t-7.5 26t-1 23.5zM430 1166q16 -2 32 -3.5t34 -3.5 q32 55 67 119t63 126.5t46.5 116.5t18.5 88q0 12 -1.5 26.5t-7 27.5t-17 21.5t-31.5 8.5q-28 0 -56.5 -49.5t-55 -126.5t-50 -170t-42.5 -181z" />
<glyph unicode="u" d="M98 238q1 141 21 217q32 110 60 328q2 16 8 43.5t16.5 60t25.5 66t35.5 60.5t48 44.5t62.5 18.5q57 -2 82 -14.5t25 -31.5q-10 -57 -21.5 -127t-23 -141.5t-28.5 -159t-25.5 -140.5t-13.5 -85t-5 -34q0 -19 4 -37t11.5 -32t19 -22.5t28.5 -8.5q23 0 48 12.5t47 36.5 q22 21 40 56q17 33 26 78l118 588q6 26 44 44t87 18q55 0 87.5 -19.5t32.5 -49.5t-6.5 -80t-17 -110t-28 -143.5t-28 -138.5t-17 -97t-6.5 -58q0 -30 1.5 -55.5t6.5 -44.5t16.5 -29t33.5 -10q23 0 57 12t72.5 32t78.5 45t76 53t66 56t48 51q0 -35 0.5 -64.5t0.5 -56 t0.5 -54.5t0.5 -62q-23 -24 -58.5 -51t-78 -54t-90.5 -52t-96.5 -44t-96 -30t-88.5 -11t-70.5 16t-50.5 45.5t-35.5 70t-25.5 89.5q-39 -51 -82 -93.5t-88 -74t-91 -49t-89 -17.5q-35 0 -66.5 12t-56 40t-38.5 74t-14 114z" />
<glyph unicode="v" horiz-adv-x="930" d="M121 773q0 144 10 206t45 68l130 20l9 2h11q37 0 57 -21.5t21 -49.5l-42 -716l15 1l295 720q3 15 14 29.5t28 24.5t38 16.5t45 6.5q63 0 100.5 -25.5t37.5 -65.5q0 -30 -8 -57q-9 -33 -22 -59q-28 -55 -35 -71q-48 -116 -55 -135q-6 -19 -13 -40q-5 -18 -9 -41t-4 -48 q0 -26 6.5 -51t23 -45t44.5 -31.5t72 -11.5q33 0 75.5 16.5t80.5 38.5q44 24 91 56v-254q-72 -45 -148 -72t-145 -27q-58 0 -104 17.5t-78 48t-50 68t-19 78.5q-31 -64 -71 -132.5t-82.5 -123.5t-85.5 -90t-80 -35q-63 0 -97.5 32t-51.5 80.5t-21.5 106t-8.5 108.5l-2 35 q-3 81 -6 141t-6 108.5t-4 89.5t-1 84z" />
<glyph unicode="w" horiz-adv-x="1396" d="M78 491v61.5t1 53t8.5 79t10.5 95.5q1 11 5 37t12 59.5t21.5 70t34.5 66t49.5 49t68.5 19.5l26 -2q48 0 73.5 -19t25.5 -50l-87 -628l14 1q48 111 88.5 223.5t70 185t57 126.5t60 89.5t73 53.5t96.5 18q48 0 73.5 -19t25.5 -50l-101 -628l16 1l269 620q13 31 56.5 54 t102.5 23q62 0 99.5 -25.5t37.5 -65.5q0 -30 -10 -64.5t-22 -64t-23 -51t-12 -23.5q-24 -43 -49 -101.5t-40 -86.5q-19 -32 -33 -60q15 -42 39 -76q21 -28 51 -51.5t72 -23.5q36 0 82.5 18.5t87.5 42.5q48 27 99 62v-254q-71 -45 -147.5 -72t-146.5 -27q-55 0 -104 13 t-86.5 41t-59.5 72.5t-23 108.5q-37 -86 -77 -158t-82 -124t-85 -81t-86 -29q-16 0 -27 23t-18.5 62.5t-12.5 92t-7.5 111t-4 120t-1.5 119.5l-31 6q-31 -118 -74 -216t-91.5 -168.5t-100 -110t-101.5 -39.5q-84 0 -123.5 124t-39.5 367z" />
<glyph unicode="x" horiz-adv-x="1163" d="M56 294l158 209q0 -31 -1 -60.5t-1 -55.5t2 -47t9 -36.5t19.5 -24t33.5 -8.5q12 0 27 14t33.5 40t42.5 61.5t54 77.5q-11 63 -66 175q-86 175 -128 302q-2 6 -2 10q0 20 16 41.5t41.5 40t55 31t56.5 12.5q22 0 37 -8q18 -9 24 -23q42 -122 45 -122q1 0 -8 32q-1 4 -1 5v1 q6 0 126 -256q8 27 186 181q67 58 148 112q27 18 51 25.5t43 7.5q25 0 44 -10t32 -27.5t19.5 -40t6.5 -46.5q0 -34 -14 -66t-43 -50q-93 -59 -160 -119q-106 -95 -208 -201q24 -48 48.5 -90t47 -73.5t43.5 -49t40 -17.5q23 0 57 12t72.5 32t78.5 45t76 53t66 56t48 51 q0 -35 0.5 -64.5t0.5 -56t0.5 -54.5t0.5 -62q-35 -36 -91.5 -79.5t-125 -82t-146 -65t-155.5 -26.5q-44 0 -111.5 60t-145.5 194q-47 -54 -89 -100t-78.5 -80.5t-69 -54t-59.5 -19.5q-54 0 -88.5 28t-55.5 72t-30.5 95t-11.5 99z" />
<glyph unicode="y" d="M69 303q0 94 9 173t32 193.5t49 181t59 134.5q25 49 71.5 74t90.5 25q38 0 65 -18.5t27 -58.5q0 -12 -2.5 -26t-9.5 -31q-19 -49 -38 -116.5t-39 -181.5t-28.5 -182t-8.5 -120q0 -27 3.5 -52.5t13.5 -45.5t26 -32.5t41 -12.5q40 0 72.5 34.5t56 83.5t38 100.5t19.5 86.5 l86 404q8 35 30 65q22 28 51 48t60.5 29.5t59.5 9.5q33 0 56 -14.5t23 -45.5q0 -10 -4 -23q-6 -28 -15.5 -76.5t-21 -110t-29 -173.5t-27.5 -180q-27 -160 -56 -343q33 18 70.5 45t84 72.5t104 114t128.5 170.5l52 -239q-20 -34 -50 -68q-32 -37 -69 -72q-54 -49 -78 -67 q-7 -5 -78 -62q-22 -19 -143 -100q-29 -19 -40 -70.5t-25 -190.5q-4 -40 -5 -62q-6 -50 -13.5 -97t-22.5 -107t-35.5 -110.5t-54 -100t-74 -84.5t-97.5 -56.5t-126 -21.5q-55 0 -102 12t-85.5 38t-63.5 71t-29 105q-1 13 -1 26q0 103 63 216q40 72 56.5 99.5t50.5 79.5 q35 50 73 91q75 86 124 137.5t118 111.5l23 130q-58 -51 -121 -83t-123 -32q-52 0 -101 21t-87 60.5t-60.5 96t-22.5 127.5zM298 -693q-12 -35 -12 -58q0 -46 48 -46q26 0 46.5 6.5t37.5 23t30 36.5t27.5 56.5t26 71.5t28.5 93q10 32 16 69.5t11 92t7 69.5 q-76 -54 -149.5 -172.5t-116.5 -241.5z" />
<glyph unicode="z" horiz-adv-x="697" d="M29 202q0 24 8.5 39.5t23 29.5t32.5 28.5t38 36.5l346 473q-19 9 -33 16.5t-25.5 13.5t-23.5 9t-26 3q-34 0 -57 -1t-38.5 -7.5t-28 -19.5t-27.5 -37q-33 -52 -56 -76t-41 -24q-17 0 -24 15.5t-7 41.5q0 11 1 23.5t3 25.5q16 94 46.5 152t67.5 90t77.5 43.5t75.5 11.5 q26 0 51.5 -12.5t51 -27.5t52 -27.5t54.5 -13.5q22 -1 39.5 -1h33.5q43 0 69 1.5t39.5 3.5t18.5 3.5t9 1.5q37 0 54 -26.5t17 -71.5q0 -37 -7 -63q-2 -8 -21.5 -21.5t-64.5 -25.5q-13 -24 -43 -67t-69.5 -96t-87.5 -120t-86.5 -116t-67 -85.5t-38.5 -49.5l-5 -21 q1 0 19 -7.5t43 -17t52.5 -17t48.5 -7.5q45 0 82.5 13.5t69 34t59 44t53 44t50.5 34t52 13.5q20 0 37 -10t28.5 -25t17 -34t5.5 -37q0 -31 -23.5 -65t-63.5 -66.5t-93 -62t-110.5 -51.5t-117.5 -35t-113 -13q-5 0 -23 4.5t-48.5 14.5t-70.5 26.5t-87 41.5q-41 -13 -71 -13 q-33 0 -56.5 11t-39.5 30.5t-23.5 44.5t-7.5 53z" />
<glyph unicode="{" horiz-adv-x="1280" d="M143 794q0 33 9.5 68t27 64t41.5 48t53 20q69 1 113 18.5t71 52t42 86t26 119.5v225q16 104 55 191.5t94.5 151t124.5 98t147 34.5q39 0 94 -2.5t114.5 -13.5t118.5 -31.5t106 -56.5q15 -12 22 -28.5t7 -34.5q0 -25 -10 -50.5t-28 -46t-41.5 -34t-51.5 -13.5 q-26 0 -62.5 5.5t-78 12t-84 11.5t-81.5 5q-35 0 -63 -13.5t-50.5 -50.5t-42 -102.5t-35.5 -170.5q-13 -81 -27.5 -161t-41 -150t-70.5 -123t-115 -79q43 -10 72.5 -35t46.5 -60t24 -79t7 -92q0 -62 -8 -130.5t-17 -134.5t-17.5 -123.5t-8.5 -95.5q0 -45 7 -74.5t20 -47 t32 -24.5t44 -7q39 0 73.5 12t67.5 27.5t65 27.5t65 12q18 0 36.5 -6.5t32.5 -20.5t23 -35.5t9 -50.5q0 -16 -4 -36q-5 -36 -37 -66t-78.5 -53t-101.5 -39.5t-107 -27t-94 -16t-63 -5.5q-66 0 -118 26t-87.5 74t-54.5 114.5t-19 147.5q0 91 18 188.5t34 192.5q2 16 3.5 33 t1.5 35q0 39 -8 76.5t-27.5 66.5t-52 47.5t-80.5 18.5q-45 0 -64 32.5t-19 78.5z" />
<glyph unicode="|" horiz-adv-x="1347" d="M510 139q0 17 1 35t4 39q6 33 16.5 105.5t25.5 170t33.5 215.5t38.5 243t40 252.5t39 244.5t35 216.5t29 171.5q3 30 17.5 60.5t38 55.5t57.5 40.5t78 15.5q30 0 49 -14.5t31 -34.5t17.5 -41.5t5.5 -35.5q0 -13 -1 -29.5t-3.5 -34t-4.5 -34t-4 -28.5q-10 -63 -24.5 -154 t-31 -200.5t-35 -231t-37 -244t-36 -240.5t-33 -222t-27 -187t-19.5 -135q-6 -47 -28.5 -79.5t-50 -53.5t-56.5 -30.5t-50 -9.5q-26 0 -47 14.5t-36.5 38t-23.5 55t-8 66.5z" />
<glyph unicode="}" horiz-adv-x="1347" d="M69 -176q0 42 15.5 73t38.5 51t47.5 29.5t43.5 9.5q33 0 61 -12.5t57 -27.5t59.5 -27.5t69.5 -12.5q35 0 63 14.5t51.5 53.5t42.5 106t36 172q12 72 27.5 147.5t42.5 140.5t70.5 111.5t112.5 61.5q-43 16 -71.5 43t-46 62.5t-24.5 79t-7 90.5q0 58 7.5 124t17.5 130.5 t17.5 120.5t7.5 94q0 44 -7 73.5t-20 46t-32.5 23t-44.5 6.5q-39 0 -83.5 -5.5t-87.5 -12t-81 -12t-64 -5.5q-23 0 -39.5 9t-28.5 23.5t-18 33t-6 38.5q0 29 14 57t42 47q58 35 123.5 56t128.5 31.5t119 13.5t95 3q65 0 117 -25.5t88 -72t55 -112t19 -146.5q0 -57 -9 -120 q-8 -46 -17.5 -98t-18.5 -103.5t-15 -100.5t-6 -88q0 -37 9 -65.5t29 -47.5t54 -29.5t84 -11.5q43 -1 62 -36.5t19 -84.5q0 -32 -8.5 -66t-25 -61.5t-41 -45t-54.5 -17.5q-51 0 -87.5 -17t-62 -43t-40 -58t-19.5 -61q-11 -68 -21 -129.5t-21 -130.5q-17 -105 -56 -193.5 t-94.5 -153t-124.5 -100.5t-147 -36q-21 0 -59.5 4.5t-85 14.5t-95 25.5t-88 37t-64.5 49t-25 62.5z" />
<glyph unicode="~" horiz-adv-x="933" d="M158 1567q0 27 15 57q13 25 33.5 63.5t51 74.5t71.5 62t94 26q34 0 59.5 -9.5t51 -29t54.5 -49.5t69 -69l110 -109q13 14 26 33q12 15 25.5 34.5t27.5 40.5q21 35 53 51.5t63 16.5q37 0 63.5 -20.5t26.5 -57.5q0 -27 -15 -58q-13 -25 -33.5 -63t-51.5 -74.5t-72 -62 t-94 -25.5q-33 0 -58.5 9.5t-51.5 29t-54.5 49t-68.5 68.5l-110 109q-13 -16 -26 -33q-12 -15 -26 -34t-27 -41q-22 -34 -53.5 -51t-63.5 -17q-36 0 -62.5 20.5t-26.5 58.5z" />
<glyph unicode="&#xa1;" horiz-adv-x="1278" d="M266 100q0 22 2.5 47.5t9.5 57.5q25 127 69 253.5t104.5 272.5t137.5 320.5t172 397.5q3 12 12 22.5t22 17.5t28 10.5t29 3.5q21 0 35.5 -8.5t14.5 -28.5q0 -6 -2 -17q-11 -111 -32.5 -229t-50 -236.5t-60 -234t-63 -221.5t-60.5 -198.5t-50 -167.5q-15 -52 -41 -84 t-58 -49.5t-68.5 -24t-69.5 -6.5q-18 0 -33 4t-25.5 15.5t-16.5 31.5t-6 51zM711 1796q0 4 1 7q2 4 3.5 20t7.5 39t17 47.5t32 45.5t53.5 35t80.5 14q40 0 72.5 -10t55.5 -31.5t36 -55t13 -80.5q0 -39 -11 -76t-35 -66t-62 -46.5t-89 -17.5q-85 0 -130 45.5t-45 129.5z" />
<glyph unicode="&#xa2;" horiz-adv-x="967" d="M69 446q0 58 14 122t41.5 126t68.5 120t94.5 103t119 76t143.5 39l6 73q1 20 8 42t19 39.5t29.5 28.5t39.5 11q11 0 19 -9.5t14 -22t9 -27.5t3 -25q0 -18 -2 -46.5t-4 -47.5l-2 -18q61 -8 110 -30.5t84 -54t54.5 -72t19.5 -86.5q0 -36 -8 -72t-24.5 -64.5t-39 -45.5 t-51.5 -17q-38 0 -54 15.5t-22 39t-6.5 52.5t-6 55.5t-20.5 47.5t-51 28q-9 -127 -17.5 -280t-23.5 -328q57 17 115.5 50t99.5 64q14 7 26 7q15 0 29.5 -9t26 -23.5t18.5 -33.5t7 -38q0 -18 -7.5 -33.5t-25.5 -27.5q-41 -36 -90 -68q-43 -28 -99 -56.5t-120 -44.5l-17 -145 q-5 -25 -12.5 -39.5t-16.5 -23t-18.5 -10.5t-19.5 -2q-6 0 -11.5 0.5t-10.5 0.5q-11 0 -20.5 10t-16 26t-10 37t-3.5 45q0 20 2 39.5t4 56.5q-97 1 -171 38.5t-123 99t-74.5 141.5t-25.5 167zM346 447q0 -34 5.5 -72.5t20.5 -72t40.5 -58.5t67.5 -33q5 65 11 140t12.5 152.5 t13.5 155.5t13 151q-61 -25 -98 -72.5t-56 -101.5t-24.5 -105t-5.5 -84z" />
<glyph unicode="&#xa3;" horiz-adv-x="1625" d="M567 949q0 23 6 44.5t21 39t42.5 28t71.5 10.5h121q0 147 26 262t71 201.5t105 147t129 98.5t143.5 54.5t146.5 16.5q45 0 92 -6t91 -20.5t83 -39.5t68.5 -62.5t47 -90t17.5 -122.5q0 -39 -9.5 -66t-26 -44t-37 -25t-42.5 -8q-21 0 -41 7t-35.5 20t-25.5 31t-10 39 q0 44 -13 68.5t-35.5 36.5t-54 15.5t-67.5 3.5q-37 0 -77 -7t-78.5 -27t-73 -56t-60.5 -93t-41.5 -139t-15.5 -195h259q26 0 55.5 -5t55.5 -20t43 -40.5t17 -68.5q0 -20 -7 -39.5t-26 -34.5t-52.5 -24.5t-86.5 -9.5h-271q-7 -58 -15.5 -124t-17.5 -131.5t-18.5 -126 t-16.5 -107.5t-11 -76.5t-3 -31.5q98 0 170.5 10t133 21t115 21t118.5 10q27 0 56.5 -7t54.5 -21t41 -34.5t16 -47.5q0 -23 -7.5 -48t-25 -45.5t-43.5 -35.5t-64 -18q-47 -5 -123 -16t-166.5 -22.5t-189 -20.5t-188.5 -9q-67 0 -110 14.5t-68.5 38.5t-35.5 56t-10 68 q0 43 11 87.5t23 81.5q5 41 18 106t27 137.5t26 144t18 126.5h-125q-38 0 -61 15.5t-35 35.5t-16 40t-4 29z" />
<glyph unicode="&#xa4;" horiz-adv-x="1589" d="M69 512q0 27 20 53t64 57l165 113q-50 106 -50 238q0 131 40 255t121 222l-103 93q-32 29 -48 52.5t-16 47.5q0 17 10.5 36.5t26 35.5t35 27t38.5 11q42 0 96 -48l129 -114q63 34 137.5 53t161.5 19q85 0 155 -21.5t125 -62.5q38 26 73.5 51t67 43.5t57.5 30t45 11.5 q17 0 33.5 -9t29 -23t20 -32.5t7.5 -35.5q0 -27 -20 -53t-64 -56l-125 -86q40 -93 40 -206q0 -71 -12.5 -143.5t-37 -141.5t-61.5 -132.5t-84 -116.5l107 -96q61 -56 62 -97q0 -18 -10 -38t-25.5 -36.5t-34.5 -27t-38 -10.5q-21 0 -48 15t-58 39.5t-64 55t-66 60.5 q-55 -28 -118 -42.5t-133 -14.5q-83 0 -152 23.5t-124 66.5q-39 -28 -80.5 -58t-80 -54t-71 -39.5t-53.5 -15.5q-17 0 -33 9.5t-28.5 23.5t-20 32t-7.5 36zM510 973q0 -65 16.5 -116t48.5 -87t77 -54.5t100 -18.5q61 0 110.5 23.5t87.5 64t66 93.5t46 111t26.5 116t8.5 110 q0 50 -14 94t-40.5 76.5t-65 51.5t-87.5 19q-91 0 -161.5 -37t-119 -101t-74 -152.5t-25.5 -192.5z" />
<glyph unicode="&#xa5;" horiz-adv-x="1936" d="M84 1512q65 77 132 135.5t131 98t122.5 60t106.5 20.5q90 0 158 -70.5t119.5 -192t90.5 -282.5t71 -342q86 124 164.5 243t146.5 223.5t122 188.5t89 137q10 13 25 24t34 18.5t40.5 12t42.5 4.5q23 0 43.5 -5t36 -16.5t25 -29t9.5 -43.5t-11.5 -60t-37.5 -78 q-29 -48 -81 -120t-119 -161.5t-145 -194t-159 -217.5h127q22 0 49 -2.5t50 -10t39 -21t16 -35.5q0 -17 -7 -35.5t-29 -33.5t-63 -25t-109 -10h-188l-37 -103h250q21 0 46.5 -3t48.5 -10.5t38 -21t15 -35.5q0 -17 -6.5 -35.5t-27.5 -33.5t-60.5 -24.5t-105.5 -9.5h-265 q-31 -95 -62.5 -163t-64 -114t-67 -73.5t-71.5 -41.5t-75 -18.5t-79 -4.5q-33 0 -61 8.5t-49 24t-33 37t-12 46.5q0 21 6.5 41.5t17 36.5t24 25.5t28.5 9.5q22 0 45 -4.5t44 -14.5q14 -9 36 -9q15 0 38.5 58.5t51.5 155.5h-102q-50 0 -80 10t-46 24.5t-21 32t-5 30.5 q0 12 5 25t20.5 24t45.5 19t81 8h147l26 103h-167q-52 0 -83.5 10.5t-47.5 25t-21.5 32t-5.5 29.5t5 25t21.5 24.5t48 19t83.5 7.5h160q-17 92 -36 181.5t-39.5 170t-43.5 149t-49 118.5t-54.5 78t-61.5 28q-37 0 -116.5 -50.5t-182.5 -158.5q-5 4 -21 19q-14 13 -41 38.5 t-73 73.5z" />
<glyph unicode="&#xa6;" horiz-adv-x="1107" d="M333 1q0 16 1 34.5t4 39.5q7 45 12 79t11 67t12.5 69.5t14.5 86.5t19 117.5t25 162.5q5 37 19 66t33.5 47.5t43.5 28.5t48 10t47.5 -11t42 -33t29.5 -55.5t11 -77.5q0 -13 -1 -26.5t-3 -28.5q-18 -126 -29 -212t-19.5 -155.5t-18.5 -133.5t-24 -145q-5 -35 -17 -56 t-28 -32t-34.5 -14.5t-35.5 -3.5q-13 0 -25 1t-23 1q-26 0 -47 14t-36.5 38t-23.5 55t-8 67zM519 1185v14t3 16q5 45 12.5 101.5t16 117t18 123t18.5 119.5t17.5 106.5t16.5 83.5q17 69 52 102.5t73 33.5q24 0 47 -13t40.5 -38t28.5 -63t11 -87v-23.5t-3 -25.5 q-4 -19 -9.5 -56.5t-12.5 -87.5t-14 -107.5t-14.5 -115.5t-14 -112.5t-11.5 -97.5q-6 -42 -18 -71.5t-30 -48.5t-39 -28t-43 -9q-27 0 -53 12.5t-46.5 34t-33 52.5t-12.5 68z" />
<glyph unicode="&#xa7;" horiz-adv-x="1555" d="M242 241q0 48 15.5 86t39.5 63t51.5 38t51.5 13q38 0 63.5 -13.5t25.5 -41.5q0 -26 -9.5 -60t-9.5 -84q0 -45 22.5 -78t60.5 -55t87 -32t102 -10q39 0 78.5 10t71 30t51.5 50.5t20 69.5q0 49 -25.5 88t-68.5 72t-97.5 62t-111 59t-110.5 62.5t-97 72.5t-68.5 89 t-25.5 113q0 68 39 132t121 115q-41 42 -66 91t-25 110q0 58 31 114.5t94 101.5t157 73t219 28q75 0 151.5 -26.5t138 -75t99.5 -116t38 -149.5q0 -44 -10.5 -75t-28 -51t-39 -29t-42.5 -9q-37 0 -65 23t-28 64q0 18 5 36.5t5 37.5q0 41 -21 74t-56.5 55.5t-82 35 t-96.5 12.5q-54 0 -91.5 -14t-61.5 -35t-34.5 -45t-10.5 -43q0 -32 27 -59.5t71 -55t100.5 -56t115 -61t115 -69.5t100.5 -82.5t71 -100t27 -121.5q0 -84 -39 -150.5t-107 -118.5q26 -40 41 -87t15 -103q0 -84 -44 -148t-114.5 -107t-160.5 -65t-182 -22q-93 0 -182.5 22.5 t-158 68.5t-110.5 114.5t-42 161.5zM599 850q0 -27 19 -51t51.5 -46t75.5 -44t91.5 -46t98.5 -50.5t96 -57.5q26 25 40.5 55t14.5 65q0 45 -38.5 83t-99 73.5t-134.5 72t-145 77.5q-35 -30 -52.5 -63t-17.5 -68z" />
<glyph unicode="&#xa8;" horiz-adv-x="1107" d="M138 1382q0 36 10 70t30.5 60t53 42t77.5 16q75 0 115.5 -41t40.5 -119q0 -4 -1 -19.5t-6 -36.5t-16 -44t-30.5 -42.5t-49 -32t-71.5 -12.5q-70 0 -111.5 37t-41.5 122zM643 1382q0 36 9.5 70t30.5 60t53 42t77 16q77 0 117 -41t40 -119q0 -4 -1 -19.5t-6 -36.5t-16 -44 t-30.5 -42.5t-49 -32t-72.5 -12.5q-67 0 -109.5 37t-42.5 122z" />
<glyph unicode="&#xa9;" horiz-adv-x="1935" d="M116 710q0 101 27.5 203t81.5 196t134.5 175.5t186 141.5t236.5 94.5t286 34.5q123 0 222 -25.5t175.5 -70t131.5 -105.5t90.5 -133.5t52 -153t16.5 -162.5q0 -103 -25.5 -207t-75.5 -200.5t-123 -181.5t-168 -147t-211 -98t-252 -36q-199 0 -346.5 56t-245 150 t-145.5 216t-48 253zM315 698q0 -98 35.5 -186.5t108 -156.5t184 -108t262.5 -40q107 0 197 29.5t162.5 80t127 118.5t91.5 145t55 159t18 161q0 97 -29 184t-92.5 152.5t-163.5 104.5t-242 39q-114 0 -211 -28t-176 -77t-140 -115t-103 -141.5t-63 -157.5t-21 -163z M550 726q0 54 12.5 113.5t36.5 117.5t59.5 111.5t82 94t104 64.5t125.5 24q54 0 99.5 -16.5t77.5 -45.5t50.5 -68.5t18.5 -84.5q0 -35 -9.5 -68.5t-27.5 -60.5t-44 -43.5t-57 -16.5q-42 0 -56 21t-14 59q0 20 3 46.5t3 44.5q0 21 -5 34t-20 13q-43 0 -74.5 -21t-52.5 -53.5 t-34 -71.5t-19.5 -76t-8.5 -67.5t-2 -44.5q0 -33 6.5 -67.5t23.5 -63.5t45.5 -46.5t72.5 -17.5q26 0 57.5 9t63.5 23t62.5 30.5t53.5 30.5q10 5 19 5q13 0 24.5 -9t20.5 -23t14 -32t5 -35q0 -19 -6.5 -35t-21.5 -25q-47 -35 -102 -64q-47 -23 -108.5 -42.5t-131.5 -19.5 q-86 0 -151 30.5t-108.5 82.5t-65 120t-21.5 144z" />
<glyph unicode="&#xaa;" horiz-adv-x="1002" d="M69 1131q0 70 19.5 144t54 144t82 132.5t103 109t118 74.5t126.5 28q21 0 33.5 -8.5t20.5 -19t15.5 -21.5t19.5 -15q15 -7 32.5 -7t34.5 0.5t33 0t28 -8.5t19.5 -26.5t7.5 -51.5q0 -45 -9 -99.5t-20.5 -112t-20.5 -115.5t-9 -108q0 -45 7.5 -69.5t33.5 -24.5 q20 0 41.5 9.5t43.5 25.5t44 36.5t42 41.5q46 50 93 114l44 -207q-22 -30 -57.5 -70.5t-81 -76.5t-96 -61.5t-102.5 -25.5q-62 0 -103 40t-71 115q-23 -25 -55.5 -52t-71 -49.5t-80.5 -36.5t-85 -14q-45 0 -87 18t-74.5 52t-52.5 83t-20 112zM308 1171q0 -24 3 -46t11 -39.5 t23 -28t36 -10.5q23 0 43.5 14t38 36.5t31 51t23 58t16 57t8.5 46.5l57 274q-57 0 -109.5 -41.5t-93 -103.5t-64 -134.5t-23.5 -133.5z" />
<glyph unicode="&#xab;" horiz-adv-x="1555" d="M207 576q0 36 16 72t43.5 69t65 64t81.5 59q3 2 27.5 19.5l59.5 42.5t75 53.5t74.5 52.5t58 41t26.5 18q16 7 30.5 9.5t27.5 2.5q26 0 48 -8.5t38 -24.5t25.5 -36t9.5 -42q0 -34 -27 -64.5t-80 -68.5l-352 -247l290 -250q13 -12 36.5 -27t45 -35.5t37.5 -46.5t16 -58 q0 -14 -8.5 -30.5t-24 -30t-38 -22.5t-50.5 -9q-32 0 -69 15q-83 49 -141.5 92t-103 82t-81 75.5t-74.5 72.5q-43 41 -62.5 81t-19.5 79zM829 576q0 36 16 72t43.5 69t65 64t81.5 59q3 2 28 19.5t59.5 42.5t74.5 53.5t74.5 52.5t58 41t26.5 18q16 7 30.5 9.5t27.5 2.5 q26 0 48 -8.5t38 -24.5t25.5 -36t9.5 -42q0 -34 -27 -64.5t-80 -68.5l-352 -247l290 -250q13 -12 36.5 -27t45 -35.5t37.5 -46.5t16 -58q0 -14 -8.5 -30.5t-24 -30t-38 -22.5t-50.5 -9q-32 0 -69 15q-83 49 -141.5 92t-103 82t-81 75.5t-73.5 72.5q-44 41 -63.5 81t-19.5 79 z" />
<glyph unicode="&#xac;" horiz-adv-x="1313" d="M184 719q0 20 9.5 40t28 35.5t46.5 25t66 9.5h681q54 0 78.5 -24.5t24.5 -58.5v-6l-22 -359q-2 -35 -12 -62t-26 -45t-35.5 -27t-38.5 -9q-18 0 -35.5 7.5t-31 23t-21.5 39.5t-8 55q0 3 0.5 6.5t0.5 7.5l14 245h-587q-33 0 -58 8t-41.5 21.5t-24.5 31.5t-8 36z" />
<glyph unicode="&#xad;" horiz-adv-x="829" d="M68 671q0 14 3.5 29.5t14 29t31.5 22t56 8.5h484q14 0 32 -3t33.5 -12.5t26 -25t10.5 -41.5q0 -21 -4.5 -43.5t-19.5 -40t-42 -29.5t-72 -12h-448q-35 0 -55.5 12.5t-31.5 30t-14.5 38t-3.5 37.5z" />
<glyph unicode="&#xae;" horiz-adv-x="1900" d="M77 795q0 108 28.5 215.5t84.5 205.5t141 183.5t196 148t250 98.5t304 36q131 0 236.5 -26.5t187.5 -74t140.5 -112t97 -141t56.5 -161.5t18 -172q0 -114 -27 -228.5t-79 -220t-128.5 -198t-176 -160.5t-220.5 -107.5t-263 -39.5q-213 0 -372 63t-264.5 168.5t-157.5 241 t-52 281.5zM270 769q0 -108 39 -208t119 -176t202 -121.5t288 -45.5q113 0 209 33t172.5 91t134 134.5t96.5 164t58.5 180.5t19.5 183q0 102 -28 192.5t-88.5 159.5t-155.5 109.5t-228 40.5q-134 0 -248.5 -30.5t-208 -83.5t-164.5 -123.5t-119 -152.5t-73 -171t-25 -176z M436 428l21 112q11 -8 24 -11t24 -3q25 0 47.5 23t40.5 60t34 81t27 86.5t18.5 76t11.5 49.5q-32 18 -46 33t-14 35q0 4 1.5 11.5t5.5 15t10 13t15 5.5q3 0 12 -1.5t19 -3t18 -2.5t10 -1l3 10q5 19 13.5 52.5t21 72t28 79t34.5 73t40 53.5t45 21q40 4 75 7q32 2 64.5 4 t56.5 2q73 0 127.5 -20t90 -54t53.5 -77.5t18 -91.5q0 -45 -21.5 -90.5t-63 -82.5t-102.5 -62t-142 -29q37 -16 56 -44.5t26.5 -61.5t8 -67.5t1.5 -62.5t7.5 -45.5t24.5 -17.5t39.5 7.5t45 21t47.5 32t46 41.5l42 -122q0 1 -27.5 -20.5t-72.5 -47.5t-101 -47.5t-115 -21.5 q-49 0 -74.5 33t-37 82.5t-13.5 107.5t-5.5 107.5t-13 82.5t-36.5 33h-32q-31 -109 -62 -195.5t-68 -146t-81.5 -90.5t-102.5 -31q-28 0 -62.5 4t-59.5 23zM913 993q23 -4 47 -4q53 0 96 13t73 33t46 44.5t16 48.5q0 43 -37.5 74.5t-118.5 31.5h-66q-10 -44 -20 -87 q-8 -38 -18 -79.5t-18 -74.5z" />
<glyph unicode="&#xb0;" horiz-adv-x="795" d="M69 1422q0 84 39.5 147.5t100 106t131.5 65t135 22.5q46 0 90.5 -15.5t80 -46t58 -77t22.5 -109.5q0 -96 -35 -166t-90 -117t-121 -70t-130 -23q-45 0 -94.5 15t-91 47.5t-68.5 86.5t-27 134zM232 1421q0 -25 7.5 -46.5t22 -38.5t37 -27t51.5 -10q47 0 84.5 19t63 48 t39 64.5t13.5 68.5q0 44 -25.5 76.5t-78.5 32.5q-54 0 -94 -17t-67 -43.5t-40 -60t-13 -66.5z" />
<glyph unicode="&#xb1;" horiz-adv-x="1396" d="M232 764q0 19 9.5 38t27 33.5t44.5 24t63 9.5h237v246q0 30 10.5 54t28 40.5t38 25t41.5 8.5q35 0 62.5 -25.5t27.5 -82.5v-266h270q56 0 82 -27.5t26 -62.5q0 -22 -8.5 -42.5t-25.5 -37.5t-40.5 -27.5t-54.5 -10.5h-249v-241q0 -35 -9.5 -62t-24 -45t-33.5 -27t-38 -9 t-37.5 8.5t-33 26t-23.5 44t-9 60.5v245h-241q-35 0 -61.5 9t-44 23.5t-26 32.5t-8.5 38zM377 119q0 14 3.5 29.5t14 29t31.5 22t56 8.5h484q14 0 32 -3t33.5 -12.5t26 -25t10.5 -41.5q0 -21 -4.5 -43.5t-19.5 -40t-42 -29.5t-72 -12h-448q-35 0 -55.5 12.5t-31.5 30 t-14.5 38t-3.5 37.5z" />
<glyph unicode="&#xb2;" horiz-adv-x="1071" d="M40 852q0 33 11.5 68.5t35 65t61 49t90.5 19.5q82 0 144 -18t116 -42q50 64 84 141t34 151q0 59 -12.5 95.5t-32.5 57t-44 27.5t-46 7q-26 0 -50.5 -7.5t-42.5 -21t-28.5 -33t-10.5 -42.5q0 -16 21.5 -33t71.5 -38q1 -2 2 -3.5t1 -3.5q0 -11 -25.5 -24t-63.5 -24 t-83 -18.5t-84 -7.5q-6 9 -14 10t-13 1q-40 31 -59 67.5t-19 77.5q0 52 32.5 102.5t89 91t132.5 66t163 25.5q23 0 61 -4.5t82.5 -18t90 -37.5t82.5 -63.5t60.5 -97t23.5 -135.5q0 -36 -13 -86t-37.5 -105t-60 -113t-80.5 -111q33 -13 69.5 -20t80.5 -7q13 0 28.5 14.5 t30.5 31t28 31t20 14.5q31 0 43.5 -5t12.5 -24q0 -15 -6.5 -42.5t-15.5 -71.5q-4 -25 -15.5 -51.5t-32 -48t-52 -36t-75.5 -14.5q-64 0 -128.5 30t-127.5 70q-59 -42 -127 -68.5t-145 -31.5q-55 0 -102 16t-81.5 43t-54.5 62t-20 73zM224 878q0 -15 18.5 -28.5t41.5 -13.5 q41 0 98 42q-22 12 -42.5 19.5t-38.5 7.5q-41 0 -59 -7.5t-18 -19.5z" />
<glyph unicode="&#xb3;" horiz-adv-x="829" d="M71 1024q0 32 10 54.5t26.5 36t38 19t45.5 5.5q21 0 45.5 -4.5t46.5 -12t36.5 -17.5t14.5 -19q0 -6 -15.5 -11t-33 -12t-32 -19t-14.5 -32q0 -46 23 -66t54 -20q23 0 46.5 8.5t42 24.5t30.5 38.5t12 47.5q0 50 -12 83.5t-36.5 54.5t-62 32.5t-88.5 16.5q-28 2 -39.5 12 t-11.5 24q0 13 2.5 27.5t9.5 27t18 20.5t27 8q32 0 57.5 12t43.5 29.5t27.5 40t9.5 42.5q0 34 -16 58t-51 24q-31 0 -52 -14.5t-21 -34.5q0 -8 6.5 -15.5t14 -15t14 -13.5t6.5 -10q0 -7 -12.5 -13.5t-29 -11t-31.5 -8t-19 -3.5q-10 0 -20.5 4.5t-19 15.5t-13.5 30.5t-5 48.5 q0 46 21.5 79t57.5 54.5t82.5 31.5t96.5 10t99.5 -13t87.5 -38t62 -62t24 -83q0 -22 -7 -48t-27 -51t-55.5 -48.5t-94.5 -39.5q62 -13 105.5 -40.5t72 -64.5t41 -80t12.5 -88q0 -46 -25.5 -91t-71.5 -81.5t-110 -59t-139 -22.5q-81 0 -139 18t-94 49.5t-53.5 76t-17.5 98.5z " />
<glyph unicode="&#xb4;" horiz-adv-x="657" d="M110 1247q0 12 3 25t8 27q6 14 18 43t28 65t33.5 78t36.5 83q42 97 91 210q14 36 43 52.5t60 16.5q28 0 56 -11t50 -30.5t36.5 -46.5t14.5 -59q0 -51 -40 -105q-21 -28 -47.5 -62t-55 -71t-58.5 -74t-57 -70t-49 -60t-35 -43q-18 -22 -36.5 -31t-36.5 -9q-26 0 -44.5 20 t-18.5 52z" />
<glyph unicode="&#xb5;" horiz-adv-x="1038" d="M35 -138q0 52 8.5 137t23 186t32.5 210t35.5 208t34 180t26.5 126q9 35 16.5 58.5t24 39t46 22t81.5 7.5q53 -2 80 -13.5t27 -28.5v-4q-10 -57 -21.5 -127t-23 -141.5t-22.5 -139t-19.5 -120.5t-13.5 -85t-5 -34q0 -19 4 -37t11.5 -32t19 -22.5t28.5 -8.5q23 0 48 12.5 t47 35.5t39.5 57t26.5 78l107 548q5 26 43.5 44t86.5 18q55 0 87.5 -19.5t32.5 -49.5t-6.5 -80t-16.5 -110t-22 -123.5t-22.5 -118.5t-17 -97t-6.5 -58q0 -30 1.5 -55.5t6.5 -44.5t16.5 -29t33.5 -10q23 0 57 12t72.5 32t78.5 45t76 53t66 56t48 51q0 -35 0.5 -64.5t0.5 -56 t0.5 -54.5t0.5 -62q-23 -24 -58.5 -51t-78 -54t-90.5 -52t-96.5 -44t-96 -30t-88.5 -11t-70.5 16t-50.5 45.5t-35.5 70t-25.5 89.5q-53 -78 -117 -122.5t-128 -44.5q-32 0 -62 13q-9 -89 -17 -155.5t-25.5 -110.5t-48.5 -66t-87 -22q-57 0 -80 34t-23 104z" />
<glyph unicode="&#xb6;" horiz-adv-x="1412" d="M104 1399q0 64 30 125t84.5 115t131 98.5t168 77t196 50t215.5 17.5q127 0 213.5 -8t139.5 -17q62 -12 97 -25q40 -17 73 -44q27 -22 49.5 -59t22.5 -88q0 -24 -7 -51q-7 -34 -20 -105.5t-30 -169.5t-37 -213t-39.5 -234.5t-40.5 -235.5t-38.5 -214t-32.5 -172t-25 -110 t-27.5 -61t-40 -42t-46.5 -25t-48 -8q-44 0 -76.5 26.5t-32.5 76.5q0 18 4 34q21 119 38.5 238t34 230.5t31.5 213.5t31 186q-39 -4 -88 -7.5t-94 -10.5q-32 -168 -62 -335q-13 -71 -27 -148t-28.5 -154.5t-28 -151.5t-25.5 -139q-7 -17 -19.5 -29.5t-30.5 -21t-39.5 -13 t-43.5 -4.5q-25 0 -49 6t-43 18t-30.5 30t-11.5 42q0 17 7 36q1 11 8 54.5t16.5 108t21.5 141.5t24 157q28 186 64 416q-145 0 -247 35.5t-167 93t-95 128t-30 142.5z" />
<glyph unicode="&#xb7;" horiz-adv-x="760" d="M346 175q0 39 11 76t35 66.5t61.5 46.5t89.5 17q90 0 136.5 -45t46.5 -130q0 -4 -1 -21.5t-7 -40t-18.5 -48t-35 -47t-57.5 -35.5t-84 -14q-40 0 -72.5 10.5t-55.5 31.5t-36 54t-13 79z" />
<glyph unicode="&#xb8;" horiz-adv-x="1278" d="M391 -423q0 45 18.5 94t49.5 106.5t73.5 124.5t89.5 148q9 21 28.5 37.5t40.5 16.5t35.5 -9t14.5 -29q0 -6 -2 -16q-11 -112 -17.5 -179.5t-11 -105.5t-7 -55.5t-4.5 -28.5t-5 -24.5t-7 -45.5q-6 -40 -23.5 -70t-42 -50.5t-53.5 -31.5t-57 -11q-24 0 -45.5 7.5t-38.5 24 t-26.5 40.5t-9.5 57z" />
<glyph unicode="&#xb9;" horiz-adv-x="760" d="M59 1555q0 30 15 46t57 30t117 32.5t196 53.5q19 6 40 8.5t41 2.5q24 0 47.5 -7t42.5 -21t30.5 -35t11.5 -48q0 -1 -4.5 -32t-18 -107.5t-38.5 -208.5t-65 -335l-3 -8l1 2q-3 -15 -10 -43.5t-22 -56t-41 -48t-66 -20.5q-57 0 -93 24.5t-36 79.5q0 9 2 18.5t4 21.5h-1 q21 105 44 213.5t41 197.5q22 105 43 203l-229 -60q-1 0 -1 -0.5t-1 -0.5l4 1q-11 -3 -20 -3q-17 0 -33 8.5t-28.5 23t-19.5 32.5t-7 36z" />
<glyph unicode="&#xba;" horiz-adv-x="862" d="M76 1273q0 103 36 192t97.5 155t142.5 103.5t170 37.5q66 0 115 -29t81 -78t47.5 -113.5t15.5 -135.5q0 -94 -26.5 -190t-77 -174t-125 -127t-169.5 -49q-82 0 -140 35.5t-95.5 94t-54.5 131.5t-17 147zM279 1234q0 -38 7 -73t23 -60.5t42 -41t63 -15.5q32 0 61.5 32 t52 81t36 108.5t13.5 113.5q0 43 -6.5 80t-19.5 64.5t-33.5 43t-49.5 15.5q-39 0 -73 -33t-60 -83.5t-41 -112t-15 -119.5z" />
<glyph unicode="&#xbb;" horiz-adv-x="1555" d="M207 968q0 22 9.5 42t25.5 36t38 24.5t48 8.5q13 0 27.5 -2.5t30.5 -9.5q3 -1 26.5 -18t58 -41t74.5 -52.5t74.5 -53.5t59 -42.5t28.5 -19.5q44 -28 81.5 -59t65 -64t43.5 -69t16 -72q0 -39 -19.5 -79t-62.5 -81q-38 -36 -74.5 -72.5t-81 -75.5t-103.5 -82t-141 -92 q-37 -15 -69 -15q-28 0 -50.5 9t-38 22.5t-24 30t-8.5 30.5q0 32 16 58t37.5 46.5t45 35.5t36.5 27l290 250l-352 247q-53 38 -80 68.5t-27 64.5zM829 968q0 22 9.5 42t25.5 36t38 24.5t48 8.5q13 0 28 -2.5t30 -9.5q3 -1 26.5 -18t58.5 -41t74.5 -52.5t74.5 -53.5t59 -42.5 t28 -19.5q44 -28 81.5 -59t65 -64t43.5 -69t16 -72q0 -39 -19.5 -79t-62.5 -81q-38 -36 -74.5 -72.5t-81 -75.5t-103.5 -82t-141 -92q-37 -15 -69 -15q-28 0 -50 9t-38 22.5t-24.5 30t-8.5 30.5q0 32 16 58t38 46.5t45 35.5t36 27l290 250l-352 247q-53 38 -80 68.5 t-27 64.5z" />
<glyph unicode="&#xbc;" horiz-adv-x="1899" d="M59 1555q0 30 15 46t57 30t117 32.5t196 53.5q19 6 40 8.5t41 2.5q24 0 47.5 -7t42.5 -21t30.5 -35t11.5 -48q0 -1 -4.5 -32t-18 -107.5t-38.5 -208.5t-65 -335l-3 -8l1 2q-3 -15 -10 -43.5t-22 -56t-41 -48t-66 -20.5q-57 0 -93 24.5t-36 79.5q0 9 2 18.5t4 21.5h-1 q21 105 44 213.5t41 197.5q22 105 43 203l-229 -60q-1 0 -1 -0.5t-1 -0.5l4 1q-11 -3 -20 -3q-17 0 -33 8.5t-28.5 23t-19.5 32.5t-7 36zM432 349q0 21 7.5 47.5t25.5 57.5q13 21 39.5 68.5t63.5 112.5t80.5 143t90 161.5t94 167.5t91.5 161t81.5 142t65.5 111 q9 15 24.5 27.5t35 21.5t41 14.5t41.5 5.5q34 0 59.5 -17.5t25.5 -58.5q0 -21 -9 -53t-32 -70q-47 -81 -108 -191.5t-138 -247t-170 -296t-204 -338.5q-21 -36 -51.5 -52.5t-58.5 -16.5q-38 0 -66.5 26t-28.5 74zM995 221q0 25 16 58.5t41 71.5q22 53 39 98.5t31 88 t26.5 85.5t24 92t23 105t25.5 125q6 15 24.5 26t44 18t56.5 10t61 3q25 0 47.5 -2t39.5 -6.5t26.5 -10t9.5 -12.5q-10 -74 -30.5 -146.5t-48.5 -147t-61.5 -151t-69.5 -154.5q38 -2 63 -2.5t47 -0.5h13q20 62 40 121t38 110q6 25 22.5 43t37.5 29.5t43 16t40 4.5 q48 0 64 -14t16 -39q0 -15 -6.5 -41t-17 -58.5t-24.5 -71t-28 -78.5q49 9 89 16t68 7q13 0 18.5 -11t5.5 -28q0 -41 -7.5 -66t-17.5 -39t-20 -18.5t-14 -4.5q-38 0 -79.5 2t-87.5 4q-17 -66 -21 -116v-18q0 -17 14.5 -39.5t31 -43.5t31 -39.5t14.5 -28.5q0 -6 -2.5 -8 t-12.5 -2q-43 0 -87 -3.5t-85 -3.5q-32 0 -56 4.5t-41 17t-25.5 34t-8.5 56.5q0 37 9.5 87.5t24.5 105.5q-61 0 -113.5 -12.5t-98.5 -27t-87.5 -26.5t-81.5 -12q-18 0 -25.5 12.5t-7.5 30.5z" />
<glyph unicode="&#xbd;" horiz-adv-x="1867" d="M59 1626q0 31 15 46.5t57 29.5t117 32.5t196 53.5q19 6 40 8.5t41 2.5q24 0 47.5 -7t42.5 -21t30.5 -35t11.5 -48q0 -1 -4.5 -32t-18 -107.5t-38.5 -208t-65 -335.5l-3 -8l1 2q-3 -15 -10 -43t-22 -55.5t-41 -48t-66 -20.5q-57 0 -93 24t-36 79q0 9 2 18.5t4 21.5h-1 q21 105 44 213.5t41 198.5q22 104 43 203l-229 -61q-1 0 -1 -0.5t-1 -0.5l4 1q-11 -3 -20 -3q-17 0 -33 8.5t-28.5 23t-19.5 32.5t-7 36zM377 349q0 21 7.5 47.5t25.5 57.5q13 21 39.5 68.5t63.5 112.5t80.5 143t90 161.5t94 167.5t91.5 161t81.5 142t65.5 111 q9 15 24.5 27.5t35 21.5t41 14.5t41.5 5.5q34 0 59.5 -17.5t25.5 -58.5q0 -21 -9 -53t-32 -70q-47 -81 -108.5 -191.5t-138 -247t-169.5 -296t-204 -338.5q-21 -36 -51.5 -52.5t-58.5 -16.5q-38 0 -66.5 26t-28.5 74zM900 195q0 33 11 68.5t35 65.5t61 49t90 19 q82 0 144.5 -17.5t116.5 -42.5q49 65 83 141.5t34 151.5q0 58 -12.5 94.5t-32.5 57t-43.5 27.5t-46.5 7q-26 0 -50 -7.5t-42 -21t-28.5 -33t-10.5 -41.5q0 -16 21.5 -33.5t70.5 -37.5q1 -3 2.5 -4.5t1.5 -3.5q0 -11 -25.5 -24t-64 -23.5t-83 -18t-83.5 -7.5q-7 8 -14.5 9 t-12.5 1q-40 32 -59 68t-19 77q0 52 32.5 102.5t89 91t132 66t163.5 25.5q22 0 60.5 -4t83 -17.5t89.5 -38t82.5 -64t60.5 -96.5t23 -135q0 -37 -13 -86.5t-37 -104.5t-59.5 -113.5t-81.5 -111.5q34 -13 70.5 -20t79.5 -7q13 0 29 14.5t31 31.5t28 31.5t19 14.5 q32 0 44 -5.5t12 -23.5q0 -15 -6.5 -43t-14.5 -72q-4 -25 -15.5 -51.5t-32 -48t-52 -36t-75.5 -14.5q-64 0 -128.5 30.5t-127.5 70.5q-59 -43 -127.5 -69.5t-144.5 -31.5q-55 0 -102 16t-81.5 43t-54.5 62.5t-20 72.5zM1083 221q0 -15 19 -28.5t42 -13.5q41 0 98 42 q-23 12 -43.5 19.5t-37.5 7.5q-41 0 -59.5 -7.5t-18.5 -19.5z" />
<glyph unicode="&#xbe;" horiz-adv-x="1936" d="M38 1160q0 32 9.5 54.5t26.5 36t38.5 19t45.5 5.5q20 0 45 -4.5t46.5 -12t36 -17.5t14.5 -18q0 -7 -15 -12t-33 -12t-32.5 -18.5t-14.5 -32.5q0 -46 23.5 -66t54.5 -20q23 0 46 8.5t42 24.5t31 38.5t12 48.5q0 49 -12 82.5t-37 54.5t-62 32.5t-88 16.5q-28 3 -40 12.5 t-12 23.5q0 13 2.5 27.5t10 27t18 20.5t26.5 8q33 0 58 12t43 30t28 40t10 42q0 34 -16.5 58t-50.5 24q-32 0 -53 -14.5t-21 -34.5q0 -8 6.5 -15.5t14 -15t14 -13.5t6.5 -10q0 -7 -12.5 -13.5t-28.5 -11t-31 -8t-20 -3.5q-9 0 -20 4.5t-19 15.5t-13.5 30.5t-5.5 48.5 q0 46 21.5 79t58 54.5t83 31.5t95.5 10q51 0 100 -12.5t87.5 -38t62 -62.5t23.5 -83q0 -22 -7 -48t-27 -51t-55.5 -48.5t-93.5 -39.5q61 -13 105 -40.5t72 -64t41 -80t13 -88.5q0 -46 -26 -91t-72 -81.5t-109.5 -59t-139.5 -22.5q-81 0 -138.5 18t-94 49.5t-53.5 76 t-17 98.5zM431 349q0 21 7.5 47.5t25.5 57.5q13 21 39.5 68.5t63.5 112.5t80.5 143t90 161.5t94 167.5t91.5 161t81.5 142t65.5 111q9 15 24.5 27.5t35 21.5t41 14.5t41.5 5.5q34 0 59.5 -17.5t25.5 -58.5q0 -21 -9 -53t-32 -70q-47 -81 -108.5 -191.5t-138 -247 t-169.5 -296t-204 -338.5q-21 -36 -51.5 -52.5t-58.5 -16.5q-38 0 -66.5 26t-28.5 74zM956 256q0 28 17 66t45 80q23 59 42 110.5t34 99.5t28 96.5t25.5 103t25.5 118t28 141.5q6 18 26 29.5t48.5 20t61 12t65.5 3.5q27 0 51 -2.5t42 -7t29 -11.5t11 -14q-12 -84 -34 -166 t-52 -165t-66 -169t-76 -175q41 -3 69 -4t51 0h14q21 70 43 136.5t40 125.5q6 28 24 48t40.5 32.5t47 18t43.5 5.5q51 0 69 -16t18 -44q0 -17 -7 -46.5t-19 -66t-27 -80t-30 -88.5q54 9 97 17t73 8q14 0 20 -12t6 -31q0 -47 -8 -75t-19 -43.5t-21.5 -20.5t-16.5 -5 q-41 0 -85.5 1.5t-93.5 4.5q-9 -35 -15 -68t-9 -62v-21q0 -19 16 -44t34 -49t34 -44.5t16 -32.5q0 -6 -3 -8.5t-13 -2.5q-47 0 -95 -4t-92 -4q-35 0 -61 5t-44 19t-27.5 38.5t-9.5 63.5q0 43 11 99t27 119q-67 0 -123 -13.5t-106 -30.5t-94.5 -30.5t-87.5 -13.5 q-20 0 -28.5 14t-8.5 35z" />
<glyph unicode="&#xbf;" horiz-adv-x="1395" d="M426 365q0 115 27 196t70.5 141t97.5 106t108 90t102 91t81 110q16 52 45.5 79t65.5 27q38 0 66.5 -16t28.5 -53q0 -73 -18.5 -131t-48.5 -106t-68.5 -88t-79 -76.5t-79 -73.5t-68.5 -78t-48.5 -89t-18.5 -108q0 -52 11 -86t30.5 -54.5t45 -29.5t57.5 -9q30 0 62.5 11.5 t63 30t56.5 41.5t44 47q16 20 35 29t38 9q20 0 39.5 -10t34 -27t23.5 -39.5t9 -47.5q0 -12 -4 -25t-13 -25q-32 -49 -76 -86.5t-95.5 -63t-107 -38.5t-108.5 -13q-66 0 -138.5 21t-132.5 66t-98.5 113.5t-38.5 164.5zM874 1524q0 4 1 21.5t7 40t18.5 48t35 47t57 35.5 t84.5 14q40 0 72.5 -10t55.5 -31t36 -54t13 -80q0 -39 -11.5 -76t-35 -66.5t-61.5 -46.5t-90 -17q-89 0 -135.5 45.5t-46.5 129.5z" />
<glyph unicode="&#xc0;" horiz-adv-x="1745" d="M138 486q0 105 24.5 219.5t71 231t112 231t150 217.5t184.5 191t213.5 152.5t238.5 101t260 36.5q37 0 59 -6t33.5 -15t14.5 -18.5t3 -17.5q0 -5 -0.5 -9.5t-0.5 -6.5v-6q29 -17 59.5 -20.5t59.5 -6.5t55 -11.5t45.5 -34t31 -74t11.5 -131.5q0 -65 -12.5 -146t-33 -169.5 t-46 -179.5t-51 -176t-49 -160.5t-40.5 -132.5q-3 -47 -5 -88t-2 -85q0 -35 1.5 -57t6 -35t12 -18t19.5 -5q21 0 54 11.5t70.5 29t78 40t77.5 44.5t69.5 40.5t54.5 30.5l55 -211q-23 -24 -58 -54t-79 -61t-94.5 -60t-103.5 -52t-106.5 -36.5t-103.5 -13.5q-34 0 -69 12 t-64 44t-47 88t-18 146q0 38 5.5 81.5t13.5 94.5q-60 -122 -136.5 -234t-162 -175t-177.5 -95.5t-184 -32.5q-100 0 -190.5 35t-159.5 105t-109.5 173.5t-40.5 278.5zM449 492q0 -189 61 -272.5t190 -83.5q80 0 151.5 33.5t133.5 88t113 141.5t89.5 157t63 135.5t35.5 113.5 l225 833q-38 11 -78.5 16t-78.5 5q-87 0 -172.5 -33.5t-166 -91.5t-153.5 -136t-136 -168.5t-113.5 -187.5t-87.5 -193.5t-56.5 -188t-19.5 -168.5zM1032 2607q0 32 14 59t36 46.5t50.5 30.5t56.5 11q31 0 59.5 -16.5t42.5 -52.5q50 -113 92 -210q17 -41 35.5 -83t34 -78 t27.5 -65t19 -43q5 -14 7.5 -27t2.5 -25q0 -32 -18 -52t-44 -20q-19 0 -37.5 9t-36.5 31q-14 16 -35.5 43t-48.5 60t-56.5 70t-58 74t-55 71t-47.5 62q-40 56 -40 105z" />
<glyph unicode="&#xc1;" horiz-adv-x="1745" d="M138 486q0 105 24.5 219.5t71 231t112 231t150 217.5t184.5 191t213.5 152.5t238.5 101t260 36.5q37 0 59 -6t33.5 -15t14.5 -18.5t3 -17.5q0 -5 -0.5 -9.5t-0.5 -6.5v-6q29 -17 59.5 -20.5t59.5 -6.5t55 -11.5t45.5 -34t31 -74t11.5 -131.5q0 -65 -12.5 -146t-33 -169.5 t-46 -179.5t-51 -176t-49 -160.5t-40.5 -132.5q-3 -47 -5 -88t-2 -85q0 -35 1.5 -57t6 -35t12 -18t19.5 -5q21 0 54 11.5t70.5 29t78 40t77.5 44.5t69.5 40.5t54.5 30.5l55 -211q-23 -24 -58 -54t-79 -61t-94.5 -60t-103.5 -52t-106.5 -36.5t-103.5 -13.5q-34 0 -69 12 t-64 44t-47 88t-18 146q0 38 5.5 81.5t13.5 94.5q-60 -122 -136.5 -234t-162 -175t-177.5 -95.5t-184 -32.5q-100 0 -190.5 35t-159.5 105t-109.5 173.5t-40.5 278.5zM449 492q0 -189 61 -272.5t190 -83.5q80 0 151.5 33.5t133.5 88t113 141.5t89.5 157t63 135.5t35.5 113.5 l225 833q-38 11 -78.5 16t-78.5 5q-87 0 -172.5 -33.5t-166 -91.5t-153.5 -136t-136 -168.5t-113.5 -187.5t-87.5 -193.5t-56.5 -188t-19.5 -168.5zM1391 2154q0 12 3 25t8 27q6 14 18 43t28 65t33.5 78t36.5 83q42 97 91 210q14 36 43 52.5t60 16.5q28 0 56 -11t50 -30.5 t36.5 -46.5t14.5 -59q0 -51 -40 -105q-21 -28 -47.5 -62t-55 -71t-58.5 -74t-57 -70t-49 -60t-35 -43q-18 -22 -36.5 -31t-36.5 -9q-26 0 -44.5 20t-18.5 52z" />
<glyph unicode="&#xc2;" horiz-adv-x="1745" d="M138 486q0 105 24.5 219.5t71 231t112 231t150 217.5t184.5 191t213.5 152.5t238.5 101t260 36.5q37 0 59 -6t33.5 -15t14.5 -18.5t3 -17.5q0 -5 -0.5 -9.5t-0.5 -6.5v-6q29 -17 59.5 -20.5t59.5 -6.5t55 -11.5t45.5 -34t31 -74t11.5 -131.5q0 -65 -12.5 -146t-33 -169.5 t-46 -179.5t-51 -176t-49 -160.5t-40.5 -132.5q-3 -47 -5 -88t-2 -85q0 -35 1.5 -57t6 -35t12 -18t19.5 -5q21 0 54 11.5t70.5 29t78 40t77.5 44.5t69.5 40.5t54.5 30.5l55 -211q-23 -24 -58 -54t-79 -61t-94.5 -60t-103.5 -52t-106.5 -36.5t-103.5 -13.5q-34 0 -69 12 t-64 44t-47 88t-18 146q0 38 5.5 81.5t13.5 94.5q-60 -122 -136.5 -234t-162 -175t-177.5 -95.5t-184 -32.5q-100 0 -190.5 35t-159.5 105t-109.5 173.5t-40.5 278.5zM449 492q0 -189 61 -272.5t190 -83.5q80 0 151.5 33.5t133.5 88t113 141.5t89.5 157t63 135.5t35.5 113.5 l225 833q-38 11 -78.5 16t-78.5 5q-87 0 -172.5 -33.5t-166 -91.5t-153.5 -136t-136 -168.5t-113.5 -187.5t-87.5 -193.5t-56.5 -188t-19.5 -168.5zM1115 2185q2 21 12 41l198 356q32 56 58 99t52.5 72t60 44.5t81.5 15.5t79 -18t51.5 -52.5t35 -85t25.5 -114.5 q10 -37 16 -59.5t11 -40t8.5 -32.5t9 -36.5t13 -52.5t20.5 -80q3 -19 2 -37q-2 -51 -35.5 -86.5t-94.5 -35.5q-21 0 -40 6.5t-34 22.5t-25.5 43.5t-14.5 69.5q-12 111 -22.5 189t-17.5 128q-8 58 -15 94q-39 -88 -73 -167q-15 -33 -31 -68t-30 -67.5t-27 -60.5t-21 -48 q-23 -51 -45.5 -79t-46 -41t-46 -15.5t-45.5 -2.5q-12 0 -24.5 7t-22.5 20t-16.5 31t-5.5 40z" />
<glyph unicode="&#xc3;" horiz-adv-x="1745" d="M138 486q0 105 24.5 219.5t71 231t112 231t150 217.5t184.5 191t213.5 152.5t238.5 101t260 36.5q37 0 59 -6t33.5 -15t14.5 -18.5t3 -17.5q0 -5 -0.5 -9.5t-0.5 -6.5v-6q29 -17 59.5 -20.5t59.5 -6.5t55 -11.5t45.5 -34t31 -74t11.5 -131.5q0 -65 -12.5 -146t-33 -169.5 t-46 -179.5t-51 -176t-49 -160.5t-40.5 -132.5q-3 -47 -5 -88t-2 -85q0 -35 1.5 -57t6 -35t12 -18t19.5 -5q21 0 54 11.5t70.5 29t78 40t77.5 44.5t69.5 40.5t54.5 30.5l55 -211q-23 -24 -58 -54t-79 -61t-94.5 -60t-103.5 -52t-106.5 -36.5t-103.5 -13.5q-34 0 -69 12 t-64 44t-47 88t-18 146q0 38 5.5 81.5t13.5 94.5q-60 -122 -136.5 -234t-162 -175t-177.5 -95.5t-184 -32.5q-100 0 -190.5 35t-159.5 105t-109.5 173.5t-40.5 278.5zM449 492q0 -189 61 -272.5t190 -83.5q80 0 151.5 33.5t133.5 88t113 141.5t89.5 157t63 135.5t35.5 113.5 l225 833q-38 11 -78.5 16t-78.5 5q-87 0 -172.5 -33.5t-166 -91.5t-153.5 -136t-136 -168.5t-113.5 -187.5t-87.5 -193.5t-56.5 -188t-19.5 -168.5zM1050 2197q0 27 15 57q13 25 33.5 63.5t51.5 74.5t72 62t94 26q33 0 60.5 -9.5t63.5 -33t87 -64.5t132 -105q13 14 26 33 q12 15 25.5 34.5t27.5 40.5q22 35 53.5 51.5t63.5 16.5q36 0 62.5 -20.5t26.5 -58.5q0 -27 -15 -57q-13 -25 -33.5 -63t-51 -74.5t-71.5 -62.5t-94 -26q-34 0 -61.5 9.5t-63 33t-87 64.5t-132.5 105q-13 -16 -26 -33q-12 -16 -26 -34.5t-27 -40.5q-21 -34 -53 -51t-63 -17 q-37 0 -63.5 20.5t-26.5 58.5z" />
<glyph unicode="&#xc4;" horiz-adv-x="1745" d="M138 486q0 105 24.5 219.5t71 231t112 231t150 217.5t184.5 191t213.5 152.5t238.5 101t260 36.5q37 0 59 -6t33.5 -15t14.5 -18.5t3 -17.5q0 -5 -0.5 -9.5t-0.5 -6.5v-6q29 -17 59.5 -20.5t59.5 -6.5t55 -11.5t45.5 -34t31 -74t11.5 -131.5q0 -65 -12.5 -146t-33 -169.5 t-46 -179.5t-51 -176t-49 -160.5t-40.5 -132.5q-3 -47 -5 -88t-2 -85q0 -35 1.5 -57t6 -35t12 -18t19.5 -5q21 0 54 11.5t70.5 29t78 40t77.5 44.5t69.5 40.5t54.5 30.5l55 -211q-23 -24 -58 -54t-79 -61t-94.5 -60t-103.5 -52t-106.5 -36.5t-103.5 -13.5q-34 0 -69 12 t-64 44t-47 88t-18 146q0 38 5.5 81.5t13.5 94.5q-60 -122 -136.5 -234t-162 -175t-177.5 -95.5t-184 -32.5q-100 0 -190.5 35t-159.5 105t-109.5 173.5t-40.5 278.5zM449 492q0 -189 61 -272.5t190 -83.5q80 0 151.5 33.5t133.5 88t113 141.5t89.5 157t63 135.5t35.5 113.5 l225 833q-38 11 -78.5 16t-78.5 5q-87 0 -172.5 -33.5t-166 -91.5t-153.5 -136t-136 -168.5t-113.5 -187.5t-87.5 -193.5t-56.5 -188t-19.5 -168.5zM1074 2242q0 36 10 70t30.5 60t53 42t77.5 16q75 0 115.5 -41t40.5 -119q0 -4 -1 -19.5t-6 -36.5t-16 -44t-30.5 -42.5 t-49 -32t-71.5 -12.5q-70 0 -111.5 37t-41.5 122zM1579 2242q0 36 9.5 70t30.5 60t53 42t77 16q77 0 117 -41t40 -119q0 -4 -1 -19.5t-6 -36.5t-16 -44t-30.5 -42.5t-49 -32t-72.5 -12.5q-67 0 -109.5 37t-42.5 122z" />
<glyph unicode="&#xc5;" horiz-adv-x="1745" d="M138 486q0 105 24.5 219.5t71 231t112 231t150 217.5t184.5 191t213.5 152.5t238.5 101t260 36.5q37 0 59 -6t33.5 -15t14.5 -18.5t3 -17.5q0 -5 -0.5 -9.5t-0.5 -6.5v-6q29 -17 59.5 -20.5t59.5 -6.5t55 -11.5t45.5 -34t31 -74t11.5 -131.5q0 -65 -12.5 -146t-33 -169.5 t-46 -179.5t-51 -176t-49 -160.5t-40.5 -132.5q-3 -47 -5 -88t-2 -85q0 -35 1.5 -57t6 -35t12 -18t19.5 -5q21 0 54 11.5t70.5 29t78 40t77.5 44.5t69.5 40.5t54.5 30.5l55 -211q-23 -24 -58 -54t-79 -61t-94.5 -60t-103.5 -52t-106.5 -36.5t-103.5 -13.5q-34 0 -69 12 t-64 44t-47 88t-18 146q0 38 5.5 81.5t13.5 94.5q-60 -122 -136.5 -234t-162 -175t-177.5 -95.5t-184 -32.5q-100 0 -190.5 35t-159.5 105t-109.5 173.5t-40.5 278.5zM449 492q0 -189 61 -272.5t190 -83.5q80 0 151.5 33.5t133.5 88t113 141.5t89.5 157t63 135.5t35.5 113.5 l225 833q-38 11 -78.5 16t-78.5 5q-87 0 -172.5 -33.5t-166 -91.5t-153.5 -136t-136 -168.5t-113.5 -187.5t-87.5 -193.5t-56.5 -188t-19.5 -168.5zM1196 2188q0 50 16 92t44 76t64.5 60t77 43.5t82 26.5t78.5 9q40 0 80.5 -13.5t72 -41.5t51.5 -70.5t20 -98.5 q0 -86 -31.5 -150t-80 -106t-108.5 -62.5t-116 -20.5q-40 0 -84 13t-81 42.5t-61 79t-24 121.5zM1341 2187q0 -22 6.5 -42t20 -35t33 -24t45.5 -9q42 0 75.5 16.5t56.5 43t35 58.5t12 62q0 41 -22.5 69.5t-71.5 28.5q-48 0 -83.5 -15.5t-59 -40t-35.5 -54t-12 -58.5z" />
<glyph unicode="&#xc6;" horiz-adv-x="2488" d="M138 486q0 141 46.5 290.5t132 289t204.5 264t264 217t311.5 146.5t346.5 54q34 0 71.5 -7.5t68.5 -24.5t50.5 -44t19.5 -66q0 -14 -3 -30q42 72 89.5 121.5t100 79.5t108 43t114.5 13q79 0 161.5 -19t165 -46.5t163 -58t156.5 -51.5q17 -11 24 -30t7 -40 q0 -25 -7.5 -51.5t-20.5 -48t-30 -36t-34 -14.5q-13 0 -20 6q-37 27 -99.5 59t-138 59t-156.5 45t-154 18q-82 0 -145 -36t-110 -92.5t-78.5 -126t-51 -134.5t-27.5 -118.5t-8 -79.5q108 10 207 17q42 3 86.5 6.5t85.5 5.5t77 3.5t62 1.5q49 0 73 -28.5t24 -64.5 q0 -20 -8 -40.5t-24 -36.5t-41 -26.5t-58 -10.5q-10 0 -48.5 -2.5t-92 -6.5t-114.5 -8.5t-115.5 -8t-95.5 -6.5t-53 -3q-19 -54 -33 -118q-12 -55 -22.5 -129.5t-10.5 -160.5q0 -81 23.5 -135t64 -87t95.5 -47t119 -14q76 0 160.5 15t168 41.5t163 63t147.5 78t120 87.5 t80 92l74 -245q-87 -93 -196.5 -162.5t-229 -116.5t-242.5 -71t-239 -24q-113 0 -214.5 29t-177 86.5t-120 143.5t-44.5 200q0 28 3 60q-60 -101 -142 -189t-173 -154t-184.5 -103.5t-175.5 -37.5q-100 0 -190.5 35t-159.5 104.5t-109.5 173.5t-40.5 242zM449 492 q0 -152 61 -235.5t190 -83.5q80 0 155.5 46t142.5 118.5t124.5 163t103 179t77 165t45.5 123.5l164 572q-112 0 -234.5 -39t-241 -109.5t-225 -168t-187 -213.5t-128 -247.5t-47.5 -270.5z" />
<glyph unicode="&#xc7;" horiz-adv-x="1629" d="M104 521q0 99 21.5 213t62 232t99 236t132 226t162.5 200t189 161t211.5 107.5t231.5 38.5q78 0 157.5 -27.5t143.5 -84.5t104.5 -144.5t40.5 -206.5q0 -80 -25.5 -161.5t-69.5 -156.5t-104 -141t-129.5 -114t-144 -76t-148.5 -28q-98 0 -147 26.5t-49 75.5q0 9 -0.5 21 t-0.5 25q0 19 2.5 40t9 38.5t18.5 28.5t34 11q13 0 22.5 -4t21.5 -8.5t29 -8t43 -3.5q69 0 139.5 30t127.5 85t93 131.5t36 168.5q0 48 -13 92t-42 76.5t-75 52.5t-112 20q-78 0 -152 -34t-142 -92t-129 -138t-112.5 -171.5t-93.5 -190t-71 -197t-44.5 -190.5t-15.5 -170 q0 -111 27.5 -194t78 -138t124 -82t165.5 -27q114 0 213 28.5t188.5 75t173.5 105t167.5 117.5t170.5 112.5t184 89.5v-232q-53 -23 -102.5 -60t-100.5 -81.5t-105.5 -93.5t-117.5 -97t-137.5 -92t-164.5 -76.5t-198.5 -52t-240.5 -19.5q-146 0 -263 58.5t-200.5 158.5 t-128 232.5t-44.5 278.5zM497 -688q0 45 18.5 94t49.5 106.5t73.5 124.5t89.5 148q9 21 28.5 37.5t40.5 16.5t35.5 -9t14.5 -29q0 -6 -2 -16q-11 -112 -17.5 -179.5t-11 -105.5t-7 -55.5t-4.5 -28.5t-5 -24.5t-7 -45.5q-6 -40 -23.5 -70t-42 -50.5t-53.5 -31.5t-57 -11 q-24 0 -45.5 7.5t-38.5 24t-26.5 40.5t-9.5 57z" />
<glyph unicode="&#xc8;" horiz-adv-x="1396" d="M69 393q0 109 39.5 209.5t122 178.5t211.5 125.5t310 51.5q-119 0 -207.5 34t-147 92t-87.5 135t-29 163q0 81 28 148t77 120.5t116 93.5t145.5 66.5t164 40t173.5 13.5q126 0 247 -27.5t215 -82.5t151.5 -137.5t57.5 -193.5q0 -38 -26.5 -76t-63.5 -67.5t-77.5 -47.5 t-67.5 -18q-22 0 -22 40q0 36 11 92t38 140q-29 24 -85 47.5t-127 43t-151 32t-157 12.5q-73 0 -138.5 -13t-116 -42.5t-80 -78t-29.5 -120.5q0 -58 21 -98t56 -68t80.5 -46t94 -32t95.5 -27t86.5 -29.5t66.5 -40.5t35 -59q3 -23 5 -46.5t2 -44.5q0 -61 -22.5 -88.5 t-88.5 -27.5q-28 0 -70 3.5t-79 3.5q-87 0 -170 -22t-149 -66t-106.5 -108t-40.5 -150q0 -81 23.5 -135t64 -87t95.5 -47t118 -14q77 0 161.5 15t168 41.5t163 63t147.5 78t120 87.5t80 92l74 -245q-87 -93 -197 -162.5t-229 -116.5t-242 -71t-239 -24q-127 0 -239.5 30 t-197 91t-133.5 154.5t-49 221.5zM625 2607q0 32 14 59t36 46.5t50.5 30.5t56.5 11q31 0 59.5 -16.5t42.5 -52.5q50 -113 92 -210q17 -41 35.5 -83t34 -78t27.5 -65t19 -43q5 -14 7.5 -27t2.5 -25q0 -32 -18 -52t-44 -20q-19 0 -37.5 9t-36.5 31q-14 16 -35.5 43t-48.5 60 t-56.5 70t-58 74t-55 71t-47.5 62q-40 56 -40 105z" />
<glyph unicode="&#xc9;" horiz-adv-x="1396" d="M69 393q0 109 39.5 209.5t122 178.5t211.5 125.5t310 51.5q-119 0 -207.5 34t-147 92t-87.5 135t-29 163q0 81 28 148t77 120.5t116 93.5t145.5 66.5t164 40t173.5 13.5q126 0 247 -27.5t215 -82.5t151.5 -137.5t57.5 -193.5q0 -38 -26.5 -76t-63.5 -67.5t-77.5 -47.5 t-67.5 -18q-22 0 -22 40q0 36 11 92t38 140q-29 24 -85 47.5t-127 43t-151 32t-157 12.5q-73 0 -138.5 -13t-116 -42.5t-80 -78t-29.5 -120.5q0 -58 21 -98t56 -68t80.5 -46t94 -32t95.5 -27t86.5 -29.5t66.5 -40.5t35 -59q3 -23 5 -46.5t2 -44.5q0 -61 -22.5 -88.5 t-88.5 -27.5q-28 0 -70 3.5t-79 3.5q-87 0 -170 -22t-149 -66t-106.5 -108t-40.5 -150q0 -81 23.5 -135t64 -87t95.5 -47t118 -14q77 0 161.5 15t168 41.5t163 63t147.5 78t120 87.5t80 92l74 -245q-87 -93 -197 -162.5t-229 -116.5t-242 -71t-239 -24q-127 0 -239.5 30 t-197 91t-133.5 154.5t-49 221.5zM985 2154q0 12 3 25t8 27q6 14 18 43t28 65t33.5 78t36.5 83q42 97 91 210q14 36 43 52.5t60 16.5q28 0 56 -11t50 -30.5t36.5 -46.5t14.5 -59q0 -51 -40 -105q-21 -28 -47.5 -62t-55 -71t-58.5 -74t-57 -70t-49 -60t-35 -43 q-18 -22 -36.5 -31t-36.5 -9q-26 0 -44.5 20t-18.5 52z" />
<glyph unicode="&#xca;" horiz-adv-x="1396" d="M69 393q0 109 39.5 209.5t122 178.5t211.5 125.5t310 51.5q-119 0 -207.5 34t-147 92t-87.5 135t-29 163q0 81 28 148t77 120.5t116 93.5t145.5 66.5t164 40t173.5 13.5q126 0 247 -27.5t215 -82.5t151.5 -137.5t57.5 -193.5q0 -38 -26.5 -76t-63.5 -67.5t-77.5 -47.5 t-67.5 -18q-22 0 -22 40q0 36 11 92t38 140q-29 24 -85 47.5t-127 43t-151 32t-157 12.5q-73 0 -138.5 -13t-116 -42.5t-80 -78t-29.5 -120.5q0 -58 21 -98t56 -68t80.5 -46t94 -32t95.5 -27t86.5 -29.5t66.5 -40.5t35 -59q3 -23 5 -46.5t2 -44.5q0 -61 -22.5 -88.5 t-88.5 -27.5q-28 0 -70 3.5t-79 3.5q-87 0 -170 -22t-149 -66t-106.5 -108t-40.5 -150q0 -81 23.5 -135t64 -87t95.5 -47t118 -14q77 0 161.5 15t168 41.5t163 63t147.5 78t120 87.5t80 92l74 -245q-87 -93 -197 -162.5t-229 -116.5t-242 -71t-239 -24q-127 0 -239.5 30 t-197 91t-133.5 154.5t-49 221.5zM708 2185q2 21 12 41l198 356q32 56 58 99t52.5 72t60 44.5t81.5 15.5t79 -18t51.5 -52.5t35 -85t25.5 -114.5q10 -37 16 -59.5t11 -40t8.5 -32.5t9 -36.5t13 -52.5t20.5 -80q3 -19 2 -37q-2 -51 -35.5 -86.5t-94.5 -35.5q-21 0 -40 6.5 t-34 22.5t-25.5 43.5t-14.5 69.5q-12 111 -22.5 189t-17.5 128q-8 58 -15 94q-39 -88 -73 -167q-15 -33 -31 -68t-30 -67.5t-27 -60.5t-21 -48q-23 -51 -45.5 -79t-46 -41t-46 -15.5t-45.5 -2.5q-12 0 -24.5 7t-22.5 20t-16.5 31t-5.5 40z" />
<glyph unicode="&#xcb;" horiz-adv-x="1396" d="M69 393q0 109 39.5 209.5t122 178.5t211.5 125.5t310 51.5q-119 0 -207.5 34t-147 92t-87.5 135t-29 163q0 81 28 148t77 120.5t116 93.5t145.5 66.5t164 40t173.5 13.5q126 0 247 -27.5t215 -82.5t151.5 -137.5t57.5 -193.5q0 -38 -26.5 -76t-63.5 -67.5t-77.5 -47.5 t-67.5 -18q-22 0 -22 40q0 36 11 92t38 140q-29 24 -85 47.5t-127 43t-151 32t-157 12.5q-73 0 -138.5 -13t-116 -42.5t-80 -78t-29.5 -120.5q0 -58 21 -98t56 -68t80.5 -46t94 -32t95.5 -27t86.5 -29.5t66.5 -40.5t35 -59q3 -23 5 -46.5t2 -44.5q0 -61 -22.5 -88.5 t-88.5 -27.5q-28 0 -70 3.5t-79 3.5q-87 0 -170 -22t-149 -66t-106.5 -108t-40.5 -150q0 -81 23.5 -135t64 -87t95.5 -47t118 -14q77 0 161.5 15t168 41.5t163 63t147.5 78t120 87.5t80 92l74 -245q-87 -93 -197 -162.5t-229 -116.5t-242 -71t-239 -24q-127 0 -239.5 30 t-197 91t-133.5 154.5t-49 221.5zM668 2242q0 36 10 70t30.5 60t53 42t77.5 16q75 0 115.5 -41t40.5 -119q0 -4 -1 -19.5t-6 -36.5t-16 -44t-30.5 -42.5t-49 -32t-71.5 -12.5q-70 0 -111.5 37t-41.5 122zM1173 2242q0 36 9.5 70t30.5 60t53 42t77 16q77 0 117 -41t40 -119 q0 -4 -1 -19.5t-6 -36.5t-16 -44t-30.5 -42.5t-49 -32t-72.5 -12.5q-67 0 -109.5 37t-42.5 122z" />
<glyph unicode="&#xcc;" horiz-adv-x="930" d="M-108 -29q0 3 10.5 10t23 19.5t24.5 31t15 45.5q3 18 37.5 35t83 30.5t103 22t96.5 11.5q34 142 68 283t67 277t64.5 262.5t62 238t58.5 204.5t53 162q-40 -5 -70.5 -9t-54 -9.5t-44.5 -12t-44 -14.5t-49.5 -18.5t-61.5 -23.5l-5 -2q-3 0 -5.5 38.5t-2.5 103.5 q0 13 12 34t40 44.5t73.5 47.5t115.5 43.5t164.5 31t218.5 11.5q107 0 167 -10t90 -27t37 -39t7 -45t-5 -46t-28 -40.5t-68.5 -28.5t-123.5 -11q-36 0 -72 3q-30 -117 -52.5 -210t-41 -171.5t-33.5 -147.5t-31 -139t-33 -147t-39 -170t-52 -208t-69 -261q7 0 30 -2.5 t53.5 -8t64.5 -14t62 -21.5t46.5 -30t18.5 -40q0 -45 -78 -89h-73h-118h-147t-158 -0.5t-153 0t-130 1.5t-90 2t-34 3zM584 2607q0 32 14 59t36 46.5t50.5 30.5t56.5 11q31 0 59.5 -16.5t42.5 -52.5q50 -113 92 -210q17 -41 35.5 -83t34 -78t27.5 -65t19 -43q5 -14 7.5 -27 t2.5 -25q0 -32 -18 -52t-44 -20q-19 0 -37.5 9t-36.5 31q-14 16 -35.5 43t-48.5 60t-56.5 70t-58 74t-55 71t-47.5 62q-40 56 -40 105z" />
<glyph unicode="&#xcd;" horiz-adv-x="930" d="M-108 -29q0 3 10.5 10t23 19.5t24.5 31t15 45.5q3 18 37.5 35t83 30.5t103 22t96.5 11.5q34 142 68 283t67 277t64.5 262.5t62 238t58.5 204.5t53 162q-40 -5 -70.5 -9t-54 -9.5t-44.5 -12t-44 -14.5t-49.5 -18.5t-61.5 -23.5l-5 -2q-3 0 -5.5 38.5t-2.5 103.5 q0 13 12 34t40 44.5t73.5 47.5t115.5 43.5t164.5 31t218.5 11.5q107 0 167 -10t90 -27t37 -39t7 -45t-5 -46t-28 -40.5t-68.5 -28.5t-123.5 -11q-36 0 -72 3q-30 -117 -52.5 -210t-41 -171.5t-33.5 -147.5t-31 -139t-33 -147t-39 -170t-52 -208t-69 -261q7 0 30 -2.5 t53.5 -8t64.5 -14t62 -21.5t46.5 -30t18.5 -40q0 -45 -78 -89h-73h-118h-147t-158 -0.5t-153 0t-130 1.5t-90 2t-34 3zM944 2154q0 12 3 25t8 27q6 14 18 43t28 65t33.5 78t36.5 83q42 97 91 210q14 36 43 52.5t60 16.5q28 0 56 -11t50 -30.5t36.5 -46.5t14.5 -59 q0 -51 -40 -105q-21 -28 -47.5 -62t-55 -71t-58.5 -74t-57 -70t-49 -60t-35 -43q-18 -22 -36.5 -31t-36.5 -9q-26 0 -44.5 20t-18.5 52z" />
<glyph unicode="&#xce;" horiz-adv-x="930" d="M-108 -29q0 3 10.5 10t23 19.5t24.5 31t15 45.5q3 18 37.5 35t83 30.5t103 22t96.5 11.5q34 142 68 283t67 277t64.5 262.5t62 238t58.5 204.5t53 162q-40 -5 -70.5 -9t-54 -9.5t-44.5 -12t-44 -14.5t-49.5 -18.5t-61.5 -23.5l-5 -2q-3 0 -5.5 38.5t-2.5 103.5 q0 13 12 34t40 44.5t73.5 47.5t115.5 43.5t164.5 31t218.5 11.5q107 0 167 -10t90 -27t37 -39t7 -45t-5 -46t-28 -40.5t-68.5 -28.5t-123.5 -11q-36 0 -72 3q-30 -117 -52.5 -210t-41 -171.5t-33.5 -147.5t-31 -139t-33 -147t-39 -170t-52 -208t-69 -261q7 0 30 -2.5 t53.5 -8t64.5 -14t62 -21.5t46.5 -30t18.5 -40q0 -45 -78 -89h-73h-118h-147t-158 -0.5t-153 0t-130 1.5t-90 2t-34 3zM603 2185q2 21 12 41l198 356q32 56 58 99t52.5 72t60 44.5t81.5 15.5t79 -18t51.5 -52.5t35 -85t25.5 -114.5q10 -37 16 -59.5t11 -40t8.5 -32.5 t9 -36.5t13 -52.5t20.5 -80q3 -19 2 -37q-2 -51 -35.5 -86.5t-94.5 -35.5q-21 0 -40 6.5t-34 22.5t-25.5 43.5t-14.5 69.5q-12 111 -22.5 189t-17.5 128q-8 58 -15 94q-39 -88 -73 -167q-15 -33 -31 -68t-30 -67.5t-27 -60.5t-21 -48q-23 -51 -45.5 -79t-46 -41t-46 -15.5 t-45.5 -2.5q-12 0 -24.5 7t-22.5 20t-16.5 31t-5.5 40z" />
<glyph unicode="&#xcf;" horiz-adv-x="930" d="M-108 -29q0 3 10.5 10t23 19.5t24.5 31t15 45.5q3 18 37.5 35t83 30.5t103 22t96.5 11.5q34 142 68 283t67 277t64.5 262.5t62 238t58.5 204.5t53 162q-40 -5 -70.5 -9t-54 -9.5t-44.5 -12t-44 -14.5t-49.5 -18.5t-61.5 -23.5l-5 -2q-3 0 -5.5 38.5t-2.5 103.5 q0 13 12 34t40 44.5t73.5 47.5t115.5 43.5t164.5 31t218.5 11.5q107 0 167 -10t90 -27t37 -39t7 -45t-5 -46t-28 -40.5t-68.5 -28.5t-123.5 -11q-36 0 -72 3q-30 -117 -52.5 -210t-41 -171.5t-33.5 -147.5t-31 -139t-33 -147t-39 -170t-52 -208t-69 -261q7 0 30 -2.5 t53.5 -8t64.5 -14t62 -21.5t46.5 -30t18.5 -40q0 -45 -78 -89h-73h-118h-147t-158 -0.5t-153 0t-130 1.5t-90 2t-34 3zM627 2242q0 36 10 70t30.5 60t53 42t77.5 16q75 0 115.5 -41t40.5 -119q0 -4 -1 -19.5t-6 -36.5t-16 -44t-30.5 -42.5t-49 -32t-71.5 -12.5 q-70 0 -111.5 37t-41.5 122zM1132 2242q0 36 9.5 70t30.5 60t53 42t77 16q77 0 117 -41t40 -119q0 -4 -1 -19.5t-6 -36.5t-16 -44t-30.5 -42.5t-49 -32t-72.5 -12.5q-67 0 -109.5 37t-42.5 122z" />
<glyph unicode="&#xd0;" horiz-adv-x="1373" d="M35 961q0 13 2 31.5t13.5 36.5t34 30t64.5 12h88q39 148 90 281.5t111.5 238.5t131 173t150.5 86q21 3 46 8q21 3 49 5.5t61 2.5q112 0 203.5 -28.5t163 -79.5t124 -121.5t86.5 -154t51 -178t17 -194.5q0 -136 -30.5 -276t-87.5 -270.5t-141 -245t-192 -200 t-237.5 -134.5t-279.5 -49q-51 0 -104 7.5t-102.5 20.5t-94 29.5t-77.5 33.5q-14 4 -27 10t-22.5 14t-15.5 20t-6 30q0 84 5 176t16 189.5t26.5 198t36.5 200.5h-59q-30 0 -48 9t-28.5 24t-14 31.5t-3.5 32.5zM415 279q0 -40 2.5 -67t13 -43.5t31.5 -23.5t56 -7 q112 0 211.5 45.5t184 122.5t152 179.5t115 215t73 229.5t25.5 225q0 110 -31.5 197.5t-83.5 148t-119 92t-139 31.5q-66 0 -121.5 -45t-101.5 -121.5t-83 -176t-66 -210.5h272q14 0 30 -2.5t30 -10.5t24 -22t10 -36t-6 -46t-22.5 -44t-45.5 -33t-76 -13h-264 q-18 -94 -31.5 -183.5t-22.5 -167t-13 -138.5t-4 -96z" />
<glyph unicode="&#xd1;" horiz-adv-x="1745" d="M-45 1377q0 6 4 11q36 122 81.5 206.5t97 137t104.5 76.5t104 24q76 0 128.5 -23.5t85 -65t46.5 -100t14 -129.5t-12 -153t-32.5 -170t-46.5 -180t-53 -183l19 -6q74 220 146.5 383.5t142 280t135 190.5t127.5 116t120 58t112 16q62 0 106.5 -30t73 -77.5t41.5 -105 t13 -112.5q0 -65 -10.5 -144t-25.5 -168t-33 -183.5t-33.5 -187.5t-25.5 -183.5t-10 -170.5q0 -26 1.5 -57.5t7 -64.5t15.5 -64.5t28 -56t44.5 -40t63.5 -15.5q51 0 109 26t113.5 65.5t106 85.5t88.5 85.5t60.5 66t22.5 27.5l64 -235q-34 -46 -78.5 -92t-95 -87t-107.5 -76 t-116 -61t-119 -40.5t-119 -14.5q-75 0 -132.5 26t-99 70t-69.5 103t-44.5 125t-24 134t-7.5 131q0 85 13.5 166t33 159t43.5 152.5t43.5 145.5t33 137.5t13.5 127.5q0 16 -2.5 43t-9.5 52t-22 43.5t-41 18.5q-43 0 -89 -40.5t-94 -112t-96.5 -169t-96.5 -210.5t-95 -237.5 t-91 -250.5t-85 -248t-76 -230q-31 -59 -70 -83t-88 -24q-28 0 -54.5 12t-47 35t-32.5 57t-12 77q0 46 4.5 82.5t12.5 74.5q27 123 50.5 228t43 200t35 184t28.5 179t22.5 185t17.5 203v25t-3 28.5t-11.5 23.5t-24.5 10q-21 0 -52 -20.5t-64 -57t-67 -85t-62 -104.5 q-7 -16 -21 -23t-31 -7q-14 0 -29 9t-28 22t-21.5 27.5t-8.5 26.5zM935 2197q0 27 15 57q13 25 33.5 63.5t51.5 74.5t72 62t94 26q33 0 60.5 -9.5t63.5 -33t87 -64.5t132 -105q13 14 26 33q12 15 25.5 34.5t27.5 40.5q22 35 53.5 51.5t63.5 16.5q36 0 62.5 -20.5t26.5 -58.5 q0 -27 -15 -57q-13 -25 -33.5 -63t-51 -74.5t-71.5 -62.5t-94 -26q-34 0 -61.5 9.5t-63 33t-87 64.5t-132.5 105q-13 -16 -26 -33q-12 -16 -26 -34.5t-27 -40.5q-21 -34 -53 -51t-63 -17q-37 0 -63.5 20.5t-26.5 58.5z" />
<glyph unicode="&#xd2;" horiz-adv-x="1745" d="M104 684q0 103 15 212t45.5 218t76.5 213t107 197t137 171t167 135t196.5 88.5t226.5 31.5q162 0 290 -58t216 -163t135 -250t47 -320q0 -145 -29 -302t-84 -309t-137 -289t-189 -240.5t-238 -164.5t-285 -61q-161 0 -290 65.5t-219.5 184t-139 282t-48.5 359.5zM380 630 q0 -122 31 -227.5t88.5 -182t140.5 -120.5t187 -44q87 0 161.5 33.5t136.5 92t113.5 136.5t91 168t69.5 186t49.5 190t28.5 181t9 158q0 104 -22.5 195t-68.5 158.5t-115.5 106.5t-162.5 39q-100 0 -192.5 -48t-175 -129.5t-150.5 -189t-116.5 -226.5t-75.5 -242t-27 -235z M693 2607q0 32 14 59t36 46.5t50.5 30.5t56.5 11q31 0 59.5 -16.5t42.5 -52.5q50 -113 92 -210q17 -41 35.5 -83t34 -78t27.5 -65t19 -43q5 -14 7.5 -27t2.5 -25q0 -32 -18 -52t-44 -20q-19 0 -37.5 9t-36.5 31q-14 16 -35.5 43t-48.5 60t-56.5 70t-58 74t-55 71t-47.5 62 q-40 56 -40 105z" />
<glyph unicode="&#xd3;" horiz-adv-x="1745" d="M104 684q0 103 15 212t45.5 218t76.5 213t107 197t137 171t167 135t196.5 88.5t226.5 31.5q162 0 290 -58t216 -163t135 -250t47 -320q0 -145 -29 -302t-84 -309t-137 -289t-189 -240.5t-238 -164.5t-285 -61q-161 0 -290 65.5t-219.5 184t-139 282t-48.5 359.5zM380 630 q0 -122 31 -227.5t88.5 -182t140.5 -120.5t187 -44q87 0 161.5 33.5t136.5 92t113.5 136.5t91 168t69.5 186t49.5 190t28.5 181t9 158q0 104 -22.5 195t-68.5 158.5t-115.5 106.5t-162.5 39q-100 0 -192.5 -48t-175 -129.5t-150.5 -189t-116.5 -226.5t-75.5 -242t-27 -235z M1053 2154q0 12 3 25t8 27q6 14 18 43t28 65t33.5 78t36.5 83q42 97 91 210q14 36 43 52.5t60 16.5q28 0 56 -11t50 -30.5t36.5 -46.5t14.5 -59q0 -51 -40 -105q-21 -28 -47.5 -62t-55 -71t-58.5 -74t-57 -70t-49 -60t-35 -43q-18 -22 -36.5 -31t-36.5 -9q-26 0 -44.5 20 t-18.5 52z" />
<glyph unicode="&#xd4;" horiz-adv-x="1745" d="M104 684q0 103 15 212t45.5 218t76.5 213t107 197t137 171t167 135t196.5 88.5t226.5 31.5q162 0 290 -58t216 -163t135 -250t47 -320q0 -145 -29 -302t-84 -309t-137 -289t-189 -240.5t-238 -164.5t-285 -61q-161 0 -290 65.5t-219.5 184t-139 282t-48.5 359.5zM380 630 q0 -122 31 -227.5t88.5 -182t140.5 -120.5t187 -44q87 0 161.5 33.5t136.5 92t113.5 136.5t91 168t69.5 186t49.5 190t28.5 181t9 158q0 104 -22.5 195t-68.5 158.5t-115.5 106.5t-162.5 39q-100 0 -192.5 -48t-175 -129.5t-150.5 -189t-116.5 -226.5t-75.5 -242t-27 -235z M776 2185q2 21 12 41l198 356q32 56 58 99t52.5 72t60 44.5t81.5 15.5t79 -18t51.5 -52.5t35 -85t25.5 -114.5q10 -37 16 -59.5t11 -40t8.5 -32.5t9 -36.5t13 -52.5t20.5 -80q3 -19 2 -37q-2 -51 -35.5 -86.5t-94.5 -35.5q-21 0 -40 6.5t-34 22.5t-25.5 43.5t-14.5 69.5 q-12 111 -22.5 189t-17.5 128q-8 58 -15 94q-39 -88 -73 -167q-15 -33 -31 -68t-30 -67.5t-27 -60.5t-21 -48q-23 -51 -45.5 -79t-46 -41t-46 -15.5t-45.5 -2.5q-12 0 -24.5 7t-22.5 20t-16.5 31t-5.5 40z" />
<glyph unicode="&#xd5;" horiz-adv-x="1745" d="M104 684q0 103 15 212t45.5 218t76.5 213t107 197t137 171t167 135t196.5 88.5t226.5 31.5q162 0 290 -58t216 -163t135 -250t47 -320q0 -145 -29 -302t-84 -309t-137 -289t-189 -240.5t-238 -164.5t-285 -61q-161 0 -290 65.5t-219.5 184t-139 282t-48.5 359.5zM380 630 q0 -122 31 -227.5t88.5 -182t140.5 -120.5t187 -44q87 0 161.5 33.5t136.5 92t113.5 136.5t91 168t69.5 186t49.5 190t28.5 181t9 158q0 104 -22.5 195t-68.5 158.5t-115.5 106.5t-162.5 39q-100 0 -192.5 -48t-175 -129.5t-150.5 -189t-116.5 -226.5t-75.5 -242t-27 -235z M711 2197q0 27 15 57q13 25 33.5 63.5t51.5 74.5t72 62t94 26q33 0 60.5 -9.5t63.5 -33t87 -64.5t132 -105q13 14 26 33q12 15 25.5 34.5t27.5 40.5q22 35 53.5 51.5t63.5 16.5q36 0 62.5 -20.5t26.5 -58.5q0 -27 -15 -57q-13 -25 -33.5 -63t-51 -74.5t-71.5 -62.5t-94 -26 q-34 0 -61.5 9.5t-63 33t-87 64.5t-132.5 105q-13 -16 -26 -33q-12 -16 -26 -34.5t-27 -40.5q-21 -34 -53 -51t-63 -17q-37 0 -63.5 20.5t-26.5 58.5z" />
<glyph unicode="&#xd6;" horiz-adv-x="1745" d="M104 684q0 103 15 212t45.5 218t76.5 213t107 197t137 171t167 135t196.5 88.5t226.5 31.5q162 0 290 -58t216 -163t135 -250t47 -320q0 -145 -29 -302t-84 -309t-137 -289t-189 -240.5t-238 -164.5t-285 -61q-161 0 -290 65.5t-219.5 184t-139 282t-48.5 359.5zM380 630 q0 -122 31 -227.5t88.5 -182t140.5 -120.5t187 -44q87 0 161.5 33.5t136.5 92t113.5 136.5t91 168t69.5 186t49.5 190t28.5 181t9 158q0 104 -22.5 195t-68.5 158.5t-115.5 106.5t-162.5 39q-100 0 -192.5 -48t-175 -129.5t-150.5 -189t-116.5 -226.5t-75.5 -242t-27 -235z M736 2242q0 36 10 70t30.5 60t53 42t77.5 16q75 0 115.5 -41t40.5 -119q0 -4 -1 -19.5t-6 -36.5t-16 -44t-30.5 -42.5t-49 -32t-71.5 -12.5q-70 0 -111.5 37t-41.5 122zM1241 2242q0 36 9.5 70t30.5 60t53 42t77 16q77 0 117 -41t40 -119q0 -4 -1 -19.5t-6 -36.5t-16 -44 t-30.5 -42.5t-49 -32t-72.5 -12.5q-67 0 -109.5 37t-42.5 122z" />
<glyph unicode="&#xd7;" horiz-adv-x="1382" d="M380 274q0 25 13 53.5t41 56.5l168 169l-174 174q-22 21 -31 45t-9 48q0 21 7 40.5t19.5 34t29 23.5t36.5 9q39 0 79 -39l187 -199l181 201q20 20 40.5 29.5t39.5 9.5q20 0 37 -8.5t28.5 -24t18.5 -35t7 -39.5q0 -25 -9 -48t-31 -45l-165 -176l159 -171q28 -28 41 -56.5 t13 -53.5q0 -39 -26 -65t-65 -26q-25 0 -52 12t-55 40l-162 184l-169 -182q-28 -28 -54.5 -39.5t-51.5 -11.5q-39 0 -65 25.5t-26 64.5z" />
<glyph unicode="&#xd8;" horiz-adv-x="1632" d="M104 684q0 143 27.5 296.5t81.5 300.5t135.5 278t189 230t242 157t295.5 58q35 0 70 -3l28 100q10 34 25.5 66.5t36.5 57.5t46.5 39.5t55.5 14.5q28 0 36 -20t8 -51v-16.5t-1 -16.5q-1 -16 -8 -48.5t-15.5 -66.5t-16.5 -63t-12 -39q104 -42 185 -117t136 -178 t84.5 -230.5t29.5 -273.5q0 -145 -29 -302t-84 -309t-137 -289t-189 -240.5t-238 -164.5t-285 -61q-18 0 -36 1t-35 3l-44 -151q-14 -40 -28.5 -64t-28.5 -37t-27.5 -17t-26.5 -4q-16 0 -30 2.5t-24 13t-16 31.5t-6 57t8.5 91t30.5 128q-103 45 -183.5 124.5t-136 187.5 t-85 240.5t-29.5 284.5zM380 630q0 -90 15 -170.5t44.5 -148.5t72 -122t96.5 -91q30 107 67.5 240t79.5 281t86.5 304.5t87.5 310t83.5 297t75.5 265.5q-97 -8 -186.5 -64.5t-167.5 -146t-143.5 -205.5t-112 -243t-72.5 -258t-26 -249zM799 36q7 -1 14 -1h14 q87 0 161.5 35.5t136.5 97t113.5 144.5t91 177.5t69.5 196.5t49.5 201t28.5 191t9 166q0 88 -13 167.5t-39.5 146t-66.5 117.5t-93 81q-28 -104 -61.5 -227.5t-71 -262t-79 -289.5t-85 -308t-89 -317t-89.5 -316z" />
<glyph unicode="&#xd9;" horiz-adv-x="1513" d="M104 635q0 129 16.5 260.5t42.5 256.5t59 236.5t65 201.5q21 62 42 97t41.5 51.5t41 20.5t42.5 4q41 0 72.5 -4t53.5 -15t32.5 -31t10.5 -53v-9q-2 -13 -3 -28t-7 -33q-13 -40 -35 -107.5t-48 -154.5t-53 -187.5t-48.5 -206t-35 -209.5t-13.5 -198q0 -97 16.5 -181 t54.5 -145.5t99.5 -96.5t152.5 -35q70 0 133.5 38.5t119 108t104.5 167t90 214t74 248.5t58 273t41.5 287t24.5 288q3 56 20.5 89t44 52t59 25.5t65.5 6.5q29 0 51.5 -6.5t38.5 -23t24 -44.5t8 -72q0 -299 -35.5 -556t-100.5 -467t-155.5 -372.5t-200.5 -272.5t-236 -167.5 t-261 -57.5q-162 0 -271.5 65.5t-174.5 176.5t-92.5 257.5t-27.5 308.5zM1177 2607q0 32 14 59t36 46.5t50.5 30.5t56.5 11q31 0 59.5 -16.5t42.5 -52.5q50 -113 92 -210q17 -41 35.5 -83t34 -78t27.5 -65t19 -43q5 -14 7.5 -27t2.5 -25q0 -32 -18 -52t-44 -20 q-19 0 -37.5 9t-36.5 31q-14 16 -35.5 43t-48.5 60t-56.5 70t-58 74t-55 71t-47.5 62q-40 56 -40 105z" />
<glyph unicode="&#xda;" horiz-adv-x="1513" d="M104 635q0 129 16.5 260.5t42.5 256.5t59 236.5t65 201.5q21 62 42 97t41.5 51.5t41 20.5t42.5 4q41 0 72.5 -4t53.5 -15t32.5 -31t10.5 -53v-9q-2 -13 -3 -28t-7 -33q-13 -40 -35 -107.5t-48 -154.5t-53 -187.5t-48.5 -206t-35 -209.5t-13.5 -198q0 -97 16.5 -181 t54.5 -145.5t99.5 -96.5t152.5 -35q70 0 133.5 38.5t119 108t104.5 167t90 214t74 248.5t58 273t41.5 287t24.5 288q3 56 20.5 89t44 52t59 25.5t65.5 6.5q29 0 51.5 -6.5t38.5 -23t24 -44.5t8 -72q0 -299 -35.5 -556t-100.5 -467t-155.5 -372.5t-200.5 -272.5t-236 -167.5 t-261 -57.5q-162 0 -271.5 65.5t-174.5 176.5t-92.5 257.5t-27.5 308.5zM965 2154q0 12 3 25t8 27q6 14 18 43t28 65t33.5 78t36.5 83q42 97 91 210q14 36 43 52.5t60 16.5q28 0 56 -11t50 -30.5t36.5 -46.5t14.5 -59q0 -51 -40 -105q-21 -28 -47.5 -62t-55 -71t-58.5 -74 t-57 -70t-49 -60t-35 -43q-18 -22 -36.5 -31t-36.5 -9q-26 0 -44.5 20t-18.5 52z" />
<glyph unicode="&#xdb;" horiz-adv-x="1513" d="M104 635q0 129 16.5 260.5t42.5 256.5t59 236.5t65 201.5q21 62 42 97t41.5 51.5t41 20.5t42.5 4q41 0 72.5 -4t53.5 -15t32.5 -31t10.5 -53v-9q-2 -13 -3 -28t-7 -33q-13 -40 -35 -107.5t-48 -154.5t-53 -187.5t-48.5 -206t-35 -209.5t-13.5 -198q0 -97 16.5 -181 t54.5 -145.5t99.5 -96.5t152.5 -35q70 0 133.5 38.5t119 108t104.5 167t90 214t74 248.5t58 273t41.5 287t24.5 288q3 56 20.5 89t44 52t59 25.5t65.5 6.5q29 0 51.5 -6.5t38.5 -23t24 -44.5t8 -72q0 -299 -35.5 -556t-100.5 -467t-155.5 -372.5t-200.5 -272.5t-236 -167.5 t-261 -57.5q-162 0 -271.5 65.5t-174.5 176.5t-92.5 257.5t-27.5 308.5zM788 2185q2 21 12 41l198 356q32 56 58 99t52.5 72t60 44.5t81.5 15.5t79 -18t51.5 -52.5t35 -85t25.5 -114.5q10 -37 16 -59.5t11 -40t8.5 -32.5t9 -36.5t13 -52.5t20.5 -80q3 -19 2 -37 q-2 -51 -35.5 -86.5t-94.5 -35.5q-21 0 -40 6.5t-34 22.5t-25.5 43.5t-14.5 69.5q-12 111 -22.5 189t-17.5 128q-8 58 -15 94q-39 -88 -73 -167q-15 -33 -31 -68t-30 -67.5t-27 -60.5t-21 -48q-23 -51 -45.5 -79t-46 -41t-46 -15.5t-45.5 -2.5q-12 0 -24.5 7t-22.5 20 t-16.5 31t-5.5 40z" />
<glyph unicode="&#xdc;" horiz-adv-x="1513" d="M104 635q0 129 16.5 260.5t42.5 256.5t59 236.5t65 201.5q21 62 42 97t41.5 51.5t41 20.5t42.5 4q41 0 72.5 -4t53.5 -15t32.5 -31t10.5 -53v-9q-2 -13 -3 -28t-7 -33q-13 -40 -35 -107.5t-48 -154.5t-53 -187.5t-48.5 -206t-35 -209.5t-13.5 -198q0 -97 16.5 -181 t54.5 -145.5t99.5 -96.5t152.5 -35q70 0 133.5 38.5t119 108t104.5 167t90 214t74 248.5t58 273t41.5 287t24.5 288q3 56 20.5 89t44 52t59 25.5t65.5 6.5q29 0 51.5 -6.5t38.5 -23t24 -44.5t8 -72q0 -299 -35.5 -556t-100.5 -467t-155.5 -372.5t-200.5 -272.5t-236 -167.5 t-261 -57.5q-162 0 -271.5 65.5t-174.5 176.5t-92.5 257.5t-27.5 308.5zM740 2242q0 36 10 70t30.5 60t53 42t77.5 16q75 0 115.5 -41t40.5 -119q0 -4 -1 -19.5t-6 -36.5t-16 -44t-30.5 -42.5t-49 -32t-71.5 -12.5q-70 0 -111.5 37t-41.5 122zM1245 2242q0 36 9.5 70 t30.5 60t53 42t77 16q77 0 117 -41t40 -119q0 -4 -1 -19.5t-6 -36.5t-16 -44t-30.5 -42.5t-49 -32t-72.5 -12.5q-67 0 -109.5 37t-42.5 122z" />
<glyph unicode="&#xdd;" horiz-adv-x="1629" d="M212 106q0 16 7.5 28.5t25.5 12.5q7 0 16 -3q34 -22 66.5 -31.5t60.5 -9.5q81 0 145.5 28.5t116.5 74t93 103t101 150.5t85.5 146.5t46.5 91.5q-37 95 -77 189t-83.5 179.5t-88 159t-91.5 128t-96 85.5t-97 31q-26 0 -41.5 -6.5t-24.5 -17.5t-12 -25t-3 -28q0 -16 2 -32 t2 -28q0 -19 -9 -23t-21 -4q-22 0 -39 25.5t-29 69t-18.5 99t-6.5 115.5q0 18 9.5 37.5t31 35.5t53 26.5t77.5 10.5q123 0 225 -62.5t189.5 -169.5t163 -251.5t146.5 -307.5q64 116 123 227.5t108.5 209t89 175.5t65.5 127q14 26 51 42t81 16q22 0 44 -6.5t38.5 -20.5 t27.5 -37t11 -56q0 -45 -28 -111q-25 -57 -70 -148t-106 -203t-135.5 -239t-156.5 -256l-65 -107q-3 -10 -215 -280q-71 -90 -130 -155t-108 -107.5t-94.5 -66.5t-88.5 -34t-91 -10q-43 0 -87.5 19.5t-81 45.5t-62 51.5t-29.5 38.5q-7 8 -12 24.5t-5 33.5zM1217 2154 q0 12 3 25t8 27q6 14 18 43t28 65t33.5 78t36.5 83q42 97 91 210q14 36 43 52.5t60 16.5q28 0 56 -11t50 -30.5t36.5 -46.5t14.5 -59q0 -51 -40 -105q-21 -28 -47.5 -62t-55 -71t-58.5 -74t-57 -70t-49 -60t-35 -43q-18 -22 -36.5 -31t-36.5 -9q-26 0 -44.5 20t-18.5 52z " />
<glyph unicode="&#xde;" horiz-adv-x="1313" d="M102 494q0 211 50 386t142.5 304t222.5 208.5t289 101.5q5 48 7.5 78.5t2.5 35.5q2 35 7 85t16.5 106t30 112t46 100t66 71.5t89.5 27.5q17 0 33.5 -3.5t30 -14t22.5 -27.5t9 -44q0 -8 -0.5 -10.5t-0.5 -7.5l-76 -367l-17 -146q144 -19 251.5 -74t180 -133t108.5 -173 t36 -195q0 -83 -41 -162t-123.5 -145.5t-208.5 -114.5t-295 -69q-31 -223 -68 -377.5t-95 -250t-142.5 -137.5t-210.5 -42q-68 0 -121.5 40.5t-93 109t-68.5 157.5t-46 186.5t-25 196.5t-8 187zM391 419.5q0 -63.5 2.5 -136t8 -146t16.5 -133.5t27.5 -97.5t42.5 -37.5 q42 0 75 33.5t58 86.5t42 118.5t28 128t16 115.5t5 82q-53 23 -83 39.5t-45 31.5t-18.5 32.5t-3.5 41.5q0 19 1 38t5.5 33.5t14 24t25.5 9.5q11 0 20 -4.5t23 -12.5q15 -2 28.5 -4t24.5 -3q12 -2 22 -2q0 1 2 26t6.5 67.5t10 98.5t11 119.5t12 132t13.5 133.5 q-104 -24 -178 -91.5t-121 -164t-69 -214t-22 -242.5v-102.5zM986 678q106 11 182.5 32t127 49t74.5 61.5t24 69.5q0 51 -16.5 105.5t-57 102t-107.5 84.5t-168 54z" />
<glyph unicode="&#xdf;" horiz-adv-x="1383" d="M69 -73q2 156 9.5 317t24.5 317t45.5 303t73 276.5t106 237t144 184.5t189 120.5t240.5 43.5q121 0 213 -33.5t155 -88.5t95 -124.5t32 -140.5q0 -76 -28.5 -151t-90 -134.5t-157.5 -98t-230 -41.5q118 0 206.5 -35.5t147 -93.5t88.5 -135t30 -160q0 -84 -39 -171 t-116.5 -157t-194.5 -114.5t-272 -44.5q-62 0 -128.5 14t-134.5 39l28 197q44 -13 89 -19t90 -6q84 0 162 16.5t139.5 52.5t98 93t36.5 138q0 66 -20.5 108t-53.5 68.5t-75.5 40t-86.5 23t-86.5 17t-75.5 22t-53.5 38.5t-20.5 67q0 34 2.5 58t14 39t33.5 22t61 7 q86 0 158 20t125 57.5t83 92.5t30 123q0 45 -19.5 80t-53 58.5t-80 35t-99.5 11.5q-97 0 -171.5 -37t-131.5 -103t-97 -155t-67 -191.5t-43 -215t-24 -224.5t-10.5 -218.5t-2.5 -199.5q0 -64 -0.5 -116.5t3.5 -97.5q0 -33 -13.5 -57t-35.5 -40.5t-49 -24t-55 -7.5 q-26 0 -49.5 6.5t-42.5 18.5t-31.5 30.5t-13.5 42.5z" />
<glyph unicode="&#xe0;" d="M69 303q0 81 22.5 166.5t70.5 185t102.5 172t119 126.5t136.5 85.5t146 31.5q25 0 39 -9.5t23.5 -22t18 -24.5t21.5 -17q13 -6 26.5 -7.5t27.5 -1.5q12 0 24.5 0.5t23.5 0.5q17 0 31 -3t24.5 -14t16.5 -30.5t6 -52.5q0 -52 -10.5 -115t-23.5 -129.5t-31.5 -151 t-18.5 -143.5q0 -51 9 -79.5t40 -28.5q22 0 47 11.5t50.5 29.5t50.5 41.5t48 48.5q53 58 107 131l52 -239q-25 -35 -66.5 -81.5t-93.5 -88.5t-111.5 -71t-118.5 -29q-71 0 -118.5 45.5t-82.5 133.5q-26 -30 -63.5 -61.5t-82.5 -57t-93.5 -41.5t-97.5 -16q-52 0 -101 21 t-87 60.5t-60.5 96t-22.5 127.5zM285 1727q0 32 14 59t36 46.5t50.5 30.5t56.5 11q31 0 59.5 -16.5t42.5 -52.5q50 -113 92 -210q17 -41 35.5 -83t34 -78t27.5 -65t19 -43q5 -14 7.5 -27t2.5 -25q0 -32 -18 -52t-44 -20q-19 0 -37.5 9t-36.5 31q-14 16 -35.5 43t-48.5 60 t-56.5 70t-58 74t-55 71t-47.5 62q-40 56 -40 105zM346 350q0 -27 3.5 -52.5t13.5 -45.5t26 -32.5t41 -12.5q40 0 72.5 34.5t56 83.5t38 100.5t19.5 86.5l81 353q-45 0 -87 -22t-79 -60t-68.5 -86.5t-62 -120t-42.5 -125.5t-12 -101z" />
<glyph unicode="&#xe1;" d="M69 303q0 81 22.5 166.5t70.5 185t102.5 172t119 126.5t136.5 85.5t146 31.5q25 0 39 -9.5t23.5 -22t18 -24.5t21.5 -17q13 -6 26.5 -7.5t27.5 -1.5q12 0 24.5 0.5t23.5 0.5q17 0 31 -3t24.5 -14t16.5 -30.5t6 -52.5q0 -52 -10.5 -115t-23.5 -129.5t-31.5 -151 t-18.5 -143.5q0 -51 9 -79.5t40 -28.5q22 0 47 11.5t50.5 29.5t50.5 41.5t48 48.5q53 58 107 131l52 -239q-25 -35 -66.5 -81.5t-93.5 -88.5t-111.5 -71t-118.5 -29q-71 0 -118.5 45.5t-82.5 133.5q-26 -30 -63.5 -61.5t-82.5 -57t-93.5 -41.5t-97.5 -16q-52 0 -101 21 t-87 60.5t-60.5 96t-22.5 127.5zM346 350q0 -27 3.5 -52.5t13.5 -45.5t26 -32.5t41 -12.5q40 0 72.5 34.5t56 83.5t38 100.5t19.5 86.5l81 353q-45 0 -87 -22t-79 -60t-68.5 -86.5t-62 -120t-42.5 -125.5t-12 -101zM645 1274q0 12 3 25t8 27q6 14 18 43t28 65t33.5 78 t36.5 83q42 97 91 210q14 36 43 52.5t60 16.5q28 0 56 -11t50 -30.5t36.5 -46.5t14.5 -59q0 -51 -40 -105q-21 -28 -47.5 -62t-55 -71t-58.5 -74t-57 -70t-49 -60t-35 -43q-18 -22 -36.5 -31t-36.5 -9q-26 0 -44.5 20t-18.5 52z" />
<glyph unicode="&#xe2;" d="M69 303q0 81 22.5 166.5t70.5 185t102.5 172t119 126.5t136.5 85.5t146 31.5q25 0 39 -9.5t23.5 -22t18 -24.5t21.5 -17q13 -6 26.5 -7.5t27.5 -1.5q12 0 24.5 0.5t23.5 0.5q17 0 31 -3t24.5 -14t16.5 -30.5t6 -52.5q0 -52 -10.5 -115t-23.5 -129.5t-31.5 -151 t-18.5 -143.5q0 -51 9 -79.5t40 -28.5q22 0 47 11.5t50.5 29.5t50.5 41.5t48 48.5q53 58 107 131l52 -239q-25 -35 -66.5 -81.5t-93.5 -88.5t-111.5 -71t-118.5 -29q-71 0 -118.5 45.5t-82.5 133.5q-26 -30 -63.5 -61.5t-82.5 -57t-93.5 -41.5t-97.5 -16q-52 0 -101 21 t-87 60.5t-60.5 96t-22.5 127.5zM346 350q0 -27 3.5 -52.5t13.5 -45.5t26 -32.5t41 -12.5q40 0 72.5 34.5t56 83.5t38 100.5t19.5 86.5l81 353q-45 0 -87 -22t-79 -60t-68.5 -86.5t-62 -120t-42.5 -125.5t-12 -101zM368 1304q2 21 12 41l198 356q32 56 58 99t52.5 72 t60 44.5t81.5 15.5t79 -18t51.5 -52.5t35 -85t25.5 -114.5q10 -37 16 -59.5t11 -40t8.5 -32.5t9 -36.5t13 -52.5t20.5 -80q3 -19 2 -37q-2 -51 -35.5 -86.5t-94.5 -35.5q-21 0 -40 6.5t-34 22.5t-25.5 43.5t-14.5 69.5q-12 111 -22.5 189t-17.5 128q-8 58 -15 94 q-39 -88 -73 -167q-15 -33 -31 -68t-30 -67.5t-27 -60.5t-21 -48q-23 -51 -45.5 -79t-46 -41t-46 -15.5t-45.5 -2.5q-12 0 -24.5 7t-22.5 20t-16.5 31t-5.5 40z" />
<glyph unicode="&#xe3;" d="M69 303q0 81 22.5 166.5t70.5 185t102.5 172t119 126.5t136.5 85.5t146 31.5q25 0 39 -9.5t23.5 -22t18 -24.5t21.5 -17q13 -6 26.5 -7.5t27.5 -1.5q12 0 24.5 0.5t23.5 0.5q17 0 31 -3t24.5 -14t16.5 -30.5t6 -52.5q0 -52 -10.5 -115t-23.5 -129.5t-31.5 -151 t-18.5 -143.5q0 -51 9 -79.5t40 -28.5q22 0 47 11.5t50.5 29.5t50.5 41.5t48 48.5q53 58 107 131l52 -239q-25 -35 -66.5 -81.5t-93.5 -88.5t-111.5 -71t-118.5 -29q-71 0 -118.5 45.5t-82.5 133.5q-26 -30 -63.5 -61.5t-82.5 -57t-93.5 -41.5t-97.5 -16q-52 0 -101 21 t-87 60.5t-60.5 96t-22.5 127.5zM302 1317q0 27 15 57q13 25 33.5 63.5t51.5 74.5t72 62t94 26q33 0 60.5 -9.5t63.5 -33t87 -64.5t132 -105q13 14 26 33q12 15 25.5 34.5t27.5 40.5q22 35 53.5 51.5t63.5 16.5q36 0 62.5 -20.5t26.5 -58.5q0 -27 -15 -57q-13 -25 -33.5 -63 t-51 -74.5t-71.5 -62.5t-94 -26q-34 0 -61.5 9.5t-63 33t-87 64.5t-132.5 105q-13 -16 -26 -33q-12 -16 -26 -34.5t-27 -40.5q-21 -34 -53 -51t-63 -17q-37 0 -63.5 20.5t-26.5 58.5zM346 350q0 -27 3.5 -52.5t13.5 -45.5t26 -32.5t41 -12.5q40 0 72.5 34.5t56 83.5 t38 100.5t19.5 86.5l81 353q-45 0 -87 -22t-79 -60t-68.5 -86.5t-62 -120t-42.5 -125.5t-12 -101z" />
<glyph unicode="&#xe4;" d="M69 303q0 81 22.5 166.5t70.5 185t102.5 172t119 126.5t136.5 85.5t146 31.5q25 0 39 -9.5t23.5 -22t18 -24.5t21.5 -17q13 -6 26.5 -7.5t27.5 -1.5q12 0 24.5 0.5t23.5 0.5q17 0 31 -3t24.5 -14t16.5 -30.5t6 -52.5q0 -52 -10.5 -115t-23.5 -129.5t-31.5 -151 t-18.5 -143.5q0 -51 9 -79.5t40 -28.5q22 0 47 11.5t50.5 29.5t50.5 41.5t48 48.5q53 58 107 131l52 -239q-25 -35 -66.5 -81.5t-93.5 -88.5t-111.5 -71t-118.5 -29q-71 0 -118.5 45.5t-82.5 133.5q-26 -30 -63.5 -61.5t-82.5 -57t-93.5 -41.5t-97.5 -16q-52 0 -101 21 t-87 60.5t-60.5 96t-22.5 127.5zM328 1361q0 36 10 70t30.5 60t53 42t77.5 16q75 0 115.5 -41t40.5 -119q0 -4 -1 -19.5t-6 -36.5t-16 -44t-30.5 -42.5t-49 -32t-71.5 -12.5q-70 0 -111.5 37t-41.5 122zM346 350q0 -27 3.5 -52.5t13.5 -45.5t26 -32.5t41 -12.5 q40 0 72.5 34.5t56 83.5t38 100.5t19.5 86.5l81 353q-45 0 -87 -22t-79 -60t-68.5 -86.5t-62 -120t-42.5 -125.5t-12 -101zM833 1361q0 36 9.5 70t30.5 60t53 42t77 16q77 0 117 -41t40 -119q0 -4 -1 -19.5t-6 -36.5t-16 -44t-30.5 -42.5t-49 -32t-72.5 -12.5 q-67 0 -109.5 37t-42.5 122z" />
<glyph unicode="&#xe5;" d="M69 303q0 81 22.5 166.5t70.5 185t102.5 172t119 126.5t136.5 85.5t146 31.5q25 0 39 -9.5t23.5 -22t18 -24.5t21.5 -17q13 -6 26.5 -7.5t27.5 -1.5q12 0 24.5 0.5t23.5 0.5q17 0 31 -3t24.5 -14t16.5 -30.5t6 -52.5q0 -52 -10.5 -115t-23.5 -129.5t-31.5 -151 t-18.5 -143.5q0 -51 9 -79.5t40 -28.5q22 0 47 11.5t50.5 29.5t50.5 41.5t48 48.5q53 58 107 131l52 -239q-25 -35 -66.5 -81.5t-93.5 -88.5t-111.5 -71t-118.5 -29q-71 0 -118.5 45.5t-82.5 133.5q-26 -30 -63.5 -61.5t-82.5 -57t-93.5 -41.5t-97.5 -16q-52 0 -101 21 t-87 60.5t-60.5 96t-22.5 127.5zM346 350q0 -27 3.5 -52.5t13.5 -45.5t26 -32.5t41 -12.5q40 0 72.5 34.5t56 83.5t38 100.5t19.5 86.5l81 353q-45 0 -87 -22t-79 -60t-68.5 -86.5t-62 -120t-42.5 -125.5t-12 -101zM482 1458q0 50 16 92t44 76t64.5 60t77 43.5t82 26.5 t78.5 9q40 0 80.5 -13.5t72 -41.5t51.5 -70.5t20 -98.5q0 -86 -31.5 -150t-80 -106t-108.5 -62.5t-116 -20.5q-40 0 -84 13t-81 42.5t-61 79t-24 121.5zM627 1457q0 -22 6.5 -42t20 -35t33 -24t45.5 -9q42 0 75.5 16.5t56.5 43t35 58.5t12 62q0 41 -22.5 69.5t-71.5 28.5 q-48 0 -83.5 -15.5t-59 -40t-35.5 -54t-12 -58.5z" />
<glyph unicode="&#xe6;" horiz-adv-x="1368" d="M69 303q0 96 24 175.5t69 175.5q65 137 152 234t207 151q71 31 145 31q11 0 21.5 -2.5t15.5 -5.5t13.5 -11t10.5 -10.5t10 -14t9 -12.5q19 -26 76 -26q7 0 24 0.5t24 0.5h4q41 33 87 52q62 27 136 27q95 0 163 -43t100 -116q21 -49 21 -111q0 -51 -24.5 -110t-56 -104 t-64.5 -79q-60 -59 -141 -106t-173 -72q13 -24 23.5 -38.5t26.5 -29.5t37 -22.5t49 -7.5q118 0 277 91q133 75 231 171l139 -144q-136 -141 -302 -238q-186 -109 -362 -109q-37 0 -71 5t-63.5 14.5t-56.5 23t-49.5 30.5t-43 38t-37 43.5t-29.5 48.5q-69 -73 -136 -122.5 t-118 -66.5q-48 -16 -97 -16q-91 0 -154 50t-94 127q-23 57 -23 128zM346 350q0 -143 84 -143q71 0 128 118q46 93 58 187l81 353q-86 0 -166 -82q-57 -57 -104.5 -148t-67.5 -184q-13 -54 -13 -101zM897 508q80 0 170 71q37 29 76.5 81t39.5 91q0 42 -16.5 76.5t-45.5 34.5 q-27 0 -50 -6t-39.5 -14.5t-31.5 -26t-24 -30.5t-20 -37t-16.5 -39t-13.5 -43q-5 -10 -7 -16q-9 -27 -13.5 -49t-6.5 -42.5t-2 -50.5z" />
<glyph unicode="&#xe7;" horiz-adv-x="814" d="M69 446q0 63 21.5 150.5t47 152.5t63 124.5t86.5 104.5t109.5 71.5t132.5 26.5q62 0 114.5 -19t89.5 -52.5t58 -79.5t21 -99q0 -37 -9.5 -72.5t-37.5 -83.5t-54.5 -65t-60.5 -17q-52 0 -67 27q-25 42 -15 74q3 17 20 80q2 9 1 39q0 26 -5.5 43t-24.5 17q-44 0 -75 -21 t-53.5 -55t-44 -96t-30.5 -104t-11.5 -80.5t-2.5 -64.5q0 -39 7 -81t28.5 -77t54.5 -58.5t86 -23.5q52 0 115 32t126 80.5t120 107t98 110.5l75 -126q-81 -115 -175 -206q-40 -39 -87 -75.5t-98.5 -65t-107 -46.5t-112.5 -18q-99 0 -174.5 36.5t-126 98.5t-76.5 143t-26 168 zM235 -423q0 45 18.5 94t49.5 106.5t73.5 124.5t89.5 148q9 21 28.5 37.5t40.5 16.5t35.5 -9t14.5 -29q0 -6 -2 -16q-11 -112 -17.5 -179.5t-11 -105.5t-7 -55.5t-4.5 -28.5t-5 -24.5t-7 -45.5q-6 -40 -23.5 -70t-42 -50.5t-53.5 -31.5t-57 -11q-24 0 -45.5 7.5t-38.5 24 t-26.5 40.5t-9.5 57z" />
<glyph unicode="&#xe8;" horiz-adv-x="814" d="M97 450q0 61 23 144.5t47 148.5t61 124t86 103.5t110 71t135 26.5q61 0 113 -19.5t90 -54.5t59.5 -84.5t21.5 -111.5q0 -67 -43.5 -150t-102 -142.5t-139 -106t-174.5 -72.5q17 -29 32.5 -48.5t31.5 -30t34 -15t39 -4.5q64 0 136 26t140 65t128.5 84.5t102.5 86.5 l139 -144q-95 -99 -201 -174q-47 -33 -100.5 -64t-112.5 -55.5t-122 -39t-128 -14.5q-101 0 -177.5 36.5t-127 99t-76 144t-25.5 170.5zM178 1725q0 32 14 59t36 46.5t50.5 30.5t56.5 11q31 0 59.5 -16.5t42.5 -52.5q50 -113 92 -210q17 -41 35.5 -83t34 -78t27.5 -65 t19 -43q5 -14 7.5 -27t2.5 -25q0 -32 -18 -52t-44 -20q-19 0 -37.5 9t-36.5 31q-14 16 -35.5 43t-48.5 60t-56.5 70t-58 74t-55 71t-47.5 62q-40 56 -40 105zM360 508q39 0 84.5 20t85 51t77.5 84t38 88q0 48 -18 79.5t-44 31.5q-46 0 -79 -17.5t-55 -45t-35.5 -62.5 t-31.5 -87t-20 -85.5t-2 -56.5z" />
<glyph unicode="&#xe9;" horiz-adv-x="814" d="M97 450q0 61 23 144.5t47 148.5t61 124t86 103.5t110 71t135 26.5q61 0 113 -19.5t90 -54.5t59.5 -84.5t21.5 -111.5q0 -67 -43.5 -150t-102 -142.5t-139 -106t-174.5 -72.5q17 -29 32.5 -48.5t31.5 -30t34 -15t39 -4.5q64 0 136 26t140 65t128.5 84.5t102.5 86.5 l139 -144q-95 -99 -201 -174q-47 -33 -100.5 -64t-112.5 -55.5t-122 -39t-128 -14.5q-101 0 -177.5 36.5t-127 99t-76 144t-25.5 170.5zM360 508q39 0 84.5 20t85 51t77.5 84t38 88q0 48 -18 79.5t-44 31.5q-46 0 -79 -17.5t-55 -45t-35.5 -62.5t-31.5 -87t-20 -85.5 t-2 -56.5zM538 1272q0 12 3 25t8 27q6 14 18 43t28 65t33.5 78t36.5 83q42 97 91 210q14 36 43 52.5t60 16.5q28 0 56 -11t50 -30.5t36.5 -46.5t14.5 -59q0 -51 -40 -105q-21 -28 -47.5 -62t-55 -71t-58.5 -74t-57 -70t-49 -60t-35 -43q-18 -22 -36.5 -31t-36.5 -9 q-26 0 -44.5 20t-18.5 52z" />
<glyph unicode="&#xea;" horiz-adv-x="814" d="M97 450q0 61 23 144.5t47 148.5t61 124t86 103.5t110 71t135 26.5q61 0 113 -19.5t90 -54.5t59.5 -84.5t21.5 -111.5q0 -67 -43.5 -150t-102 -142.5t-139 -106t-174.5 -72.5q17 -29 32.5 -48.5t31.5 -30t34 -15t39 -4.5q64 0 136 26t140 65t128.5 84.5t102.5 86.5 l139 -144q-95 -99 -201 -174q-47 -33 -100.5 -64t-112.5 -55.5t-122 -39t-128 -14.5q-101 0 -177.5 36.5t-127 99t-76 144t-25.5 170.5zM261 1302q2 21 12 41l198 356q32 56 58 99t52.5 72t60 44.5t81.5 15.5t79 -18t51.5 -52.5t35 -85t25.5 -114.5q10 -37 16 -59.5t11 -40 t8.5 -32.5t9 -36.5t13 -52.5t20.5 -80q3 -19 2 -37q-2 -51 -35.5 -86.5t-94.5 -35.5q-21 0 -40 6.5t-34 22.5t-25.5 43.5t-14.5 69.5q-12 111 -22.5 189t-17.5 128q-8 58 -15 94q-39 -88 -73 -167q-15 -33 -31 -68t-30 -67.5t-27 -60.5t-21 -48q-23 -51 -45.5 -79t-46 -41 t-46 -15.5t-45.5 -2.5q-12 0 -24.5 7t-22.5 20t-16.5 31t-5.5 40zM360 508q39 0 84.5 20t85 51t77.5 84t38 88q0 48 -18 79.5t-44 31.5q-46 0 -79 -17.5t-55 -45t-35.5 -62.5t-31.5 -87t-20 -85.5t-2 -56.5z" />
<glyph unicode="&#xeb;" horiz-adv-x="814" d="M97 450q0 61 23 144.5t47 148.5t61 124t86 103.5t110 71t135 26.5q61 0 113 -19.5t90 -54.5t59.5 -84.5t21.5 -111.5q0 -67 -43.5 -150t-102 -142.5t-139 -106t-174.5 -72.5q17 -29 32.5 -48.5t31.5 -30t34 -15t39 -4.5q64 0 136 26t140 65t128.5 84.5t102.5 86.5 l139 -144q-95 -99 -201 -174q-47 -33 -100.5 -64t-112.5 -55.5t-122 -39t-128 -14.5q-101 0 -177.5 36.5t-127 99t-76 144t-25.5 170.5zM221 1359q0 36 10 70t30.5 60t53 42t77.5 16q75 0 115.5 -41t40.5 -119q0 -4 -1 -19.5t-6 -36.5t-16 -44t-30.5 -42.5t-49 -32 t-71.5 -12.5q-70 0 -111.5 37t-41.5 122zM360 508q39 0 84.5 20t85 51t77.5 84t38 88q0 48 -18 79.5t-44 31.5q-46 0 -79 -17.5t-55 -45t-35.5 -62.5t-31.5 -87t-20 -85.5t-2 -56.5zM726 1359q0 36 9.5 70t30.5 60t53 42t77 16q77 0 117 -41t40 -119q0 -4 -1 -19.5t-6 -36.5 t-16 -44t-30.5 -42.5t-49 -32t-72.5 -12.5q-67 0 -109.5 37t-42.5 122z" />
<glyph unicode="&#xec;" horiz-adv-x="579" d="M32 1717q0 32 14 59t36 46.5t50.5 30.5t56.5 11q31 0 59.5 -16.5t42.5 -52.5q50 -113 92 -210q17 -41 35.5 -83t34 -78t27.5 -65t19 -43q5 -14 7.5 -27t2.5 -25q0 -32 -18 -52t-44 -20q-19 0 -37.5 9t-36.5 31q-14 16 -35.5 43t-48.5 60t-56.5 70t-58 74t-55 71t-47.5 62 q-40 56 -40 105zM104 217q0 68 15.5 158t38 187t48 193t45.5 177q7 28 29.5 48t51.5 32.5t59.5 18.5t55.5 6q45 0 61.5 -17t16.5 -45q0 -24 -11 -68.5t-27 -101.5t-34.5 -122t-34.5 -130.5t-27 -127.5t-11 -112q0 -48 11 -77t44 -29q39 0 86.5 27t96 65.5t95 79.5t82.5 70 v-219q-39 -36 -97 -76.5t-124.5 -74.5t-136.5 -56.5t-132 -22.5q-57 0 -95 15.5t-62 43.5t-34 68.5t-10 89.5z" />
<glyph unicode="&#xed;" horiz-adv-x="579" d="M104 217q0 68 15.5 158t38 187t48 193t45.5 177q7 28 29.5 48t51.5 32.5t59.5 18.5t55.5 6q45 0 61.5 -17t16.5 -45q0 -24 -11 -68.5t-27 -101.5t-34.5 -122t-34.5 -130.5t-27 -127.5t-11 -112q0 -48 11 -77t44 -29q39 0 86.5 27t96 65.5t95 79.5t82.5 70v-219 q-39 -36 -97 -76.5t-124.5 -74.5t-136.5 -56.5t-132 -22.5q-57 0 -95 15.5t-62 43.5t-34 68.5t-10 89.5zM226 1264q0 12 3 25t8 27q6 14 18 43t28 65t33.5 78t36.5 83q42 97 91 210q14 36 43 52.5t60 16.5q28 0 56 -11t50 -30.5t36.5 -46.5t14.5 -59q0 -51 -40 -105 q-21 -28 -47.5 -62t-55 -71t-58.5 -74t-57 -70t-49 -60t-35 -43q-18 -22 -36.5 -31t-36.5 -9q-26 0 -44.5 20t-18.5 52z" />
<glyph unicode="&#xee;" horiz-adv-x="579" d="M104 217q0 68 15.5 158t38 187t48 193t45.5 177q7 28 29.5 48t51.5 32.5t59.5 18.5t55.5 6q45 0 61.5 -17t16.5 -45q0 -24 -11 -68.5t-27 -101.5t-34.5 -122t-34.5 -130.5t-27 -127.5t-11 -112q0 -48 11 -77t44 -29q39 0 86.5 27t96 65.5t95 79.5t82.5 70v-219 q-39 -36 -97 -76.5t-124.5 -74.5t-136.5 -56.5t-132 -22.5q-57 0 -95 15.5t-62 43.5t-34 68.5t-10 89.5zM107 1295q2 21 12 41l198 356q32 56 58 99t52.5 72t60 44.5t81.5 15.5t79 -18t51.5 -52.5t35 -85t25.5 -114.5q10 -37 16 -59.5t11 -40t8.5 -32.5t9 -36.5t13 -52.5 t20.5 -80q3 -19 2 -37q-2 -51 -35.5 -86.5t-94.5 -35.5q-21 0 -40 6.5t-34 22.5t-25.5 43.5t-14.5 69.5q-12 111 -22.5 189t-17.5 128q-8 58 -15 94q-39 -88 -73 -167q-15 -33 -31 -68t-30 -67.5t-27 -60.5t-21 -48q-23 -51 -45.5 -79t-46 -41t-46 -15.5t-45.5 -2.5 q-12 0 -24.5 7t-22.5 20t-16.5 31t-5.5 40z" />
<glyph unicode="&#xef;" horiz-adv-x="579" d="M73 1352q0 36 10 70t30.5 60t53 42t77.5 16q75 0 115.5 -41t40.5 -119q0 -4 -1 -19.5t-6 -36.5t-16 -44t-30.5 -42.5t-49 -32t-71.5 -12.5q-70 0 -111.5 37t-41.5 122zM104 217q0 68 15.5 158t38 187t48 193t45.5 177q7 28 29.5 48t51.5 32.5t59.5 18.5t55.5 6 q45 0 61.5 -17t16.5 -45q0 -24 -11 -68.5t-27 -101.5t-34.5 -122t-34.5 -130.5t-27 -127.5t-11 -112q0 -48 11 -77t44 -29q39 0 86.5 27t96 65.5t95 79.5t82.5 70v-219q-39 -36 -97 -76.5t-124.5 -74.5t-136.5 -56.5t-132 -22.5q-57 0 -95 15.5t-62 43.5t-34 68.5t-10 89.5z M578 1352q0 36 9.5 70t30.5 60t53 42t77 16q77 0 117 -41t40 -119q0 -4 -1 -19.5t-6 -36.5t-16 -44t-30.5 -42.5t-49 -32t-72.5 -12.5q-67 0 -109.5 37t-42.5 122z" />
<glyph unicode="&#xf0;" horiz-adv-x="1176" d="M69 449q0 73 26 147t71 143t106 129.5t130.5 105t144.5 70.5t150 26q74 0 134.5 -8.5t110.5 -23.5v7q0 78 -10 144.5t-28 123.5q-49 -20 -98 -41.5t-101 -44.5q-25 -11 -47 -11q-29 0 -49 15t-33 35t-18.5 39.5t-5.5 29.5q0 21 15 43t56 40l179 77q-62 67 -148 99 t-194 32q-17 0 -33 10.5t-27.5 28t-18.5 39t-7 43.5q0 23 8 44t27 38.5t48.5 27.5t72.5 10q86 0 161 -18.5t139.5 -53.5t119 -84t99.5 -109l178 77q12 6 26 9.5t29 3.5q14 0 29.5 -6.5t28 -20t20.5 -34t8 -48.5t-19.5 -56.5t-71.5 -51.5l-130 -56q35 -87 52 -184.5 t17 -199.5q0 -142 -22 -274t-63 -247t-100 -209.5t-133 -162t-161.5 -105t-185.5 -37.5q-84 0 -170 25.5t-155 80t-113 139.5t-44 204zM313 449q0 -48 14.5 -92t47 -77t84.5 -53t126 -20q58 0 109 52t94 135t75 186.5t52 206.5q-36 18 -84 29.5t-117 11.5t-140.5 -30 t-129 -82t-94.5 -121t-37 -146z" />
<glyph unicode="&#xf1;" d="M138 226q0 71 9 164.5t21.5 205t29 201.5t31.5 153q12 50 46 83.5t92 33.5q59 0 81.5 -35.5t22.5 -95.5q0 -16 -3.5 -43.5t-8 -60.5t-10 -68t-10.5 -80t-8 -67t-3 -29h21q7 11 21 37.5t32.5 76.5t39.5 88t39 73.5t33.5 62.5t22.5 40q35 58 79 79.5t98 21.5t86 -45.5 t32 -125.5q0 -11 -5 -39.5t-12.5 -67t-16.5 -100.5t-16.5 -110.5t-12.5 -96t-5 -87.5q0 -67 16.5 -110t52.5 -43q13 0 37 10q35 13 45 22q48 37 50 36q3 -1 72 43q87 55 207 135l-2 -242l-54 -41q-6 -5 -101 -56q-137 -73 -172 -89q-84 -37 -105 -43q-54 -17 -113 -17 t-99.5 86t-40.5 251q0 65 8.5 140t21.5 161h-17l-283 -561q-23 -46 -49 -61q-27 -16 -63 -16q-44 0 -71 19t-41.5 51t-19.5 72.5t-5 83.5zM329 1313q0 27 15 57q13 25 33.5 63.5t51.5 74.5t72 62t94 26q33 0 60.5 -9.5t63.5 -33t87 -64.5t132 -105q13 14 26 33 q12 15 25.5 34.5t27.5 40.5q22 35 53.5 51.5t63.5 16.5q36 0 62.5 -20.5t26.5 -58.5q0 -27 -15 -57q-13 -25 -33.5 -63t-51 -74.5t-71.5 -62.5t-94 -26q-34 0 -61.5 9.5t-63 33t-87 64.5t-132.5 105q-13 -16 -26 -33q-12 -16 -26 -34.5t-27 -40.5q-21 -34 -53 -51t-63 -17 q-37 0 -63.5 20.5t-26.5 58.5z" />
<glyph unicode="&#xf2;" horiz-adv-x="930" d="M69 472q0 143 35.5 246t102 179t162.5 120t216 44q103 0 192.5 -32t168 -85.5t146 -134.5t125.5 -155l-20 -152q-30 39 -79.5 84.5t-105 100.5t-109.5 93.5t-93 64.5l-9 -12q32 -63 47.5 -132.5t15.5 -157.5q0 -63 -14 -128t-40.5 -125.5t-65 -113.5t-87.5 -92 t-107.5 -61.5t-123.5 -22.5q-96 0 -163.5 41.5t-110.5 108.5t-63 151.5t-20 170.5zM204 1717q0 32 14 59t36 46.5t50.5 30.5t56.5 11q31 0 59.5 -16.5t42.5 -52.5q50 -113 92 -210q17 -41 35.5 -83t34 -78t27.5 -65t19 -43q5 -14 7.5 -27t2.5 -25q0 -32 -18 -52t-44 -20 q-19 0 -37.5 9t-36.5 31q-14 16 -35.5 43t-48.5 60t-56.5 70t-58 74t-55 71t-47.5 62q-40 56 -40 105zM311 428q0 -46 8.5 -86t27 -69.5t49 -47.5t72.5 -18q36 0 70.5 37.5t60.5 94t42 137t16 143.5q0 50 -7.5 92.5t-23 73.5t-39 49.5t-57.5 18.5q-44 0 -84 -37.5t-70 -96.5 t-47.5 -130.5t-17.5 -160.5z" />
<glyph unicode="&#xf3;" horiz-adv-x="930" d="M69 472q0 143 35.5 246t102 179t162.5 120t216 44q103 0 192.5 -32t168 -85.5t146 -134.5t125.5 -155l-20 -152q-30 39 -79.5 84.5t-105 100.5t-109.5 93.5t-93 64.5l-9 -12q32 -63 47.5 -132.5t15.5 -157.5q0 -63 -14 -128t-40.5 -125.5t-65 -113.5t-87.5 -92 t-107.5 -61.5t-123.5 -22.5q-96 0 -163.5 41.5t-110.5 108.5t-63 151.5t-20 170.5zM311 428q0 -46 8.5 -86t27 -69.5t49 -47.5t72.5 -18q36 0 70.5 37.5t60.5 94t42 137t16 143.5q0 50 -7.5 92.5t-23 73.5t-39 49.5t-57.5 18.5q-44 0 -84 -37.5t-70 -96.5t-47.5 -130.5 t-17.5 -160.5zM564 1264q0 12 3 25t8 27q6 14 18 43t28 65t33.5 78t36.5 83q42 97 91 210q14 36 43 52.5t60 16.5q28 0 56 -11t50 -30.5t36.5 -46.5t14.5 -59q0 -51 -40 -105q-21 -28 -47.5 -62t-55 -71t-58.5 -74t-57 -70t-49 -60t-35 -43q-18 -22 -36.5 -31t-36.5 -9 q-26 0 -44.5 20t-18.5 52z" />
<glyph unicode="&#xf4;" horiz-adv-x="930" d="M69 472q0 143 35.5 246t102 179t162.5 120t216 44q103 0 192.5 -32t168 -85.5t146 -134.5t125.5 -155l-20 -152q-30 39 -79.5 84.5t-105 100.5t-109.5 93.5t-93 64.5l-9 -12q32 -63 47.5 -132.5t15.5 -157.5q0 -63 -14 -128t-40.5 -125.5t-65 -113.5t-87.5 -92 t-107.5 -61.5t-123.5 -22.5q-96 0 -163.5 41.5t-110.5 108.5t-63 151.5t-20 170.5zM287 1295q2 21 12 41l198 356q32 56 58 99t52.5 72t60 44.5t81.5 15.5t79 -18t51.5 -52.5t35 -85t25.5 -114.5q10 -37 16 -59.5t11 -40t8.5 -32.5t9 -36.5t13 -52.5t20.5 -80q3 -19 2 -37 q-2 -51 -35.5 -86.5t-94.5 -35.5q-21 0 -40 6.5t-34 22.5t-25.5 43.5t-14.5 69.5q-12 111 -22.5 189t-17.5 128q-8 58 -15 94q-39 -88 -73 -167q-15 -33 -31 -68t-30 -67.5t-27 -60.5t-21 -48q-23 -51 -45.5 -79t-46 -41t-46 -15.5t-45.5 -2.5q-12 0 -24.5 7t-22.5 20 t-16.5 31t-5.5 40zM311 428q0 -46 8.5 -86t27 -69.5t49 -47.5t72.5 -18q36 0 70.5 37.5t60.5 94t42 137t16 143.5q0 50 -7.5 92.5t-23 73.5t-39 49.5t-57.5 18.5q-44 0 -84 -37.5t-70 -96.5t-47.5 -130.5t-17.5 -160.5z" />
<glyph unicode="&#xf5;" horiz-adv-x="930" d="M69 472q0 143 35.5 246t102 179t162.5 120t216 44q103 0 192.5 -32t168 -85.5t146 -134.5t125.5 -155l-20 -152q-30 39 -79.5 84.5t-105 100.5t-109.5 93.5t-93 64.5l-9 -12q32 -63 47.5 -132.5t15.5 -157.5q0 -63 -14 -128t-40.5 -125.5t-65 -113.5t-87.5 -92 t-107.5 -61.5t-123.5 -22.5q-96 0 -163.5 41.5t-110.5 108.5t-63 151.5t-20 170.5zM221 1307q0 27 15 57q13 25 33.5 63.5t51.5 74.5t72 62t94 26q33 0 60.5 -9.5t63.5 -33t87 -64.5t132 -105q13 14 26 33q12 15 25.5 34.5t27.5 40.5q22 35 53.5 51.5t63.5 16.5 q36 0 62.5 -20.5t26.5 -58.5q0 -27 -15 -57q-13 -25 -33.5 -63t-51 -74.5t-71.5 -62.5t-94 -26q-34 0 -61.5 9.5t-63 33t-87 64.5t-132.5 105q-13 -16 -26 -33q-12 -16 -26 -34.5t-27 -40.5q-21 -34 -53 -51t-63 -17q-37 0 -63.5 20.5t-26.5 58.5zM311 428q0 -46 8.5 -86 t27 -69.5t49 -47.5t72.5 -18q36 0 70.5 37.5t60.5 94t42 137t16 143.5q0 50 -7.5 92.5t-23 73.5t-39 49.5t-57.5 18.5q-44 0 -84 -37.5t-70 -96.5t-47.5 -130.5t-17.5 -160.5z" />
<glyph unicode="&#xf6;" horiz-adv-x="930" d="M69 472q0 143 35.5 246t102 179t162.5 120t216 44q103 0 192.5 -32t168 -85.5t146 -134.5t125.5 -155l-20 -152q-30 39 -79.5 84.5t-105 100.5t-109.5 93.5t-93 64.5l-9 -12q32 -63 47.5 -132.5t15.5 -157.5q0 -63 -14 -128t-40.5 -125.5t-65 -113.5t-87.5 -92 t-107.5 -61.5t-123.5 -22.5q-96 0 -163.5 41.5t-110.5 108.5t-63 151.5t-20 170.5zM247 1352q0 36 10 70t30.5 60t53 42t77.5 16q75 0 115.5 -41t40.5 -119q0 -4 -1 -19.5t-6 -36.5t-16 -44t-30.5 -42.5t-49 -32t-71.5 -12.5q-70 0 -111.5 37t-41.5 122zM311 428 q0 -46 8.5 -86t27 -69.5t49 -47.5t72.5 -18q36 0 70.5 37.5t60.5 94t42 137t16 143.5q0 50 -7.5 92.5t-23 73.5t-39 49.5t-57.5 18.5q-44 0 -84 -37.5t-70 -96.5t-47.5 -130.5t-17.5 -160.5zM752 1352q0 36 9.5 70t30.5 60t53 42t77 16q77 0 117 -41t40 -119q0 -4 -1 -19.5 t-6 -36.5t-16 -44t-30.5 -42.5t-49 -32t-72.5 -12.5q-67 0 -109.5 37t-42.5 122z" />
<glyph unicode="&#xf7;" horiz-adv-x="1107" d="M102 686q0 20 10 40t28.5 35.5t46.5 25t65 9.5h646q54 0 78.5 -24.5t24.5 -58.5q0 -38 -11 -62t-28 -38t-37 -19t-40 -5h-650q-33 0 -58 8t-41.5 21.5t-25 31.5t-8.5 36zM340 306q0 39 11 76t35 66.5t61.5 46.5t89.5 17q90 0 136.5 -45t46.5 -130q0 -4 -1 -21.5t-7 -40 t-18.5 -48t-35 -47t-57.5 -35.5t-84 -14q-40 0 -72.5 10.5t-55.5 31.5t-36 54t-13 79zM404 1032q0 39 11.5 76t35.5 66t61.5 46.5t89.5 17.5q90 0 136.5 -45.5t46.5 -129.5q0 -4 -1.5 -21.5t-7 -40t-18 -48t-35.5 -47t-57.5 -35.5t-83.5 -14q-40 0 -72.5 10t-56 31t-36.5 54 t-13 80z" />
<glyph unicode="&#xf8;" horiz-adv-x="942" d="M69 472q0 114 33.5 214.5t96 176.5t153 121.5t203.5 51.5q12 44 24.5 93t31 90t46 67.5t71.5 26.5q12 0 18.5 -7.5t9.5 -19t3.5 -25t0.5 -24.5q0 -7 -2.5 -20.5t-7 -29.5t-8.5 -33t-8 -28l-29 -102q80 -16 152 -53t135 -86t119 -108.5t106 -122.5l-20 -152 q-30 39 -79.5 84.5t-105 88.5t-109.5 81.5t-93 64.5l-9 -12q32 -63 47.5 -132.5t15.5 -133.5q0 -63 -14 -128t-40.5 -125.5t-65 -113.5t-87.5 -92t-107.5 -61.5t-123.5 -22.5l-37 -117q-10 -26 -21.5 -41.5t-22.5 -23.5t-22 -10t-22 -2q-10 0 -21 1.5t-19 9t-13.5 21.5 t-5.5 39q0 27 7 63.5t25 95.5q-54 28 -92.5 75t-63.5 105t-37 123.5t-12 132.5zM279 428q0 -52 13.5 -96.5t43.5 -75.5l160 568q-46 -13 -85 -53.5t-68.5 -96.5t-46.5 -121t-17 -125zM486 210q40 7 77 46.5t65 94.5t44.5 120t16.5 124q0 56 -12 103t-37 79 q-32 -124 -70.5 -266.5t-83.5 -300.5z" />
<glyph unicode="&#xf9;" d="M98 238q1 141 21 217q32 110 60 328q2 16 8 43.5t16.5 60t25.5 66t35.5 60.5t48 44.5t62.5 18.5q57 -2 82 -14.5t25 -31.5q-10 -57 -21.5 -127t-23 -141.5t-28.5 -159t-25.5 -140.5t-13.5 -85t-5 -34q0 -19 4 -37t11.5 -32t19 -22.5t28.5 -8.5q23 0 48 12.5t47 36.5 q22 21 40 56q17 33 26 78l118 588q6 26 44 44t87 18q55 0 87.5 -19.5t32.5 -49.5t-6.5 -80t-17 -110t-28 -143.5t-28 -138.5t-17 -97t-6.5 -58q0 -30 1.5 -55.5t6.5 -44.5t16.5 -29t33.5 -10q23 0 57 12t72.5 32t78.5 45t76 53t66 56t48 51q0 -35 0.5 -64.5t0.5 -56 t0.5 -54.5t0.5 -62q-23 -24 -58.5 -51t-78 -54t-90.5 -52t-96.5 -44t-96 -30t-88.5 -11t-70.5 16t-50.5 45.5t-35.5 70t-25.5 89.5q-39 -51 -82 -93.5t-88 -74t-91 -49t-89 -17.5q-35 0 -66.5 12t-56 40t-38.5 74t-14 114zM226 1732q0 32 14 59t36 46.5t50.5 30.5t56.5 11 q31 0 59.5 -16.5t42.5 -52.5q50 -113 92 -210q17 -41 35.5 -83t34 -78t27.5 -65t19 -43q5 -14 7.5 -27t2.5 -25q0 -32 -18 -52t-44 -20q-19 0 -37.5 9t-36.5 31q-14 16 -35.5 43t-48.5 60t-56.5 70t-58 74t-55 71t-47.5 62q-40 56 -40 105z" />
<glyph unicode="&#xfa;" d="M98 238q1 141 21 217q32 110 60 328q2 16 8 43.5t16.5 60t25.5 66t35.5 60.5t48 44.5t62.5 18.5q57 -2 82 -14.5t25 -31.5q-10 -57 -21.5 -127t-23 -141.5t-28.5 -159t-25.5 -140.5t-13.5 -85t-5 -34q0 -19 4 -37t11.5 -32t19 -22.5t28.5 -8.5q23 0 48 12.5t47 36.5 q22 21 40 56q17 33 26 78l118 588q6 26 44 44t87 18q55 0 87.5 -19.5t32.5 -49.5t-6.5 -80t-17 -110t-28 -143.5t-28 -138.5t-17 -97t-6.5 -58q0 -30 1.5 -55.5t6.5 -44.5t16.5 -29t33.5 -10q23 0 57 12t72.5 32t78.5 45t76 53t66 56t48 51q0 -35 0.5 -64.5t0.5 -56 t0.5 -54.5t0.5 -62q-23 -24 -58.5 -51t-78 -54t-90.5 -52t-96.5 -44t-96 -30t-88.5 -11t-70.5 16t-50.5 45.5t-35.5 70t-25.5 89.5q-39 -51 -82 -93.5t-88 -74t-91 -49t-89 -17.5q-35 0 -66.5 12t-56 40t-38.5 74t-14 114zM584 1279q0 12 3 25t8 27q6 14 18 43t28 65 t33.5 78t36.5 83q42 97 91 210q14 36 43 52.5t60 16.5q28 0 56 -11t50 -30.5t36.5 -46.5t14.5 -59q0 -51 -40 -105q-21 -28 -47.5 -62t-55 -71t-58.5 -74t-57 -70t-49 -60t-35 -43q-18 -22 -36.5 -31t-36.5 -9q-26 0 -44.5 20t-18.5 52z" />
<glyph unicode="&#xfb;" d="M98 238q1 141 21 217q32 110 60 328q2 16 8 43.5t16.5 60t25.5 66t35.5 60.5t48 44.5t62.5 18.5q57 -2 82 -14.5t25 -31.5q-10 -57 -21.5 -127t-23 -141.5t-28.5 -159t-25.5 -140.5t-13.5 -85t-5 -34q0 -19 4 -37t11.5 -32t19 -22.5t28.5 -8.5q23 0 48 12.5t47 36.5 q22 21 40 56q17 33 26 78l118 588q6 26 44 44t87 18q55 0 87.5 -19.5t32.5 -49.5t-6.5 -80t-17 -110t-28 -143.5t-28 -138.5t-17 -97t-6.5 -58q0 -30 1.5 -55.5t6.5 -44.5t16.5 -29t33.5 -10q23 0 57 12t72.5 32t78.5 45t76 53t66 56t48 51q0 -35 0.5 -64.5t0.5 -56 t0.5 -54.5t0.5 -62q-23 -24 -58.5 -51t-78 -54t-90.5 -52t-96.5 -44t-96 -30t-88.5 -11t-70.5 16t-50.5 45.5t-35.5 70t-25.5 89.5q-39 -51 -82 -93.5t-88 -74t-91 -49t-89 -17.5q-35 0 -66.5 12t-56 40t-38.5 74t-14 114zM308 1310q2 21 12 41l198 356q32 56 58 99t52.5 72 t60 44.5t81.5 15.5t79 -18t51.5 -52.5t35 -85t25.5 -114.5q10 -37 16 -59.5t11 -40t8.5 -32.5t9 -36.5t13 -52.5t20.5 -80q3 -19 2 -37q-2 -51 -35.5 -86.5t-94.5 -35.5q-21 0 -40 6.5t-34 22.5t-25.5 43.5t-14.5 69.5q-12 111 -22.5 189t-17.5 128q-8 58 -15 94 q-39 -88 -73 -167q-15 -33 -31 -68t-30 -67.5t-27 -60.5t-21 -48q-23 -51 -45.5 -79t-46 -41t-46 -15.5t-45.5 -2.5q-12 0 -24.5 7t-22.5 20t-16.5 31t-5.5 40z" />
<glyph unicode="&#xfc;" d="M98 238q1 141 21 217q32 110 60 328q2 16 8 43.5t16.5 60t25.5 66t35.5 60.5t48 44.5t62.5 18.5q57 -2 82 -14.5t25 -31.5q-10 -57 -21.5 -127t-23 -141.5t-28.5 -159t-25.5 -140.5t-13.5 -85t-5 -34q0 -19 4 -37t11.5 -32t19 -22.5t28.5 -8.5q23 0 48 12.5t47 36.5 q22 21 40 56q17 33 26 78l118 588q6 26 44 44t87 18q55 0 87.5 -19.5t32.5 -49.5t-6.5 -80t-17 -110t-28 -143.5t-28 -138.5t-17 -97t-6.5 -58q0 -30 1.5 -55.5t6.5 -44.5t16.5 -29t33.5 -10q23 0 57 12t72.5 32t78.5 45t76 53t66 56t48 51q0 -35 0.5 -64.5t0.5 -56 t0.5 -54.5t0.5 -62q-23 -24 -58.5 -51t-78 -54t-90.5 -52t-96.5 -44t-96 -30t-88.5 -11t-70.5 16t-50.5 45.5t-35.5 70t-25.5 89.5q-39 -51 -82 -93.5t-88 -74t-91 -49t-89 -17.5q-35 0 -66.5 12t-56 40t-38.5 74t-14 114zM268 1367q0 36 10 70t30.5 60t53 42t77.5 16 q75 0 115.5 -41t40.5 -119q0 -4 -1 -19.5t-6 -36.5t-16 -44t-30.5 -42.5t-49 -32t-71.5 -12.5q-70 0 -111.5 37t-41.5 122zM773 1367q0 36 9.5 70t30.5 60t53 42t77 16q77 0 117 -41t40 -119q0 -4 -1 -19.5t-6 -36.5t-16 -44t-30.5 -42.5t-49 -32t-72.5 -12.5 q-67 0 -109.5 37t-42.5 122z" />
<glyph unicode="&#xfd;" d="M69 303q0 94 9 173t32 193.5t49 181t59 134.5q25 49 71.5 74t90.5 25q38 0 65 -18.5t27 -58.5q0 -12 -2.5 -26t-9.5 -31q-19 -49 -38 -116.5t-39 -181.5t-28.5 -182t-8.5 -120q0 -27 3.5 -52.5t13.5 -45.5t26 -32.5t41 -12.5q40 0 72.5 34.5t56 83.5t38 100.5t19.5 86.5 l86 404q8 35 30 65q22 28 51 48t60.5 29.5t59.5 9.5q33 0 56 -14.5t23 -45.5q0 -10 -4 -23q-6 -28 -15.5 -76.5t-21 -110t-29 -173.5t-27.5 -180q-27 -160 -56 -343q33 18 70.5 45t84 72.5t104 114t128.5 170.5l52 -239q-20 -34 -50 -68q-32 -37 -69 -72q-54 -49 -78 -67 q-7 -5 -78 -62q-22 -19 -143 -100q-29 -19 -40 -70.5t-25 -190.5q-4 -40 -5 -62q-6 -50 -13.5 -97t-22.5 -107t-35.5 -110.5t-54 -100t-74 -84.5t-97.5 -56.5t-126 -21.5q-55 0 -102 12t-85.5 38t-63.5 71t-29 105q-9 115 62 242q40 72 56.5 99.5t50.5 79.5q35 50 73 91 q75 86 124 137.5t118 111.5l23 130q-58 -51 -121 -83t-123 -32q-52 0 -101 21t-87 60.5t-60.5 96t-22.5 127.5zM298 -693q-36 -104 36 -104q26 0 46.5 6.5t37.5 23t30 36.5t27.5 56.5t26 71.5t28.5 93q10 32 16 69.5t11 92t7 69.5q-76 -54 -149.5 -172.5t-116.5 -241.5z M592 1288q0 12 3 25t8 27q6 14 18 43t28 65t33.5 78t36.5 83q42 97 91 210q14 36 43 52.5t60 16.5q28 0 56 -11t50 -30.5t36.5 -46.5t14.5 -59q0 -51 -40 -105q-21 -28 -47.5 -62t-55 -71t-58.5 -74t-57 -70t-49 -60t-35 -43q-18 -22 -36.5 -31t-36.5 -9q-26 0 -44.5 20 t-18.5 52z" />
<glyph unicode="&#xfe;" horiz-adv-x="1104" d="M-71 -608q0 13 1 28t3 31q17 127 31 221.5t25.5 170t21.5 138.5t20.5 126.5t22.5 133t28 159t36 204.5t47 270l6 29q6 30 16.5 81t25 119.5t30.5 148t33.5 165.5t34.5 173q11 54 35 75t50 21q17 0 40 -7.5t48 -20t49.5 -28.5t44 -34.5t32 -38t12.5 -36.5q0 -5 -14.5 -9.5 t-32.5 -9t-33.5 -9t-16.5 -7.5l-103 -617q87 76 157.5 122t139.5 46q64 0 113.5 -28t84 -74.5t53 -107t18.5 -126.5q0 -55 -4 -104t-15.5 -96t-31.5 -93.5t-52 -96.5q38 23 78 44.5t80.5 47.5t81.5 57.5t85 75.5l83 -179q-60 -54 -118.5 -93.5t-121 -69.5t-130 -51.5 t-142.5 -38.5q-19 -19 -50.5 -37t-63.5 -34q-35 -17 -76 -33h-27q-70 0 -140.5 15.5t-134.5 38.5l-133 -718q-7 -28 -18 -45t-24.5 -25.5t-28 -11t-28.5 -2.5q-9 0 -18 0.5t-17 0.5q-21 0 -38 11t-29 30t-19 44.5t-7 53.5zM332 243q35 -11 71 -18q31 -7 65.5 -12.5 t66.5 -5.5q36 0 66.5 22t54 58t41 82.5t28 96.5t16 99.5t5.5 90.5q0 27 -6 51t-21.5 42.5t-43 30t-69.5 11.5q-38 0 -76 -16t-70 -49t-57 -84t-37 -124q-10 -58 -16.5 -107t-10.5 -87q-4 -43 -7 -81z" />
<glyph unicode="&#xff;" d="M69 303q0 94 9 173t32 193.5t49 181t59 134.5q25 49 71.5 74t90.5 25q38 0 65 -18.5t27 -58.5q0 -12 -2.5 -26t-9.5 -31q-19 -49 -38 -116.5t-39 -181.5t-28.5 -182t-8.5 -120q0 -27 3.5 -52.5t13.5 -45.5t26 -32.5t41 -12.5q40 0 72.5 34.5t56 83.5t38 100.5t19.5 86.5 l86 404q8 35 30 65q22 28 51 48t60.5 29.5t59.5 9.5q33 0 56 -14.5t23 -45.5q0 -10 -4 -23q-6 -28 -15.5 -76.5t-21 -110t-29 -173.5t-27.5 -180q-27 -160 -56 -343q33 18 70.5 45t84 72.5t104 114t128.5 170.5l52 -239q-20 -34 -50 -68q-32 -37 -69 -72q-54 -49 -78 -67 q-7 -5 -78 -62q-22 -19 -143 -100q-29 -19 -40 -70.5t-25 -190.5q-4 -40 -5 -62q-6 -50 -13.5 -97t-22.5 -107t-35.5 -110.5t-54 -100t-74 -84.5t-97.5 -56.5t-126 -21.5q-55 0 -102 12t-85.5 38t-63.5 71t-29 105q-9 115 62 242q40 72 56.5 99.5t50.5 79.5q35 50 73 91 q75 86 124 137.5t118 111.5l23 130q-58 -51 -121 -83t-123 -32q-52 0 -101 21t-87 60.5t-60.5 96t-22.5 127.5zM167 1376q0 36 10 70t30.5 60t53 42t77.5 16q75 0 115.5 -41t40.5 -119q0 -4 -1 -19.5t-6 -36.5t-16 -44t-30.5 -42.5t-49 -32t-71.5 -12.5q-70 0 -111.5 37 t-41.5 122zM298 -693q-36 -104 36 -104q26 0 46.5 6.5t37.5 23t30 36.5t27.5 56.5t26 71.5t28.5 93q10 32 16 69.5t11 92t7 69.5q-76 -54 -149.5 -172.5t-116.5 -241.5zM672 1376q0 36 9.5 70t30.5 60t53 42t77 16q77 0 117 -41t40 -119q0 -4 -1 -19.5t-6 -36.5t-16 -44 t-30.5 -42.5t-49 -32t-72.5 -12.5q-67 0 -109.5 37t-42.5 122z" />
<glyph unicode="&#x152;" horiz-adv-x="2490" d="M104 684q0 143 27.5 296.5t81.5 300.5t135.5 278t189 230t242 157t295.5 58q90 0 178.5 -24.5t165.5 -70t139 -109t101 -141.5q95 132 219 192.5t266 60.5q143 0 292.5 -57t293.5 -162l-103 -207q-48 48 -104 84.5t-117 61.5t-124 37.5t-124 12.5q-71 0 -136.5 -18 t-118.5 -55t-89.5 -93.5t-50.5 -133.5l-70 -380h553q20 0 35 -8.5t26.5 -22.5t17.5 -32t6 -36q0 -21 -7.5 -40.5t-24 -34.5t-42 -24t-60.5 -9h-538q-22 -88 -39 -163q-8 -33 -14.5 -65t-11.5 -61t-8.5 -51t-3.5 -34q0 -81 23.5 -135t64 -87t95.5 -47t119 -14q76 0 160.5 15 t168 41.5t163 63t147.5 78t120 87.5t80 92l74 -245q-87 -93 -197 -162.5t-229 -116.5t-242 -71t-239 -24q-79 0 -153.5 13t-140.5 39t-120.5 65t-93.5 91q-38 -65 -101 -122t-140 -99t-164 -66t-176 -24q-161 0 -290 65.5t-219.5 184t-139 282t-48.5 359.5zM380 630 q0 -128 31 -236.5t88.5 -188.5t140.5 -125t187 -45q73 0 137.5 26t121.5 72t105 109.5t88 137.5l207 1002q-11 94 -39.5 171t-75 131t-110 83.5t-144.5 29.5q-100 0 -192.5 -52.5t-175 -141.5t-150.5 -206.5t-116.5 -247t-75.5 -263.5t-27 -256z" />
<glyph unicode="&#x153;" horiz-adv-x="1405" d="M69 472q0 68 18 136t49.5 130.5t74.5 116.5t93 94t105 63t110 23q76 0 147.5 -47.5t128.5 -158.5q102 207 298 207q60 0 112 -19.5t90.5 -54.5t60 -85t21.5 -111q0 -67 -33 -134t-91.5 -126.5t-138.5 -106t-174 -72.5q16 -29 31.5 -48.5t32 -30t34 -15t38.5 -4.5 q64 0 136 26t140 65t128.5 84.5t102.5 86.5l140 -144q-95 -99 -202 -174q-47 -33 -100.5 -64t-112 -55.5t-122 -39t-128.5 -14.5q-56 0 -104.5 18.5t-87.5 51t-66 76.5t-40 96q-26 -52 -63.5 -96t-82 -76.5t-93 -51t-95.5 -18.5q-96 0 -163.5 41.5t-110.5 108.5t-63 151.5 t-20 170.5zM311 428q0 -46 8.5 -86t27 -69.5t49 -47.5t72.5 -18q36 0 70.5 37.5t60.5 94t42 125t16 131.5q0 50 -7.5 92.5t-23 74t-39 49.5t-57.5 18q-44 0 -84 -37.5t-70 -96.5t-47.5 -130t-17.5 -137zM915 508q39 0 84.5 20t85 51t66.5 68t27 71q0 49 -17.5 80t-43.5 31 q-47 0 -80 -17t-55 -44.5t-35.5 -62.5t-20.5 -71t-9 -69.5t-2 -56.5z" />
<glyph unicode="&#x178;" horiz-adv-x="1629" d="M212 106q0 16 7.5 28.5t25.5 12.5q7 0 16 -3q34 -22 66.5 -31.5t60.5 -9.5q81 0 145.5 28.5t116.5 74t93 103t101 150.5t85.5 146.5t46.5 91.5q-37 95 -77 189t-83.5 179.5t-88 159t-91.5 128t-96 85.5t-97 31q-26 0 -41.5 -6.5t-24.5 -17.5t-12 -25t-3 -28q0 -16 2 -32 t2 -28q0 -19 -9 -23t-21 -4q-22 0 -39 25.5t-29 69t-18.5 99t-6.5 115.5q0 18 9.5 37.5t31 35.5t53 26.5t77.5 10.5q123 0 225 -62.5t189.5 -169.5t163 -251.5t146.5 -307.5q64 116 123 227.5t108.5 209t89 175.5t65.5 127q14 26 51 42t81 16q22 0 44 -6.5t38.5 -20.5 t27.5 -37t11 -56q0 -45 -28 -111q-25 -57 -70 -148t-106 -203t-135.5 -239t-156.5 -256l-65 -107q-3 -10 -215 -280q-71 -90 -130 -155t-108 -107.5t-94.5 -66.5t-88.5 -34t-91 -10q-43 0 -87.5 19.5t-81 45.5t-62 51.5t-29.5 38.5q-7 8 -12 24.5t-5 33.5zM861 2242 q0 36 10 70t30.5 60t53 42t77.5 16q75 0 115.5 -41t40.5 -119q0 -4 -1 -19.5t-6 -36.5t-16 -44t-30.5 -42.5t-49 -32t-71.5 -12.5q-70 0 -111.5 37t-41.5 122zM1366 2242q0 36 9.5 70t30.5 60t53 42t77 16q77 0 117 -41t40 -119q0 -4 -1 -19.5t-6 -36.5t-16 -44t-30.5 -42.5 t-49 -32t-72.5 -12.5q-67 0 -109.5 37t-42.5 122z" />
<glyph unicode="&#x2c6;" horiz-adv-x="933" d="M122 1204q2 21 12 41l198 356q32 56 58 99t52.5 72t60 44.5t81.5 15.5t79 -18t51.5 -52.5t35 -85t25.5 -114.5q10 -37 16 -59.5t11 -40t8.5 -32.5t9 -36.5t13 -52.5t20.5 -80q3 -19 2 -37q-2 -51 -35.5 -86.5t-94.5 -35.5q-21 0 -40 6.5t-34 22.5t-25.5 43.5t-14.5 69.5 q-12 111 -22.5 189t-17.5 128q-8 58 -15 94q-39 -88 -73 -167q-15 -33 -31 -68t-30 -67.5t-27 -60.5t-21 -48q-23 -51 -45.5 -79t-46 -41t-46 -15.5t-45.5 -2.5q-12 0 -24.5 7t-22.5 20t-16.5 31t-5.5 40z" />
<glyph unicode="&#x2dc;" horiz-adv-x="1036" d="M69 1254q0 27 15 57q13 25 33.5 63.5t51.5 74.5t72 62t94 26q33 0 60.5 -9.5t63.5 -33t87 -64.5t132 -105q13 14 26 33q12 15 25.5 34.5t27.5 40.5q22 35 53.5 51.5t63.5 16.5q36 0 62.5 -20.5t26.5 -58.5q0 -27 -15 -57q-13 -25 -33.5 -63t-51 -74.5t-71.5 -62.5 t-94 -26q-34 0 -61.5 9.5t-63 33t-87 64.5t-132.5 105q-13 -16 -26 -33q-12 -16 -26 -34.5t-27 -40.5q-21 -34 -53 -51t-63 -17q-37 0 -63.5 20.5t-26.5 58.5z" />
<glyph unicode="&#x2000;" horiz-adv-x="1406" />
<glyph unicode="&#x2001;" horiz-adv-x="2813" />
<glyph unicode="&#x2002;" horiz-adv-x="1406" />
<glyph unicode="&#x2003;" horiz-adv-x="2813" />
<glyph unicode="&#x2004;" horiz-adv-x="937" />
<glyph unicode="&#x2005;" horiz-adv-x="703" />
<glyph unicode="&#x2006;" horiz-adv-x="468" />
<glyph unicode="&#x2007;" horiz-adv-x="468" />
<glyph unicode="&#x2008;" horiz-adv-x="351" />
<glyph unicode="&#x2009;" horiz-adv-x="562" />
<glyph unicode="&#x200a;" horiz-adv-x="156" />
<glyph unicode="&#x2010;" horiz-adv-x="829" d="M68 671q0 14 3.5 29.5t14 29t31.5 22t56 8.5h484q14 0 32 -3t33.5 -12.5t26 -25t10.5 -41.5q0 -21 -4.5 -43.5t-19.5 -40t-42 -29.5t-72 -12h-448q-35 0 -55.5 12.5t-31.5 30t-14.5 38t-3.5 37.5z" />
<glyph unicode="&#x2011;" horiz-adv-x="829" d="M68 671q0 14 3.5 29.5t14 29t31.5 22t56 8.5h484q14 0 32 -3t33.5 -12.5t26 -25t10.5 -41.5q0 -21 -4.5 -43.5t-19.5 -40t-42 -29.5t-72 -12h-448q-35 0 -55.5 12.5t-31.5 30t-14.5 38t-3.5 37.5z" />
<glyph unicode="&#x2012;" horiz-adv-x="829" d="M68 671q0 14 3.5 29.5t14 29t31.5 22t56 8.5h484q14 0 32 -3t33.5 -12.5t26 -25t10.5 -41.5q0 -21 -4.5 -43.5t-19.5 -40t-42 -29.5t-72 -12h-448q-35 0 -55.5 12.5t-31.5 30t-14.5 38t-3.5 37.5z" />
<glyph unicode="&#x2013;" horiz-adv-x="1070" d="M70 531q0 41 10.5 66t28 38t42 17.5t51.5 4.5h670q40 0 65 -8.5t39.5 -22t20 -30.5t5.5 -37q0 -30 -7 -56.5t-22.5 -46t-41.5 -30.5t-64 -11h-695q-19 0 -36.5 6.5t-32 20.5t-24 36t-9.5 53z" />
<glyph unicode="&#x2014;" horiz-adv-x="1209" d="M68 531q0 41 10.5 66t28 38t42 17.5t51.5 4.5h810q40 0 65.5 -8.5t40 -22t19.5 -30.5t5 -37q0 -30 -7 -56.5t-22.5 -46t-41.5 -30.5t-64 -11h-835q-19 0 -36.5 6.5t-32.5 20.5t-24 36t-9 53z" />
<glyph unicode="&#x2018;" horiz-adv-x="760" d="M173 1396q0 13 2 26.5t6 29.5q14 51 32.5 113.5t37.5 124t37 117t32 94.5q18 52 52 77t69 25q34 0 60 -26.5t26 -78.5q0 -20 -1.5 -51.5t-4 -68.5t-5.5 -78.5t-6 -81.5q-8 -94 -18 -201q0 -32 -16 -58t-42 -44t-58.5 -27t-64.5 -9q-27 0 -52 7t-44.5 21t-30.5 36t-11 53z " />
<glyph unicode="&#x2019;" horiz-adv-x="691" d="M173 1386q0 19 1.5 50t3.5 68t5.5 78.5t6.5 81.5q8 94 17 202q0 33 16.5 58t42.5 43t58 27.5t65 9.5q27 0 51.5 -7t44 -21t31 -36.5t11.5 -52.5q0 -13 -2 -26.5t-7 -28.5q-15 -52 -32.5 -114t-36.5 -123.5t-37 -117.5t-32 -95q-18 -51 -52 -76.5t-69 -25.5 q-34 0 -60 26.5t-26 79.5z" />
<glyph unicode="&#x201a;" horiz-adv-x="657" d="M310 -118q0 18 6 40q4 14 9 36.5t12.5 48t15.5 54.5t15 57q19 65 39 138q7 23 21.5 40t34.5 28.5t43.5 17t48.5 5.5q30 0 60.5 -8.5t54.5 -24.5t39.5 -39t15.5 -54q0 -21 -7.5 -41.5t-20.5 -44.5q-21 -32 -45.5 -69.5t-48.5 -74.5t-47.5 -71t-40.5 -59q-26 -36 -57 -51.5 t-61 -15.5q-35 0 -61 23t-26 65z" />
<glyph unicode="&#x201c;" horiz-adv-x="1278" d="M173 1396q0 13 2 26.5t6 29.5q14 51 32.5 113.5t37.5 124t37 117t32 94.5q18 52 52 77t69 25q34 0 60 -26.5t26 -78.5q0 -20 -1.5 -51.5t-4 -68.5t-5.5 -78.5t-6 -81.5q-8 -94 -18 -201q0 -32 -16 -58t-42 -44t-58.5 -27t-64.5 -9q-27 0 -52 7t-44.5 21t-30.5 36t-11 53z M588 1396q0 13 2 26.5t6 29.5q14 51 32.5 113.5t37.5 124t36.5 117t31.5 94.5q19 52 53 77t68 25q35 0 61 -26.5t26 -78.5q0 -20 -1.5 -51.5t-4 -68.5t-5.5 -78.5t-7 -81.5q-7 -94 -17 -201q0 -32 -16 -58t-42 -44t-58.5 -27t-64.5 -9q-27 0 -52 7t-44.5 21t-30.5 36t-11 53 z" />
<glyph unicode="&#x201d;" horiz-adv-x="1278" d="M173 1386q0 19 1.5 50t3.5 68t5.5 78.5t6.5 81.5q8 94 17 202q0 33 16.5 58t42.5 43t58 27.5t65 9.5q27 0 51.5 -7t44 -21t31 -36.5t11.5 -52.5q0 -13 -2 -26.5t-7 -28.5q-15 -52 -32.5 -114t-36.5 -123.5t-37 -117.5t-32 -95q-18 -51 -52 -76.5t-69 -25.5 q-34 0 -60 26.5t-26 79.5zM588 1386q0 19 1.5 50t3.5 68t5.5 78.5t6.5 81.5q7 94 17 202q0 33 16 58t42 43t58.5 27.5t65.5 9.5q27 0 51.5 -7t44 -21t31 -36.5t11.5 -52.5q0 -13 -2.5 -26.5t-6.5 -28.5q-15 -52 -33 -114t-36.5 -123.5t-36.5 -117.5t-32 -95 q-18 -51 -52.5 -76.5t-68.5 -25.5q-35 0 -60.5 26.5t-25.5 79.5z" />
<glyph unicode="&#x201e;" horiz-adv-x="1107" d="M310 -118q0 18 6 40q4 14 9 36.5t12.5 48t15.5 54.5t15 57q19 65 39 138q7 23 21.5 40t34.5 28.5t43.5 17t48.5 5.5q30 0 60.5 -8.5t54.5 -24.5t39.5 -39t15.5 -54q0 -21 -7.5 -41.5t-20.5 -44.5q-21 -32 -45.5 -69.5t-48.5 -74.5t-47.5 -71t-40.5 -59q-26 -36 -57 -51.5 t-61 -15.5q-35 0 -61 23t-26 65zM732 -118q0 18 7 40q3 14 8.5 36.5t12.5 48t15 54.5t16 57q18 65 38 138q7 23 21.5 40t34.5 28.5t44 17t48 5.5q31 0 61 -8.5t54.5 -24.5t39.5 -39t15 -54q0 -21 -7.5 -41.5t-20.5 -44.5q-21 -32 -45 -69.5t-48.5 -74.5t-47.5 -71t-41 -59 q-25 -36 -56.5 -51.5t-60.5 -15.5q-36 0 -62 23t-26 65z" />
<glyph unicode="&#x2022;" horiz-adv-x="1209" d="M276 588q0 91 38.5 162.5t99 119.5t134 73t143.5 25q50 0 94 -12t77 -39.5t52 -74.5t19 -116q0 -107 -33.5 -191.5t-87 -142.5t-122 -89.5t-137.5 -31.5q-51 0 -100 16t-88.5 53t-64 97.5t-24.5 150.5z" />
<glyph unicode="&#x2026;" horiz-adv-x="1692" d="M346 175q0 39 11 76t35 66.5t61.5 46.5t89.5 17q90 0 136.5 -45t46.5 -130q0 -4 -1 -21.5t-7 -40t-18.5 -48t-35 -47t-57.5 -35.5t-84 -14q-40 0 -72.5 10.5t-55.5 31.5t-36 54t-13 79zM795 175q0 39 11.5 76t35 66.5t61.5 46.5t90 17q89 0 135.5 -45t46.5 -130 q0 -4 -1 -21.5t-7 -40t-18.5 -48t-35 -47t-57 -35.5t-84.5 -14q-40 0 -72.5 10.5t-55.5 31.5t-36 54t-13 79zM1244 175q0 39 11.5 76t35 66.5t61.5 46.5t90 17q89 0 135.5 -45t46.5 -130q0 -4 -1 -21.5t-7 -40t-18.5 -48t-35 -47t-57 -35.5t-84.5 -14q-40 0 -72 10.5 t-55.5 31.5t-36.5 54t-13 79z" />
<glyph unicode="&#x202f;" horiz-adv-x="562" />
<glyph unicode="&#x2039;" horiz-adv-x="1176" d="M87 583q0 33 12.5 68t39 68.5t67.5 64t99 56.5l537 227q16 7 30.5 9.5t27.5 2.5q26 0 48 -8.5t38 -24.5t25.5 -36t9.5 -42q0 -34 -24.5 -70t-82.5 -63l-568 -247l506 -250q16 -6 39.5 -21t44.5 -36.5t36 -49.5t15 -60q0 -14 -8.5 -30.5t-24 -30t-38 -22.5t-50.5 -9 q-32 0 -69 15q-86 32 -155 62t-124.5 57.5t-100 53.5t-84.5 50.5t-76.5 49t-75.5 49.5q-44 31 -69 75t-25 92z" />
<glyph unicode="&#x203a;" horiz-adv-x="1176" d="M189 968q0 22 9 42t25.5 36t38.5 24.5t48 8.5q13 0 27.5 -2.5t29.5 -9.5l538 -227q115 -44 166 -104.5t51 -119.5q0 -30 -5.5 -59.5t-21.5 -59t-46.5 -59t-80.5 -58.5q-120 -68 -259 -143t-296 -143q-37 -15 -70 -15q-28 0 -50 9t-37.5 22.5t-24.5 30t-9 30.5 q0 32 15.5 60t36.5 49.5t44 36.5t39 21l507 250l-568 247q-58 27 -82.5 63t-24.5 70z" />
<glyph unicode="&#x205f;" horiz-adv-x="703" />
<glyph unicode="&#x20ac;" horiz-adv-x="2005" d="M-70 671q0 14 3 29.5t14 29t32 22t56 8.5h96q6 35 14.5 69t19.5 70h-60q-35 0 -55.5 12t-32 30t-14.5 38.5t-3 36.5q0 14 3 30t14 29.5t32 22t56 8.5h136q46 106 106 209t132 195.5t155 170t175.5 134.5t194 88.5t209.5 31.5q140 0 233.5 -36t149 -95t79 -134t23.5 -153 q0 -76 -18 -150t-44 -131.5t-56 -92.5t-55 -35q-15 0 -41.5 5t-51.5 14.5t-43 25.5t-18 37v6t1 7q5 27 16.5 62.5t22.5 75t20 80.5t9 80t-12 74t-42.5 61.5t-81.5 41.5t-129 15q-94 0 -181.5 -48t-165.5 -129t-145.5 -187t-119.5 -223h372q14 0 32.5 -3.5t33.5 -12.5 t26 -24.5t11 -41.5q0 -22 -5 -44t-19.5 -40t-41.5 -29.5t-72 -11.5h-416q-12 -36 -21 -70t-17 -69h419q14 0 32.5 -3t33.5 -12.5t26 -25t11 -41.5q0 -21 -5 -43.5t-19.5 -40t-41.5 -29.5t-73 -12h-413q-1 -12 -1 -22v-21q0 -122 31 -206.5t84.5 -137t126 -76t155.5 -23.5 q81 0 168.5 20.5t172.5 55.5t164 83t144 103q27 18 56 18q21 0 40.5 -9t34.5 -23.5t23.5 -34.5t8.5 -41q0 -24 -12.5 -49.5t-40.5 -48.5q-78 -69 -173.5 -132t-200.5 -111t-217 -76.5t-224 -28.5q-83 0 -164 16.5t-153.5 52.5t-134 93.5t-106.5 138.5t-69.5 187t-24.5 240 v15.5t1 16.5h-70q-35 0 -55.5 12.5t-32 30t-14.5 38t-3 37.5z" />
<glyph unicode="&#x2122;" horiz-adv-x="2486" d="M125 1052q0 100 50 161.5t135.5 96t200.5 46t245 11.5q69 0 145 -11t155 -41q1 -1 5 -1q8 3 14 3q17 0 33 -8t27.5 -19.5t18.5 -28t7 -32.5q0 -5 -1 -10l-2 -10q-41 -139 -80.5 -266t-74.5 -236l20 -8q45 137 87.5 240t83 177t78.5 122.5t72 77.5t64.5 40t55.5 11 q71 0 114 -59.5t43 -173.5v-19.5t-1 -19.5l-9 -162q31 102 68 182.5t81 136.5t93.5 85.5t105.5 29.5q55 0 92 -17.5t59 -48.5t31.5 -72.5t9.5 -88.5q0 -85 -14 -170t-30 -157.5t-30 -124t-14 -68.5q0 -37 25 -37q13 0 32 10.5t40.5 27.5t44 38.5t42.5 44.5t36.5 44.5 t26.5 38.5q1 0 7 -16q5 -14 14 -46t28 -93q-77 -110 -157.5 -155t-157.5 -45q-31 0 -59 12.5t-49.5 36t-34.5 59t-13 81.5q0 33 14.5 84.5t32 112.5t32 127t14.5 127q0 41 -13.5 66.5t-48.5 25.5q-38 0 -73 -31.5t-67 -85t-60 -123t-52.5 -144.5t-46.5 -150t-39 -139 q-7 -21 -21.5 -37t-32 -25.5t-37.5 -14t-38 -4.5q-42 0 -61 29.5t-19 65.5v9.5t1 9.5q3 13 11 46.5t18 78t20 97.5t18.5 106t14 101.5t5.5 85.5q0 60 -10 92.5t-40 32.5q-21 0 -48.5 -32.5t-58.5 -85.5t-63.5 -123t-63.5 -145t-59.5 -150t-51.5 -139q-24 -42 -56 -60.5 t-66 -18.5q-49 0 -84.5 32t-35.5 90q0 74 21 155.5t47.5 163.5t49.5 161.5t28 149.5q-46 9 -97 22.5t-101 18.5q-61 -204 -103 -373.5t-74 -284.5q-6 -27 -19.5 -49.5t-30 -39t-33.5 -26t-33 -9.5q-34 0 -58 21t-24 70q0 55 22.5 136.5t56 175.5t74 192.5t75.5 186.5 q-47 -5 -96.5 -12t-89 -23t-65.5 -43.5t-26 -72.5q0 -1 -2.5 -17.5t-14 -34.5t-37 -34t-73.5 -16q-35 0 -54.5 16t-28.5 35q-11 22 -12 51z" />
<glyph unicode="&#x25fc;" horiz-adv-x="1074" d="M0 0v1075h1075v-1075h-1075z" />
<glyph unicode="&#xfb01;" horiz-adv-x="1360" d="M73 -41q0 5 3 65.5t10.5 161t20.5 232t34 277.5t49.5 300t68 300t90.5 275t114 225.5t140.5 152.5t170.5 56q37 0 77.5 -12.5t74 -42t55.5 -77.5t22 -118q0 -64 -20 -146.5t-56 -176.5t-85 -195.5t-107.5 -202.5t-122.5 -198.5t-131 -183.5l-3 -17q22 11 33 14t23 3 q14 0 22.5 -2.5t15.5 -6t14.5 -6t18.5 -2.5q68 0 125.5 11.5t105 28t85.5 37t64 39.5l46 182q8 28 30.5 48t51.5 32.5t59.5 18.5t55.5 6q45 0 61.5 -17t16.5 -45q0 -24 -11 -68.5t-27 -101.5t-34.5 -122t-34.5 -130.5t-27 -127.5t-11 -112q0 -48 11 -77t44 -29q39 0 86.5 27 t96 65.5t95 79.5t82.5 70v-219q-39 -36 -97 -76.5t-125 -74.5t-136.5 -56.5t-132.5 -22.5q-56 0 -94 15.5t-62 43.5t-34 68.5t-10 89.5q0 55 10.5 126t26.5 148q-63 -22 -125 -35t-110 -19q-57 -7 -109 -8q39 -72 70 -148q27 -66 49 -147.5t22 -164.5q0 -10 -2.5 -41.5 t-9 -76.5t-18.5 -100.5t-31 -111.5t-46 -108.5t-63 -93t-83 -65t-106 -24.5q-60 0 -104 27t-75.5 72.5t-52.5 107t-33 129.5t-17 138.5t-5 136.5zM318 64q0 -159 5.5 -253t15 -142.5t20.5 -63t23 -14.5q37 0 59 33.5t33.5 84.5t15.5 112t4 117q0 38 -6 93t-16.5 115 t-24 119.5t-28 106.5t-29.5 76t-28 29q-5 0 -10 -24t-10 -62.5t-9.5 -86t-7.5 -93.5t-5 -85.5t-2 -61.5zM431 881q66 124 133 244.5t121 224t88 182t34 119.5q0 58 -16.5 84t-44.5 26q-49 0 -75 -26t-47 -79q-62 -156 -98 -274t-54 -210t-26 -161.5t-15 -129.5zM1093 1340 q0 25 11 56.5t35 59t64.5 46.5t101.5 19q37 0 70.5 -9t58.5 -26.5t39.5 -47t14.5 -69.5q0 -36 -12 -70.5t-37.5 -61.5t-65 -44t-94.5 -17q-95 0 -140.5 45t-45.5 119z" />
<glyph unicode="&#xfb02;" horiz-adv-x="1401" d="M73 -41q0 5 3 65.5t10.5 161t20.5 232t34 277.5t49.5 300t68 300t90.5 275t114 225.5t140.5 152.5t170.5 56q37 0 77.5 -12.5t74 -42t55.5 -77.5t22 -118q0 -64 -20 -146.5t-56 -176.5t-85 -195.5t-107.5 -202.5t-122.5 -198.5t-131 -183.5l-3 -17q22 11 33 14t23 3 q14 0 22.5 -2.5t15.5 -6t14.5 -6t18.5 -2.5q87 0 157 17.5t124 41.5q4 77 20.5 177t44 211.5t65.5 228.5t84 227t99.5 207.5t112.5 170.5t123 116t131 43q46 0 76.5 -21.5t47.5 -56t24.5 -78t7.5 -88.5q0 -102 -23.5 -207.5t-63 -211.5t-91 -213t-108 -212.5t-113 -207.5 t-106.5 -199q-5 -11 -11 -28t-11.5 -37t-11 -43t-8.5 -44v-16q0 -28 6 -54.5t14.5 -47.5t18.5 -33t18 -12q21 0 47.5 8.5t56 23t61 33.5t60.5 38q68 46 142 105l89 -227q-96 -69 -190 -123q-41 -23 -85 -45t-88 -39t-86 -27.5t-79 -10.5q-50 0 -93.5 37.5t-78.5 102 t-60 152.5t-36 190q-59 -20 -115.5 -30t-100.5 -16q-52 -5 -98 -7q39 -72 70 -148q27 -66 49 -147.5t22 -164.5q0 -10 -2.5 -41.5t-9 -76.5t-18.5 -100.5t-31 -111.5t-46 -108.5t-63 -93t-83 -65t-106 -24.5q-60 0 -104 27t-75.5 72.5t-52.5 107t-33 129.5t-17 138.5 t-5 136.5zM318 64q0 -159 5.5 -253t15 -142.5t20.5 -63t23 -14.5q37 0 59 33.5t33.5 84.5t15.5 112t4 117q0 38 -6 93t-16.5 115t-24 119.5t-28 106.5t-29.5 76t-28 29q-5 0 -10 -24t-10 -62.5t-9.5 -86t-7.5 -93.5t-5 -85.5t-2 -61.5zM431 881q66 124 133 244.5t121 224 t88 182t34 119.5q0 58 -16.5 84t-44.5 26q-49 0 -75 -26t-47 -79q-62 -156 -98 -274t-54 -210t-26 -161.5t-15 -129.5zM1177 894q0 -19 1 -35q49 86 101 194.5t97 224.5t78 230.5t43 213.5q0 31 -1.5 53t-10.5 22q-36 0 -81.5 -52t-89.5 -147.5t-80.5 -230.5t-54.5 -302 q-1 -11 -1.5 -37t-0.5 -57v-77z" />
</font>
</defs>
</svg>
